AbhayaLibre-ExtraBold.ufo
<glyph name="apostrophe" format="1">
  <advance width="60"/>
  <unicode hex="0027"/>
  <outline>
    <contour>
      <point x="18" y="522" type="line"/>
      <point x="159" y="522" type="line"/>
      <point x="159" y="349" type="line"/>
      <point x="18" y="349" type="line"/>
    </contour>
  </outline>
</glyph>
<glyph name="plus" format="1">
  <advance width="436"/>
  <unicode hex="002B"/>
  <outline>
    <contour>
      <point x="46" y="230" type="line"/>
      <point x="182" y="230" type="line"/>
      <point x="182" y="354" type="line"/>
      <point x="236" y="354" type="line"/>
      <point x="236" y="230" type="line"/>
      <point x="373" y="230" type="line"/>
      <point x="373" y="183" type="line"/>
      <point x="236" y="183" type="line"/>
      <point x="236" y="60" type="line"/>
      <point x="182" y="60" type="line"/>
      <point x="182" y="183" type="line"/>
      <point x="46" y="183" type="line"/>
    </contour>
  </outline>
</glyph>
<glyph name="comma" format="1">
  <advance width="187"/>
  <unicode hex="002C"/>
  <outline>
    <contour>
      <point x="167" y="53" type="curve" smooth="yes"/>
      <point x="167" y="100"/>
      <point x="142" y="136"/>
      <point x="93" y="136" type="curve" smooth="yes"/>
      <point x="55" y="136"/>
      <point x="25" y="104"/>
      <point x="25" y="65" type="curve" smooth="yes"/>
      <point x="25" y="27"/>
      <point x="53" y="2"/>
      <point x="82" y="-4" type="curve" smooth="yes"/>
      <point x="101" y="-8"/>
      <point x="108" y="-15"/>
      <point x="108" y="-29" type="curve" smooth="yes"/>
      <point x="108" y="-46"/>
      <point x="93" y="-76"/>
      <point x="69" y="-101" type="curve"/>
      <point x="90" y="-117" type="line"/>
      <point x="134" y="-70"/>
      <point x="167" y="-3"/>
    </contour>
  </outline>
</glyph>
<glyph name="dot" format="1">
  <advance width="208"/>
  <unicode hex="002E"/>
  <outline>
    <contour>
      <point x="98" y="108" type="curve" smooth="yes"/>
      <point x="125" y="108"/>
      <point x="157" y="91"/>
      <point x="157" y="50" type="curve" smooth="yes"/>
      <point x="157" y="25"/>
      <point x="141" y="-8"/>
      <point x="98" y="-8" type="curve" smooth="yes"/>
      <point x="71" y="-8"/>
      <point x="39" y="9"/>
      <point x="39" y="50" type="curve" smooth="yes"/>
      <point x="39" y="63"/>
      <point x="42" y="74"/>
      <point x="49" y="84" type="curve" smooth="yes"/>
      <point x="60" y="100"/>
      <point x="77" y="108"/>
    </contour>
  </outline>
</glyph>
<glyph name="six" format="1">
  <advance width="574"/>
  <unicode hex="0036"/>
  <outline>
    <contour>
      <point x="534" y="190" type="curve" smooth="yes"/>
      <point x="534" y="280"/>
      <point x="467" y="366"/>
      <point x="330" y="366" type="curve" smooth="yes"/>
      <point x="268" y="366"/>
      <point x="202" y="343"/>
      <point x="156" y="296" type="curve"/>
      <point x="195" y="295" type="line"/>
      <point x="195" y="454"/>
      <point x="222" y="585"/>
      <point x="320" y="585" type="curve" smooth="yes"/>
      <point x="439" y="585"/>
      <point x="323" y="436"/>
      <point x="443" y="436" type="curve" smooth="yes"/>
      <point x="484" y="436"/>
      <point x="511" y="466"/>
      <point x="511" y="502" type="curve" smooth="yes"/>
      <point x="511" y="557"/>
      <point x="440" y="609"/>
      <point x="330" y="609" type="curve" smooth="yes"/>
      <point x="143" y="609"/>
      <point x="60" y="456"/>
      <point x="60" y="296" type="curve" smooth="yes"/>
      <point x="60" y="72"/>
      <point x="173" y="-10"/>
      <point x="294" y="-10" type="curve" smooth="yes"/>
      <point x="454" y="-10"/>
      <point x="534" y="92"/>
    </contour>
    <contour>
      <point x="197" y="173" type="curve" smooth="yes"/>
      <point x="197" y="287"/>
      <point x="236" y="335"/>
      <point x="304" y="335" type="curve" smooth="yes"/>
      <point x="369" y="335"/>
      <point x="402" y="293"/>
      <point x="402" y="184" type="curve" smooth="yes"/>
      <point x="402" y="63"/>
      <point x="365" y="16"/>
      <point x="298" y="16" type="curve" smooth="yes"/>
      <point x="232" y="16"/>
      <point x="197" y="61"/>
    </contour>
  </outline>
</glyph>
<glyph name="seven" format="1">
  <advance width="485"/>
  <unicode hex="0037"/>
  <outline>
    <contour>
      <point x="480" y="510" type="curve"/>
      <point x="448" y="518" type="line"/>
      <point x="248" y="224"/>
      <point x="105" y="88"/>
      <point x="105" y="-13" type="curve" smooth="yes"/>
      <point x="105" y="-56"/>
      <point x="138" y="-78"/>
      <point x="178" y="-78" type="curve" smooth="yes"/>
      <point x="310" y="-78"/>
      <point x="195" y="108"/>
    </contour>
    <contour>
      <point x="65" y="359" type="line"/>
      <point x="83" y="405" type="line" smooth="yes"/>
      <point x="99" y="446"/>
      <point x="120" y="448"/>
      <point x="161" y="448" type="curve"/>
      <point x="42" y="540" type="line"/>
      <point x="40" y="359" type="line"/>
    </contour>
    <contour>
      <point x="410" y="448" type="line"/>
      <point x="480" y="510" type="line"/>
      <point x="480" y="540" type="line"/>
      <point x="42" y="540" type="line"/>
      <point x="42" y="448" type="line"/>
    </contour>
  </outline>
</glyph>
<glyph name="eight" format="1">
  <advance width="540"/>
  <unicode hex="0038"/>
  <outline>
    <contour>
      <point x="86" y="147" type="curve" smooth="yes"/>
      <point x="86" y="62"/>
      <point x="169" y="20"/>
      <point x="241" y="20" type="curve" smooth="yes"/>
      <point x="316" y="20"/>
      <point x="378" y="52"/>
      <point x="378" y="120" type="curve" smooth="yes"/>
      <point x="378" y="263"/>
      <point x="63" y="283"/>
      <point x="63" y="453" type="curve" smooth="yes"/>
      <point x="63" y="559"/>
      <point x="164" y="611"/>
      <point x="263" y="611" type="curve" smooth="yes"/>
      <point x="372" y="611"/>
      <point x="450" y="561"/>
      <point x="450" y="468" type="curve" smooth="yes"/>
      <point x="450" y="404"/>
      <point x="397" y="338"/>
      <point x="304" y="305" type="curve"/>
      <point x="267" y="322" type="line"/>
      <point x="360" y="344"/>
      <point x="414" y="409"/>
      <point x="414" y="469" type="curve" smooth="yes"/>
      <point x="414" y="543"/>
      <point x="351" y="583"/>
      <point x="282" y="583" type="curve" smooth="yes"/>
      <point x="224" y="583"/>
      <point x="173" y="554"/>
      <point x="173" y="495" type="curve" smooth="yes"/>
      <point x="173" y="349"/>
      <point x="490" y="336"/>
      <point x="490" y="163" type="curve" smooth="yes"/>
      <point x="490" y="48"/>
      <point x="374" y="-11"/>
      <point x="257" y="-11" type="curve" smooth="yes"/>
      <point x="120" y="-11"/>
      <point x="50" y="66"/>
      <point x="50" y="144" type="curve" smooth="yes"/>
      <point x="50" y="210"/>
      <point x="97" y="275"/>
      <point x="195" y="305" type="curve"/>
      <point x="242" y="286" type="line"/>
      <point x="129" y="270"/>
      <point x="86" y="203"/>
    </contour>
  </outline>
</glyph>
<glyph name="colon" format="1">
  <advance width="201"/>
  <unicode hex="003A"/>
  <outline>
    <contour>
      <point x="171" y="104" type="curve" smooth="yes"/>
      <point x="171" y="143"/>
      <point x="139" y="180"/>
      <point x="100" y="180" type="curve" smooth="yes"/>
      <point x="61" y="180"/>
      <point x="30" y="143"/>
      <point x="30" y="104" type="curve" smooth="yes"/>
      <point x="30" y="64"/>
      <point x="61" y="34"/>
      <point x="100" y="34" type="curve" smooth="yes"/>
      <point x="139" y="34"/>
      <point x="171" y="64"/>
    </contour>
    <contour>
      <point x="171" y="332" type="curve" smooth="yes"/>
      <point x="171" y="371"/>
      <point x="139" y="403"/>
      <point x="100" y="403" type="curve" smooth="yes"/>
      <point x="61" y="403"/>
      <point x="30" y="371"/>
      <point x="30" y="332" type="curve" smooth="yes"/>
      <point x="30" y="292"/>
      <point x="61" y="262"/>
      <point x="100" y="262" type="curve" smooth="yes"/>
      <point x="139" y="262"/>
      <point x="171" y="292"/>
    </contour>
  </outline>
</glyph>
<glyph name="question" format="1">
  <advance width="467"/>
  <unicode hex="003F"/>
  <outline>
    <contour>
      <point x="225" y="192" type="line"/>
      <point x="225" y="348"/>
      <point x="417" y="331"/>
      <point x="417" y="483" type="curve" smooth="yes"/>
      <point x="417" y="574"/>
      <point x="320" y="610"/>
      <point x="224" y="610" type="curve" smooth="yes"/>
      <point x="141" y="610"/>
      <point x="50" y="576"/>
      <point x="50" y="507" type="curve" smooth="yes"/>
      <point x="50" y="477"/>
      <point x="70" y="453"/>
      <point x="110" y="453" type="curve" smooth="yes"/>
      <point x="211" y="453"/>
      <point x="125" y="584"/>
      <point x="224" y="584" type="curve" smooth="yes"/>
      <point x="254" y="584"/>
      <point x="290" y="565"/>
      <point x="290" y="500" type="curve" smooth="yes"/>
      <point x="290" y="321"/>
      <point x="191" y="358"/>
      <point x="191" y="192" type="curve"/>
    </contour>
    <component base="period" xOffset="117"/>
  </outline>
</glyph>
<glyph name="B" format="1">
  <advance width="620"/>
  <unicode hex="0042"/>
  <outline>
    <contour>
      <point x="360" y="0" type="line"/>
      <point x="511" y="0"/>
      <point x="588" y="83"/>
      <point x="588" y="173" type="curve" smooth="yes"/>
      <point x="588" y="268"/>
      <point x="516" y="328"/>
      <point x="369" y="328" type="curve"/>
      <point x="320" y="311" type="line"/>
      <point x="399" y="311"/>
      <point x="435" y="250"/>
      <point x="435" y="180" type="curve" smooth="yes"/>
      <point x="435" y="100"/>
      <point x="405" y="27"/>
      <point x="305" y="27" type="curve" smooth="yes"/>
      <point x="20" y="27" type="line"/>
      <point x="20" y="0" type="line"/>
    </contour>
    <contour>
      <point x="342" y="600" type="curve" smooth="yes"/>
      <point x="20" y="600" type="line"/>
      <point x="20" y="573" type="line"/>
      <point x="286" y="573" type="line" smooth="yes"/>
      <point x="368" y="573"/>
      <point x="398" y="527"/>
      <point x="398" y="457" type="curve" smooth="yes"/>
      <point x="398" y="392"/>
      <point x="369" y="339"/>
      <point x="294" y="339" type="curve" smooth="yes"/>
      <point x="148" y="339" type="line"/>
      <point x="148" y="311" type="line"/>
      <point x="320" y="311" type="line" smooth="yes"/>
      <point x="469" y="311"/>
      <point x="543" y="388"/>
      <point x="543" y="465" type="curve" smooth="yes"/>
      <point x="543" y="545"/>
      <point x="479" y="600"/>
    </contour>
    <component base="vertical_stem_upper" xOffset="56"/>
  </outline>
</glyph>
<glyph name="I" format="1">
  <advance width="318"/>
  <unicode hex="0049"/>
  <outline>
    <contour>
      <point x="298" y="573" type="line"/>
      <point x="298" y="600" type="line"/>
      <point x="20" y="600" type="line"/>
      <point x="20" y="573" type="line"/>
    </contour>
    <contour>
      <point x="298" y="0" type="line"/>
      <point x="298" y="23"/>
      <point x="293" y="27"/>
      <point x="274" y="27" type="curve" smooth="yes"/>
      <point x="20" y="27" type="line"/>
      <point x="20" y="0" type="line"/>
    </contour>
    <component base="vertical_stem_upper" xOffset="47"/>
    <contour>
      <point x="294" y="9" type="move" name="ogonek"/>
    </contour>
    <contour>
      <point x="155" y="630" type="move" name="top"/>
    </contour>
  </outline>
</glyph>
<glyph name="K" format="1">
  <advance width="647"/>
  <unicode hex="004B"/>
  <outline>
    <contour>
      <point x="303" y="0" type="line"/>
      <point x="303" y="23"/>
      <point x="298" y="27"/>
      <point x="279" y="27" type="curve" smooth="yes"/>
      <point x="25" y="27" type="line"/>
      <point x="25" y="0" type="line"/>
    </contour>
    <contour>
      <point x="303" y="573" type="line"/>
      <point x="303" y="600" type="line"/>
      <point x="25" y="600" type="line"/>
      <point x="25" y="573" type="line"/>
    </contour>
    <contour>
      <point x="647" y="0" type="line"/>
      <point x="647" y="23"/>
      <point x="642" y="26"/>
      <point x="623" y="26" type="curve" smooth="yes"/>
      <point x="612" y="26" type="line"/>
      <point x="362" y="396" type="line"/>
      <point x="255" y="312" type="line"/>
      <point x="456" y="-1" type="line"/>
    </contour>
    <contour>
      <point x="519" y="526" type="line" smooth="yes"/>
      <point x="545" y="550"/>
      <point x="564" y="573"/>
      <point x="589" y="573" type="curve" smooth="yes"/>
      <point x="618" y="573"/>
      <point x="620" y="571"/>
      <point x="620" y="600" type="curve"/>
      <point x="440" y="600" type="line"/>
      <point x="440" y="573" type="line"/>
      <point x="516" y="573" type="line"/>
      <point x="189" y="277" type="line"/>
      <point x="196" y="234" type="line"/>
    </contour>
    <component base="vertical_stem_upper" xOffset="51"/>
    <contour>
      <point x="324" y="630" type="move" name="top"/>
    </contour>
    <contour>
      <point x="352" y="0" type="move" name="bottom"/>
    </contour>
  </outline>
</glyph>
<glyph name="M" format="1">
  <advance width="800"/>
  <unicode hex="004D"/>
  <outline>
    <contour>
      <point x="768" y="0" type="line"/>
      <point x="768" y="23"/>
      <point x="763" y="27"/>
      <point x="744" y="27" type="curve" smooth="yes"/>
      <point x="499" y="27" type="line"/>
      <point x="499" y="0" type="line"/>
    </contour>
    <contour>
      <point x="768" y="573" type="line"/>
      <point x="768" y="600" type="line"/>
      <point x="619" y="600" type="line"/>
      <point x="619" y="573" type="line"/>
    </contour>
    <contour>
      <point x="229" y="0" type="line"/>
      <point x="229" y="23"/>
      <point x="224" y="27"/>
      <point x="205" y="27" type="curve" smooth="yes"/>
      <point x="134" y="27" type="line"/>
      <point x="134" y="600" type="line"/>
      <point x="30" y="600" type="line"/>
      <point x="30" y="573" type="line"/>
      <point x="97" y="573" type="line"/>
      <point x="97" y="27" type="line"/>
      <point x="30" y="27" type="line"/>
      <point x="30" y="0" type="line"/>
    </contour>
    <contour>
      <point x="378" y="-10" type="line"/>
      <point x="429" y="139" type="line"/>
      <point x="196" y="600" type="line"/>
      <point x="106" y="600" type="line"/>
      <point x="106" y="468" type="line"/>
      <point x="360" y="-10" type="line"/>
    </contour>
    <contour>
      <point x="616" y="600" type="line"/>
      <point x="575" y="600" type="line"/>
      <point x="358" y="35" type="line"/>
      <point x="378" y="-10" type="line"/>
    </contour>
    <contour>
      <point x="710" y="0" type="line"/>
      <point x="710" y="600" type="line"/>
      <point x="575" y="600" type="line"/>
      <point x="575" y="0" type="line"/>
    </contour>
  </outline>
</glyph>
<glyph name="O" format="1">
  <advance width="704"/>
  <unicode hex="004F"/>
  <outline>
    <contour>
      <point x="355" y="610" type="curve" smooth="yes"/>
      <point x="190" y="610"/>
      <point x="35" y="497"/>
      <point x="35" y="302" type="curve" smooth="yes"/>
      <point x="35" y="102"/>
      <point x="187" y="-10"/>
      <point x="352" y="-10" type="curve" smooth="yes"/>
      <point x="516" y="-10"/>
      <point x="669" y="103"/>
      <point x="669" y="298" type="curve" smooth="yes"/>
      <point x="669" y="503"/>
      <point x="520" y="610"/>
    </contour>
    <contour>
      <point x="355" y="19" type="curve" smooth="yes"/>
      <point x="247" y="19"/>
      <point x="192" y="88"/>
      <point x="192" y="298" type="curve" smooth="yes"/>
      <point x="192" y="498"/>
      <point x="244" y="581"/>
      <point x="352" y="581" type="curve" smooth="yes"/>
      <point x="460" y="581"/>
      <point x="512" y="500"/>
      <point x="512" y="303" type="curve" smooth="yes"/>
      <point x="512" y="98"/>
      <point x="463" y="19"/>
    </contour>
    <contour>
      <point x="358" y="630" type="move" name="top"/>
    </contour>
  </outline>
</glyph>
<glyph name="T" format="1">
  <advance width="566"/>
  <unicode hex="0054"/>
  <outline>
    <contour>
      <point x="546" y="386" type="line"/>
      <point x="542" y="600" type="line"/>
      <point x="370" y="573" type="line"/>
      <point x="446" y="573"/>
      <point x="468" y="525"/>
      <point x="485" y="476" type="curve" smooth="yes"/>
      <point x="516" y="386" type="line"/>
    </contour>
    <contour>
      <point x="448" y="0" type="line"/>
      <point x="448" y="23"/>
      <point x="443" y="27"/>
      <point x="423" y="27" type="curve" smooth="yes"/>
      <point x="118" y="27" type="line"/>
      <point x="118" y="0" type="line"/>
    </contour>
    <contour>
      <point x="50" y="386" type="line"/>
      <point x="81" y="476" type="line" smooth="yes"/>
      <point x="98" y="525"/>
      <point x="120" y="573"/>
      <point x="196" y="573" type="curve"/>
      <point x="24" y="600" type="line"/>
      <point x="20" y="386" type="line"/>
    </contour>
    <contour>
      <point x="532" y="573" type="line"/>
      <point x="542" y="600" type="line"/>
      <point x="24" y="600" type="line"/>
      <point x="36" y="573" type="line"/>
    </contour>
    <component base="vertical_stem_upper" xOffset="171"/>
    <contour>
      <point x="283" y="350" type="move" name="center"/>
    </contour>
    <contour>
      <point x="279" y="0" type="move" name="bottom"/>
    </contour>
    <contour>
      <point x="283" y="630" type="move" name="top"/>
    </contour>
  </outline>
</glyph>
<glyph name="W" format="1">
  <advance width="910"/>
  <unicode hex="0057"/>
  <outline>
    <contour>
      <point x="329" y="0" type="line"/>
      <point x="502" y="468" type="line"/>
      <point x="469" y="471" type="line"/>
      <point x="297" y="0" type="line"/>
    </contour>
    <contour>
      <point x="259" y="573" type="line"/>
      <point x="259" y="600" type="line"/>
      <point x="5" y="600" type="line"/>
      <point x="5" y="573" type="line"/>
    </contour>
    <contour>
      <point x="659" y="0" type="line"/>
      <point x="851" y="573" type="line"/>
      <point x="816" y="573" type="line"/>
      <point x="627" y="0" type="line"/>
    </contour>
    <contour>
      <point x="609" y="573" type="line"/>
      <point x="609" y="600" type="line"/>
      <point x="456" y="600" type="line"/>
      <point x="456" y="574" type="line"/>
    </contour>
    <contour>
      <point x="910" y="573" type="line"/>
      <point x="910" y="600" type="line"/>
      <point x="741" y="600" type="line"/>
      <point x="741" y="573" type="line"/>
    </contour>
    <contour>
      <point x="330" y="0" type="line"/>
      <point x="358" y="105" type="line"/>
      <point x="179" y="600" type="line"/>
      <point x="38" y="600" type="line"/>
      <point x="270" y="0" type="line"/>
    </contour>
    <contour>
      <point x="660" y="0" type="line"/>
      <point x="689" y="105" type="line"/>
      <point x="510" y="600" type="line"/>
      <point x="368" y="600" type="line"/>
      <point x="600" y="0" type="line"/>
    </contour>
  </outline>
</glyph>
<glyph name="X" format="1">
  <advance width="652"/>
  <unicode hex="0058"/>
  <outline>
    <contour>
      <point x="601" y="0" type="line"/>
      <point x="184" y="600" type="line"/>
      <point x="39" y="600" type="line"/>
      <point x="450" y="0" type="line"/>
    </contour>
    <contour>
      <point x="208" y="0" type="line"/>
      <point x="208" y="27" type="line"/>
      <point x="117" y="27" type="line"/>
      <point x="312" y="302" type="line"/>
      <point x="291" y="327" type="line"/>
      <point x="97" y="55" type="line" smooth="yes"/>
      <point x="83" y="36"/>
      <point x="49" y="27"/>
      <point x="29" y="27" type="curve" smooth="yes"/>
      <point x="17" y="27"/>
      <point x="9" y="20"/>
      <point x="9" y="0" type="curve"/>
    </contour>
    <contour>
      <point x="647" y="0" type="line"/>
      <point x="647" y="23"/>
      <point x="642" y="27"/>
      <point x="623" y="27" type="curve" smooth="yes"/>
      <point x="355" y="27" type="line"/>
      <point x="355" y="0" type="line"/>
    </contour>
    <contour>
      <point x="280" y="573" type="line"/>
      <point x="280" y="600" type="line"/>
      <point x="12" y="600" type="line"/>
      <point x="12" y="573" type="line"/>
    </contour>
    <contour>
      <point x="508" y="545" type="line" smooth="yes"/>
      <point x="521" y="563"/>
      <point x="546" y="573"/>
      <point x="571" y="573" type="curve" smooth="yes"/>
      <point x="585" y="573"/>
      <point x="588" y="584"/>
      <point x="588" y="600" type="curve"/>
      <point x="409" y="600" type="line"/>
      <point x="409" y="573" type="line"/>
      <point x="491" y="573" type="line"/>
      <point x="325" y="342" type="line"/>
      <point x="342" y="314" type="line"/>
    </contour>
  </outline>
</glyph>
<glyph name="d" format="1">
  <advance width="571"/>
  <unicode hex="0064"/>
  <outline>
    <contour>
      <point x="370" y="117" type="curve"/>
      <point x="359" y="117" type="line"/>
      <point x="377" y="0" type="line"/>
      <point x="556" y="0" type="line"/>
      <point x="556" y="22"/>
      <point x="551" y="25"/>
      <point x="532" y="25" type="curve" smooth="yes"/>
      <point x="486" y="25" type="line"/>
      <point x="486" y="650" type="line"/>
      <point x="268" y="650" type="line"/>
      <point x="268" y="625" type="line"/>
      <point x="359" y="625" type="line"/>
      <point x="359" y="340" type="line"/>
      <point x="404" y="340" type="line"/>
      <point x="372" y="410"/>
      <point x="309" y="446"/>
      <point x="237" y="446" type="curve" smooth="yes"/>
      <point x="132" y="446"/>
      <point x="30" y="366"/>
      <point x="30" y="207" type="curve" smooth="yes"/>
      <point x="30" y="66"/>
      <point x="120" y="-10"/>
      <point x="213" y="-10" type="curve" smooth="yes"/>
      <point x="284" y="-10"/>
      <point x="347" y="30"/>
    </contour>
    <contour>
      <point x="167" y="219" type="curve" smooth="yes"/>
      <point x="167" y="337"/>
      <point x="203" y="413"/>
      <point x="268" y="413" type="curve" smooth="yes"/>
      <point x="325" y="413"/>
      <point x="361" y="356"/>
      <point x="361" y="238" type="curve" smooth="yes"/>
      <point x="361" y="111"/>
      <point x="322" y="36"/>
      <point x="259" y="36" type="curve" smooth="yes"/>
      <point x="200" y="36"/>
      <point x="167" y="102"/>
    </contour>
    <contour>
      <point x="287" y="250" type="move" name="center"/>
    </contour>
    <contour>
      <point x="551" y="500" type="move" name="topright"/>
    </contour>
  </outline>
</glyph>
<glyph name="e" format="1">
  <advance width="469"/>
  <unicode hex="0065"/>
  <outline>
    <contour>
      <point x="247" y="419" type="curve" smooth="yes"/>
      <point x="293" y="419"/>
      <point x="312" y="375"/>
      <point x="312" y="310" type="curve" smooth="yes"/>
      <point x="312" y="258"/>
      <point x="294" y="244"/>
      <point x="224" y="247" type="curve" smooth="yes"/>
      <point x="148" y="250" type="line"/>
      <point x="146" y="221" type="line"/>
      <point x="252" y="218" type="line" smooth="yes"/>
      <point x="392" y="214"/>
      <point x="445" y="240"/>
      <point x="445" y="300" type="curve" smooth="yes"/>
      <point x="445" y="393"/>
      <point x="357" y="445"/>
      <point x="247" y="445" type="curve" smooth="yes"/>
      <point x="128" y="445"/>
      <point x="23" y="370"/>
      <point x="23" y="219" type="curve" smooth="yes"/>
      <point x="23" y="59"/>
      <point x="131" y="-10"/>
      <point x="250" y="-10" type="curve" smooth="yes"/>
      <point x="338" y="-10"/>
      <point x="408" y="30"/>
      <point x="435" y="106" type="curve"/>
      <point x="410" y="111" type="line"/>
      <point x="388" y="63"/>
      <point x="338" y="19"/>
      <point x="273" y="19" type="curve" smooth="yes"/>
      <point x="201" y="19"/>
      <point x="160" y="76"/>
      <point x="160" y="236" type="curve" smooth="yes"/>
      <point x="160" y="368"/>
      <point x="197" y="419"/>
    </contour>
    <contour>
      <point x="380" y="9" type="move" name="ogonek"/>
    </contour>
    <contour>
      <point x="235" y="0" type="move" name="bottom"/>
    </contour>
    <contour>
      <point x="235" y="500" type="move" name="top"/>
    </contour>
  </outline>
</glyph>
<glyph name="k" format="1">
  <advance width="527"/>
  <unicode hex="006B"/>
  <outline>
    <contour>
      <point x="270" y="26" type="curve" smooth="yes"/>
      <point x="218" y="26" type="line"/>
      <point x="218" y="650" type="line"/>
      <point x="15" y="650" type="line"/>
      <point x="15" y="624" type="line"/>
      <point x="91" y="624" type="line"/>
      <point x="91" y="78" type="line" smooth="yes"/>
      <point x="91" y="36"/>
      <point x="57" y="26"/>
      <point x="15" y="26" type="curve"/>
      <point x="15" y="0" type="line"/>
      <point x="294" y="0" type="line"/>
      <point x="294" y="22"/>
      <point x="289" y="26"/>
    </contour>
    <contour>
      <point x="194" y="157" type="line"/>
      <point x="410" y="366" type="line" smooth="yes"/>
      <point x="433" y="388"/>
      <point x="451" y="404"/>
      <point x="474" y="404" type="curve" smooth="yes"/>
      <point x="504" y="404"/>
      <point x="506" y="405"/>
      <point x="506" y="430" type="curve"/>
      <point x="338" y="430" type="line"/>
      <point x="338" y="404" type="line"/>
      <point x="411" y="404" type="line"/>
      <point x="188" y="192" type="line"/>
    </contour>
    <contour>
      <point x="244" y="220" type="line"/>
      <point x="371" y="-1" type="line"/>
      <point x="537" y="0" type="line"/>
      <point x="537" y="23"/>
      <point x="532" y="26"/>
      <point x="513" y="26" type="curve" smooth="yes"/>
      <point x="498" y="26" type="line"/>
      <point x="335" y="299" type="line"/>
    </contour>
    <contour>
      <point x="290" y="0" type="move" name="bottom"/>
    </contour>
  </outline>
</glyph>
<glyph name="m" format="1">
  <advance width="808"/>
  <unicode hex="006D"/>
  <outline>
    <contour>
      <point x="223" y="26" type="curve" smooth="yes"/>
      <point x="205" y="26" type="line"/>
      <point x="206" y="306" type="line"/>
      <point x="198" y="430" type="line"/>
      <point x="20" y="430" type="line"/>
      <point x="20" y="404" type="line"/>
      <point x="78" y="404" type="line"/>
      <point x="78" y="78" type="line" smooth="yes"/>
      <point x="78" y="36"/>
      <point x="55" y="26"/>
      <point x="20" y="26" type="curve"/>
      <point x="20" y="0" type="line"/>
      <point x="247" y="0" type="line"/>
      <point x="247" y="22"/>
      <point x="242" y="26"/>
    </contour>
    <contour>
      <point x="470" y="282" type="line" smooth="yes"/>
      <point x="470" y="387"/>
      <point x="411" y="445"/>
      <point x="343" y="445" type="curve" smooth="yes"/>
      <point x="283" y="445"/>
      <point x="231" y="417"/>
      <point x="200" y="351" type="curve"/>
      <point x="205" y="262" type="line"/>
      <point x="205" y="349"/>
      <point x="246" y="394"/>
      <point x="284" y="394" type="curve" smooth="yes"/>
      <point x="315" y="394"/>
      <point x="344" y="363"/>
      <point x="344" y="299" type="curve" smooth="yes"/>
      <point x="344" y="78" type="line" smooth="yes"/>
      <point x="344" y="38"/>
      <point x="336" y="26"/>
      <point x="300" y="26" type="curve"/>
      <point x="300" y="0" type="line"/>
      <point x="512" y="0" type="line"/>
      <point x="512" y="22"/>
      <point x="507" y="26"/>
      <point x="487" y="26" type="curve" smooth="yes"/>
      <point x="470" y="26" type="line"/>
    </contour>
    <contour>
      <point x="735" y="287" type="line" smooth="yes"/>
      <point x="735" y="389"/>
      <point x="674" y="445"/>
      <point x="605" y="445" type="curve" smooth="yes"/>
      <point x="541" y="445"/>
      <point x="487" y="413"/>
      <point x="454" y="340" type="curve"/>
      <point x="469" y="267" type="line"/>
      <point x="469" y="353"/>
      <point x="506" y="396"/>
      <point x="544" y="396" type="curve" smooth="yes"/>
      <point x="580" y="396"/>
      <point x="609" y="363"/>
      <point x="609" y="299" type="curve" smooth="yes"/>
      <point x="609" y="78" type="line" smooth="yes"/>
      <point x="609" y="38"/>
      <point x="601" y="26"/>
      <point x="565" y="26" type="curve"/>
      <point x="565" y="0" type="line"/>
      <point x="793" y="0" type="line"/>
      <point x="793" y="22"/>
      <point x="788" y="26"/>
      <point x="768" y="26" type="curve" smooth="yes"/>
      <point x="735" y="26" type="line"/>
    </contour>
  </outline>
</glyph>
<glyph name="n" format="1">
  <advance width="562"/>
  <unicode hex="006E"/>
  <outline>
    <contour>
      <point x="489" y="282" type="line" smooth="yes"/>
      <point x="489" y="401"/>
      <point x="423" y="445"/>
      <point x="351" y="445" type="curve" smooth="yes"/>
      <point x="287" y="445"/>
      <point x="225" y="403"/>
      <point x="200" y="346" type="curve"/>
      <point x="205" y="262" type="line"/>
      <point x="205" y="349"/>
      <point x="251" y="393"/>
      <point x="293" y="393" type="curve" smooth="yes"/>
      <point x="332" y="393"/>
      <point x="362" y="366"/>
      <point x="362" y="299" type="curve" smooth="yes"/>
      <point x="362" y="78" type="line" smooth="yes"/>
      <point x="362" y="38"/>
      <point x="352" y="26"/>
      <point x="316" y="26" type="curve"/>
      <point x="316" y="0" type="line"/>
      <point x="547" y="0" type="line"/>
      <point x="547" y="22"/>
      <point x="542" y="26"/>
      <point x="522" y="26" type="curve" smooth="yes"/>
      <point x="489" y="26" type="line"/>
    </contour>
    <contour>
      <point x="230" y="26" type="curve" smooth="yes"/>
      <point x="205" y="26" type="line"/>
      <point x="206" y="306" type="line"/>
      <point x="198" y="430" type="line"/>
      <point x="20" y="430" type="line"/>
      <point x="20" y="404" type="line"/>
      <point x="78" y="404" type="line"/>
      <point x="78" y="78" type="line" smooth="yes"/>
      <point x="78" y="36"/>
      <point x="55" y="26"/>
      <point x="20" y="26" type="curve"/>
      <point x="20" y="0" type="line"/>
      <point x="254" y="0" type="line"/>
      <point x="254" y="22"/>
      <point x="249" y="26"/>
    </contour>
    <contour>
      <point x="281" y="500" type="move" name="top"/>
    </contour>
    <contour>
      <point x="281" y="0" type="move" name="bottom"/>
    </contour>
  </outline>
</glyph>
<glyph name="q" format="1">
  <advance width="568"/>
  <unicode hex="0071"/>
  <outline>
    <contour>
      <point x="28" y="208" type="curve" smooth="yes"/>
      <point x="28" y="65"/>
      <point x="117" y="-10"/>
      <point x="210" y="-10" type="curve" smooth="yes"/>
      <point x="276" y="-10"/>
      <point x="345" y="31"/>
      <point x="368" y="117" type="curve"/>
      <point x="357" y="117" type="line"/>
      <point x="357" y="-112" type="line" smooth="yes"/>
      <point x="357" y="-152"/>
      <point x="340" y="-164"/>
      <point x="300" y="-164" type="curve"/>
      <point x="300" y="-190" type="line"/>
      <point x="548" y="-190" type="line"/>
      <point x="548" y="-167"/>
      <point x="543" y="-164"/>
      <point x="524" y="-164" type="curve" smooth="yes"/>
      <point x="484" y="-164" type="line"/>
      <point x="484" y="404" type="line"/>
      <point x="548" y="404" type="line"/>
      <point x="548" y="430" type="line"/>
      <point x="367" y="430" type="line"/>
      <point x="357" y="340" type="line"/>
      <point x="404" y="342" type="line"/>
      <point x="376" y="411"/>
      <point x="311" y="445"/>
      <point x="238" y="445" type="curve" smooth="yes"/>
      <point x="132" y="445"/>
      <point x="28" y="367"/>
    </contour>
    <contour>
      <point x="359" y="238" type="curve" smooth="yes"/>
      <point x="359" y="111"/>
      <point x="320" y="36"/>
      <point x="257" y="36" type="curve" smooth="yes"/>
      <point x="198" y="36"/>
      <point x="165" y="102"/>
      <point x="165" y="219" type="curve" smooth="yes"/>
      <point x="165" y="337"/>
      <point x="201" y="413"/>
      <point x="266" y="413" type="curve" smooth="yes"/>
      <point x="323" y="413"/>
      <point x="359" y="356"/>
    </contour>
  </outline>
</glyph>
<glyph name="y" format="1">
  <advance width="490"/>
  <unicode hex="0079"/>
  <outline>
    <contour>
      <point x="240" y="404" type="line"/>
      <point x="240" y="430" type="line"/>
      <point x="4" y="430" type="line"/>
      <point x="4" y="404" type="line"/>
      <point x="51" y="404" type="line"/>
      <point x="243" y="-17" type="line"/>
      <point x="282" y="0" type="line"/>
      <point x="432" y="376" type="line" smooth="yes"/>
      <point x="441" y="398"/>
      <point x="449" y="404"/>
      <point x="470" y="404" type="curve" smooth="yes"/>
      <point x="484" y="404"/>
      <point x="490" y="409"/>
      <point x="490" y="430" type="curve"/>
      <point x="328" y="430" type="line"/>
      <point x="328" y="404" type="line"/>
      <point x="410" y="404" type="line"/>
      <point x="293" y="107" type="line"/>
      <point x="304" y="107" type="line"/>
      <point x="171" y="404" type="line"/>
    </contour>
    <contour>
      <point x="300" y="46" type="curve"/>
      <point x="284" y="96" type="line"/>
      <point x="216" y="-84"/>
      <point x="183" y="-147"/>
      <point x="130" y="-147" type="curve" smooth="yes"/>
      <point x="88" y="-147"/>
      <point x="109" y="-67"/>
      <point x="46" y="-67" type="curve" smooth="yes"/>
      <point x="16" y="-67"/>
      <point x="-2" y="-89"/>
      <point x="-2" y="-113" type="curve" smooth="yes"/>
      <point x="-2" y="-144"/>
      <point x="30" y="-182"/>
      <point x="99" y="-182" type="curve" smooth="yes"/>
      <point x="192" y="-182"/>
      <point x="233" y="-124"/>
    </contour>
  </outline>
</glyph>
<glyph name="z" format="1">
  <advance width="419"/>
  <unicode hex="007A"/>
  <outline>
    <contour>
      <point x="142" y="27" type="line"/>
      <point x="398" y="409" type="line"/>
      <point x="398" y="430" type="line"/>
      <point x="42" y="430" type="line"/>
      <point x="62" y="403" type="line"/>
      <point x="279" y="403" type="line"/>
      <point x="12" y="22" type="line"/>
    </contour>
    <contour>
      <point x="142" y="27" type="line"/>
      <point x="12" y="22" type="line"/>
      <point x="12" y="0" type="line"/>
      <point x="397" y="0" type="line"/>
      <point x="360" y="26" type="line"/>
    </contour>
    <contour>
      <point x="35" y="281" type="line"/>
      <point x="60" y="281" type="line"/>
      <point x="94" y="355" type="line" smooth="yes"/>
      <point x="109" y="387"/>
      <point x="130" y="403"/>
      <point x="160" y="403" type="curve"/>
      <point x="42" y="430" type="line"/>
    </contour>
    <contour>
      <point x="399" y="170" type="line"/>
      <point x="373" y="170" type="line"/>
      <point x="352" y="91" type="line" smooth="yes"/>
      <point x="342" y="55"/>
      <point x="321" y="27"/>
      <point x="271" y="27" type="curve"/>
      <point x="397" y="0" type="line"/>
    </contour>
    <contour>
      <point x="210" y="500" type="move" name="top"/>
    </contour>
  </outline>
</glyph>
<glyph name="braceleft" format="1">
  <advance width="400"/>
  <unicode hex="007B"/>
  <outline>
    <contour>
      <point x="271" y="148" type="curve" smooth="yes"/>
      <point x="271" y="-3" type="line" smooth="yes"/>
      <point x="271" y="-93"/>
      <point x="260" y="-107"/>
      <point x="380" y="-107" type="curve"/>
      <point x="380" y="-136" type="line"/>
      <point x="210" y="-136"/>
      <point x="146" y="-131"/>
      <point x="146" y="4" type="curve" smooth="yes"/>
      <point x="146" y="153" type="line" smooth="yes"/>
      <point x="146" y="211"/>
      <point x="132" y="231"/>
      <point x="70" y="244" type="curve"/>
      <point x="70" y="265" type="line"/>
      <point x="132" y="278"/>
      <point x="146" y="298"/>
      <point x="146" y="356" type="curve" smooth="yes"/>
      <point x="146" y="505" type="line" smooth="yes"/>
      <point x="146" y="640"/>
      <point x="210" y="645"/>
      <point x="380" y="645" type="curve"/>
      <point x="380" y="616" type="line"/>
      <point x="260" y="616"/>
      <point x="271" y="602"/>
      <point x="271" y="512" type="curve" smooth="yes"/>
      <point x="271" y="361" type="line" smooth="yes"/>
      <point x="271" y="292"/>
      <point x="230" y="274"/>
      <point x="195" y="257" type="curve"/>
      <point x="195" y="252" type="line"/>
      <point x="230" y="235"/>
      <point x="271" y="217"/>
    </contour>
  </outline>
</glyph>
<glyph name="guillemotleft" format="1">
  <advance width="421"/>
  <unicode hex="00AB"/>
  <outline>
    <contour>
      <point x="216" y="378" type="curve"/>
      <point x="195" y="395" type="line"/>
      <point x="140" y="336"/>
      <point x="57" y="271"/>
      <point x="31" y="240" type="curve" smooth="yes"/>
      <point x="20" y="228"/>
      <point x="15" y="216"/>
      <point x="15" y="204" type="curve" smooth="yes"/>
      <point x="15" y="192"/>
      <point x="20" y="180"/>
      <point x="31" y="168" type="curve" smooth="yes"/>
      <point x="55" y="140"/>
      <point x="136" y="74"/>
      <point x="195" y="14" type="curve"/>
      <point x="215" y="32" type="line"/>
      <point x="184" y="90"/>
      <point x="157" y="159"/>
      <point x="136" y="205" type="curve"/>
      <point x="156" y="250"/>
      <point x="184" y="318"/>
    </contour>
    <contour>
      <point x="406" y="378" type="curve"/>
      <point x="385" y="395" type="line"/>
      <point x="330" y="336"/>
      <point x="247" y="271"/>
      <point x="220" y="240" type="curve" smooth="yes"/>
      <point x="210" y="228"/>
      <point x="205" y="216"/>
      <point x="205" y="204" type="curve" smooth="yes"/>
      <point x="205" y="192"/>
      <point x="210" y="180"/>
      <point x="220" y="168" type="curve" smooth="yes"/>
      <point x="245" y="140"/>
      <point x="326" y="74"/>
      <point x="385" y="14" type="curve"/>
      <point x="405" y="32" type="line"/>
      <point x="374" y="90"/>
      <point x="347" y="159"/>
      <point x="325" y="205" type="curve"/>
      <point x="346" y="250"/>
      <point x="374" y="318"/>
    </contour>
  </outline>
</glyph>
<glyph name="ordmasculine" format="1">
  <advance width="316"/>
  <unicode hex="00BA"/>
  <outline>
    <contour>
      <point x="111" y="462" type="curve" smooth="yes"/>
      <point x="111" y="538"/>
      <point x="121" y="575"/>
      <point x="156" y="575" type="curve" smooth="yes"/>
      <point x="194" y="575"/>
      <point x="202" y="538"/>
      <point x="202" y="464" type="curve" smooth="yes"/>
      <point x="202" y="388"/>
      <point x="191" y="349"/>
      <point x="156" y="349" type="curve" smooth="yes"/>
      <point x="118" y="349"/>
      <point x="111" y="388"/>
    </contour>
    <contour>
      <point x="159" y="600" type="curve" smooth="yes"/>
      <point x="68" y="600"/>
      <point x="7" y="541"/>
      <point x="7" y="464" type="curve" smooth="yes"/>
      <point x="7" y="387"/>
      <point x="66" y="324"/>
      <point x="154" y="324" type="curve" smooth="yes"/>
      <point x="245" y="324"/>
      <point x="306" y="388"/>
      <point x="306" y="465" type="curve" smooth="yes"/>
      <point x="306" y="539"/>
      <point x="250" y="600"/>
    </contour>
    <contour>
      <point x="21" y="242" type="line"/>
      <point x="293" y="242" type="line"/>
      <point x="293" y="279" type="line"/>
      <point x="21" y="279" type="line"/>
    </contour>
  </outline>
</glyph>
<glyph name="dcroat" format="1">
  <advance width="571"/>
  <unicode hex="0111"/>
  <outline>
    <contour>
      <point x="186" y="509" type="line"/>
      <point x="556" y="509" type="line"/>
      <point x="556" y="542" type="line"/>
      <point x="186" y="542" type="line"/>
    </contour>
    <component base="d"/>
  </outline>
</glyph>
<glyph name="circumflex" format="1">
  <advance width="500"/>
  <unicode hex="02C6"/>
  <outline>
    <contour>
      <point x="262" y="563" type="curve"/>
      <point x="239" y="563" type="line"/>
      <point x="267" y="552"/>
      <point x="323" y="529"/>
      <point x="375" y="500" type="curve"/>
      <point x="389" y="519" type="line"/>
      <point x="305" y="602"/>
      <point x="297" y="651"/>
      <point x="249" y="651" type="curve" smooth="yes"/>
      <point x="202" y="651"/>
      <point x="191" y="602"/>
      <point x="111" y="519" type="curve"/>
      <point x="125" y="500" type="line"/>
      <point x="185" y="533"/>
      <point x="232" y="551"/>
    </contour>
    <contour>
      <point x="250" y="500" type="move" name="_top"/>
    </contour>
  </outline>
</glyph>
<glyph name="ring" format="1">
  <advance width="500"/>
  <unicode hex="02DA"/>
  <outline>
    <contour>
      <point x="202" y="575" type="curve" smooth="yes"/>
      <point x="202" y="609"/>
      <point x="209" y="645"/>
      <point x="242" y="645" type="curve" smooth="yes"/>
      <point x="277" y="645"/>
      <point x="283" y="609"/>
      <point x="283" y="577" type="curve" smooth="yes"/>
      <point x="283" y="543"/>
      <point x="275" y="506"/>
      <point x="242" y="506" type="curve" smooth="yes"/>
      <point x="207" y="506"/>
      <point x="202" y="543"/>
    </contour>
    <contour>
      <point x="245" y="669" type="curve" smooth="yes"/>
      <point x="165" y="669"/>
      <point x="125" y="629"/>
      <point x="125" y="577" type="curve" smooth="yes"/>
      <point x="125" y="524"/>
      <point x="163" y="482"/>
      <point x="240" y="482" type="curve" smooth="yes"/>
      <point x="320" y="482"/>
      <point x="360" y="525"/>
      <point x="360" y="578" type="curve" smooth="yes"/>
      <point x="360" y="628"/>
      <point x="323" y="669"/>
    </contour>
    <contour>
      <point x="250" y="500" type="move" name="_top"/>
    </contour>
  </outline>
</glyph>
<glyph name="uni0D82" format="1">
  <advance width="364"/>
  <unicode hex="0D82"/>
  <outline>
    <contour>
      <point x="82.373" y="192" type="curve" smooth="yes"/>
      <point x="82.373" y="143.883"/>
      <point x="122.939" y="104.892"/>
      <point x="173" y="104.892" type="curve" smooth="yes"/>
      <point x="223.061" y="104.892"/>
      <point x="263.627" y="143.883"/>
      <point x="263.627" y="192" type="curve" smooth="yes"/>
      <point x="263.627" y="240.117"/>
      <point x="223.061" y="279.108"/>
      <point x="173" y="279.108" type="curve" smooth="yes"/>
      <point x="122.939" y="279.108"/>
      <point x="82.373" y="240.117"/>
    </contour>
    <contour>
      <point x="28.4629" y="165" type="curve" smooth="yes"/>
      <point x="28.4629" y="242.883"/>
      <point x="93.5605" y="306.704"/>
      <point x="173" y="306.704" type="curve" smooth="yes"/>
      <point x="252.439" y="306.704"/>
      <point x="317.537" y="242.883"/>
      <point x="317.537" y="165" type="curve" smooth="yes"/>
      <point x="317.537" y="87.1172"/>
      <point x="252.439" y="23.2959"/>
      <point x="173" y="23.2959" type="curve" smooth="yes"/>
      <point x="93.5605" y="23.2959"/>
      <point x="28.4629" y="87.1172"/>
    </contour>
  </outline>
</glyph>
<glyph name="visarga" format="1">
  <advance width="248"/>
  <unicode hex="0D83"/>
  <outline>
    <contour>
      <point x="63.1865" y="111" type="curve" smooth="yes"/>
      <point x="63.1865" y="82.2148"/>
      <point x="86.2148" y="59.1865"/>
      <point x="115" y="59.1865" type="curve" smooth="yes"/>
      <point x="143.785" y="59.1865"/>
      <point x="166.813" y="82.2148"/>
      <point x="166.813" y="111" type="curve" smooth="yes"/>
      <point x="166.813" y="139.785"/>
      <point x="143.785" y="162.813"/>
      <point x="115" y="162.813" type="curve" smooth="yes"/>
      <point x="86.2148" y="162.813"/>
      <point x="63.1865" y="139.785"/>
    </contour>
    <contour>
      <point x="31" y="110" type="curve" smooth="yes"/>
      <point x="31" y="156"/>
      <point x="69" y="194"/>
      <point x="115" y="194" type="curve" smooth="yes"/>
      <point x="161" y="194"/>
      <point x="199" y="156"/>
      <point x="199" y="110" type="curve" smooth="yes"/>
      <point x="199" y="64"/>
      <point x="161" y="26"/>
      <point x="115" y="26" type="curve" smooth="yes"/>
      <point x="69" y="26"/>
      <point x="31" y="64"/>
    </contour>
    <contour>
      <point x="63.1865" y="313" type="curve" smooth="yes"/>
      <point x="63.1865" y="284.215"/>
      <point x="86.2148" y="261.187"/>
      <point x="115" y="261.187" type="curve" smooth="yes"/>
      <point x="143.785" y="261.187"/>
      <point x="166.813" y="284.215"/>
      <point x="166.813" y="313" type="curve" smooth="yes"/>
      <point x="166.813" y="341.785"/>
      <point x="143.785" y="364.813"/>
      <point x="115" y="364.813" type="curve" smooth="yes"/>
      <point x="86.2148" y="364.813"/>
      <point x="63.1865" y="341.785"/>
    </contour>
    <contour>
      <point x="31" y="312" type="curve" smooth="yes"/>
      <point x="31" y="358"/>
      <point x="69" y="396"/>
      <point x="115" y="396" type="curve" smooth="yes"/>
      <point x="161" y="396"/>
      <point x="199" y="358"/>
      <point x="199" y="312" type="curve" smooth="yes"/>
      <point x="199" y="266"/>
      <point x="161" y="228"/>
      <point x="115" y="228" type="curve" smooth="yes"/>
      <point x="69" y="228"/>
      <point x="31" y="266"/>
    </contour>
  </outline>
</glyph>
<glyph name="si_I" format="1">
  <advance width="579"/>
  <unicode hex="0D89"/>
  <outline>
    <contour>
      <point x="32" y="216" type="curve" smooth="yes"/>
      <point x="32" y="349"/>
      <point x="145" y="422"/>
      <point x="278" y="422" type="curve" smooth="yes"/>
      <point x="427" y="422"/>
      <point x="531" y="345"/>
      <point x="531" y="194" type="curve" smooth="yes"/>
      <point x="531" y="91"/>
      <point x="462" y="10"/>
      <point x="375" y="-6" type="curve"/>
      <point x="408" y="-12"/>
      <point x="429" y="-35"/>
      <point x="429" y="-73" type="curve" smooth="yes"/>
      <point x="429" y="-131"/>
      <point x="355" y="-157"/>
      <point x="291" y="-157" type="curve" smooth="yes"/>
      <point x="230" y="-157"/>
      <point x="169" y="-136"/>
      <point x="169" y="-74" type="curve" smooth="yes"/>
      <point x="169" y="-49"/>
      <point x="187" y="-38"/>
      <point x="203" y="-38" type="curve" smooth="yes"/>
      <point x="218" y="-38"/>
      <point x="233" y="-46"/>
      <point x="233" y="-63" type="curve" smooth="yes"/>
      <point x="233" y="-68"/>
      <point x="230" y="-80"/>
      <point x="230" y="-92" type="curve" smooth="yes"/>
      <point x="230" y="-112"/>
      <point x="241" y="-132"/>
      <point x="293" y="-132" type="curve" smooth="yes"/>
      <point x="331" y="-132"/>
      <point x="354" y="-113"/>
      <point x="354" y="-81" type="curve" smooth="yes"/>
      <point x="354" y="-43"/>
      <point x="326" y="-14"/>
      <point x="261" y="-14" type="curve" smooth="yes"/>
      <point x="252" y="-14"/>
      <point x="252" y="-15"/>
      <point x="243" y="-16" type="curve"/>
      <point x="243" y="14" type="line"/>
      <point x="254" y="15"/>
      <point x="257" y="15"/>
      <point x="267" y="15" type="curve" smooth="yes"/>
      <point x="283" y="15"/>
      <point x="298" y="13"/>
      <point x="315" y="13" type="curve" smooth="yes"/>
      <point x="410" y="13"/>
      <point x="460" y="85"/>
      <point x="460" y="158" type="curve" smooth="yes"/>
      <point x="460" y="242"/>
      <point x="398" y="314"/>
      <point x="278" y="314" type="curve" smooth="yes"/>
      <point x="170" y="314"/>
      <point x="106" y="267"/>
      <point x="106" y="186" type="curve" smooth="yes"/>
      <point x="106" y="141"/>
      <point x="146" y="81"/>
      <point x="230" y="81" type="curve" smooth="yes"/>
      <point x="269" y="81"/>
      <point x="302" y="89"/>
      <point x="318" y="108" type="curve"/>
      <point x="307" y="99"/>
      <point x="292" y="96"/>
      <point x="278" y="96" type="curve" smooth="yes"/>
      <point x="235" y="96"/>
      <point x="201" y="130"/>
      <point x="201" y="169" type="curve" smooth="yes"/>
      <point x="201" y="214"/>
      <point x="235" y="249"/>
      <point x="280" y="249" type="curve" smooth="yes"/>
      <point x="336" y="249"/>
      <point x="369" y="213"/>
      <point x="369" y="160" type="curve" smooth="yes"/>
      <point x="369" y="82"/>
      <point x="303" y="53"/>
      <point x="215" y="53" type="curve" smooth="yes"/>
      <point x="111" y="53"/>
      <point x="32" y="114"/>
    </contour>
    <contour>
      <point x="232" y="172" type="curve" smooth="yes"/>
      <point x="232" y="145"/>
      <point x="255" y="124"/>
      <point x="281" y="124" type="curve" smooth="yes"/>
      <point x="308" y="124"/>
      <point x="330" y="146"/>
      <point x="330" y="172" type="curve" smooth="yes"/>
      <point x="330" y="199"/>
      <point x="307" y="220"/>
      <point x="281" y="220" type="curve" smooth="yes"/>
      <point x="254" y="220"/>
      <point x="232" y="198"/>
    </contour>
  </outline>
</glyph>
<glyph name="si_Ii" format="1">
  <advance width="515"/>
  <unicode hex="0D8A"/>
  <outline>
    <contour>
      <point x="401" y="457" type="curve" smooth="yes"/>
      <point x="401" y="437"/>
      <point x="417" y="421"/>
      <point x="437" y="421" type="curve" smooth="yes"/>
      <point x="457" y="421"/>
      <point x="474" y="437"/>
      <point x="474" y="457" type="curve" smooth="yes"/>
      <point x="474" y="477"/>
      <point x="457" y="494"/>
      <point x="437" y="494" type="curve" smooth="yes"/>
      <point x="417" y="494"/>
      <point x="401" y="477"/>
    </contour>
    <contour>
      <point x="373" y="457" type="curve" smooth="yes"/>
      <point x="373" y="492"/>
      <point x="402" y="521"/>
      <point x="437" y="521" type="curve" smooth="yes"/>
      <point x="472" y="521"/>
      <point x="501" y="492"/>
      <point x="501" y="457" type="curve" smooth="yes"/>
      <point x="501" y="422"/>
      <point x="472" y="393"/>
      <point x="437" y="393" type="curve" smooth="yes"/>
      <point x="402" y="393"/>
      <point x="373" y="422"/>
    </contour>
    <contour>
      <point x="142" y="526" type="curve" smooth="yes"/>
      <point x="142" y="506"/>
      <point x="158" y="489"/>
      <point x="178" y="489" type="curve" smooth="yes"/>
      <point x="198" y="489"/>
      <point x="215" y="506"/>
      <point x="215" y="526" type="curve" smooth="yes"/>
      <point x="215" y="546"/>
      <point x="198" y="562"/>
      <point x="178" y="562" type="curve" smooth="yes"/>
      <point x="158" y="562"/>
      <point x="142" y="546"/>
    </contour>
    <contour>
      <point x="114" y="525" type="curve" smooth="yes"/>
      <point x="114" y="560"/>
      <point x="143" y="589"/>
      <point x="178" y="589" type="curve" smooth="yes"/>
      <point x="213" y="589"/>
      <point x="242" y="560"/>
      <point x="242" y="525" type="curve" smooth="yes"/>
      <point x="242" y="490"/>
      <point x="213" y="461"/>
      <point x="178" y="461" type="curve" smooth="yes"/>
      <point x="143" y="461"/>
      <point x="114" y="490"/>
    </contour>
    <contour>
      <point x="30" y="208" type="curve" smooth="yes"/>
      <point x="30" y="315"/>
      <point x="92" y="373"/>
      <point x="166" y="412" type="curve" smooth="yes"/>
      <point x="218" y="439"/>
      <point x="250" y="471"/>
      <point x="278" y="506" type="curve" smooth="yes"/>
      <point x="309" y="544"/>
      <point x="330" y="614"/>
      <point x="379" y="614" type="curve" smooth="yes"/>
      <point x="404" y="614"/>
      <point x="420" y="597"/>
      <point x="420" y="580" type="curve" smooth="yes"/>
      <point x="420" y="560"/>
      <point x="399" y="537"/>
      <point x="351" y="497" type="curve" smooth="yes"/>
      <point x="319" y="470"/>
      <point x="287" y="451"/>
      <point x="241" y="426" type="curve"/>
      <point x="246" y="427"/>
      <point x="247" y="427"/>
      <point x="256" y="427" type="curve" smooth="yes"/>
      <point x="325" y="427"/>
      <point x="378" y="403"/>
      <point x="419" y="358" type="curve" smooth="yes"/>
      <point x="454" y="319"/>
      <point x="471" y="275"/>
      <point x="471" y="220" type="curve" smooth="yes"/>
      <point x="471" y="100"/>
      <point x="374" y="0"/>
      <point x="242" y="0" type="curve" smooth="yes"/>
      <point x="121" y="0"/>
      <point x="30" y="87"/>
    </contour>
    <contour>
      <point x="77" y="250" type="curve" smooth="yes"/>
      <point x="77" y="193"/>
      <point x="118" y="135"/>
      <point x="223" y="135" type="curve" smooth="yes"/>
      <point x="326" y="135"/>
      <point x="396" y="186"/>
      <point x="396" y="284" type="curve" smooth="yes"/>
      <point x="396" y="353"/>
      <point x="343" y="401"/>
      <point x="254" y="401" type="curve" smooth="yes"/>
      <point x="178" y="401"/>
      <point x="77" y="344"/>
    </contour>
  </outline>
</glyph>
<glyph name="uni0D8B" format="1">
  <advance width="651"/>
  <unicode hex="0D8B"/>
  <outline>
    <contour>
      <point x="32" y="99" type="curve" smooth="yes"/>
      <point x="32" y="210"/>
      <point x="121" y="296"/>
      <point x="264" y="296" type="curve" smooth="yes"/>
      <point x="504" y="296" type="line"/>
      <point x="501" y="346"/>
      <point x="456" y="383"/>
      <point x="416" y="383" type="curve" smooth="yes"/>
      <point x="396" y="383"/>
      <point x="375.699" y="377.104"/>
      <point x="362" y="354.5" type="curve" smooth="yes"/>
      <point x="354.454" y="342.05"/>
      <point x="340" y="324"/>
      <point x="313" y="324" type="curve" smooth="yes"/>
      <point x="281" y="324"/>
      <point x="267" y="345.182"/>
      <point x="267" y="365" type="curve" smooth="yes"/>
      <point x="267" y="410"/>
      <point x="313" y="431.5"/>
      <point x="376" y="431.5" type="curve" smooth="yes"/>
      <point x="468.872" y="431.5"/>
      <point x="539.075" y="370"/>
      <point x="539.075" y="276" type="curve" smooth="yes"/>
      <point x="539.075" y="274.342"/>
      <point x="539.049" y="269.675"/>
      <point x="539" y="268" type="curve"/>
      <point x="355" y="268" type="line" smooth="yes"/>
      <point x="231" y="268"/>
      <point x="187" y="210.639"/>
      <point x="187" y="117" type="curve" smooth="yes"/>
      <point x="187" y="-23"/>
      <point x="279" y="-98"/>
      <point x="394" y="-98" type="curve" smooth="yes"/>
      <point x="476" y="-98"/>
      <point x="571" y="-34"/>
      <point x="571" y="69" type="curve"/>
      <point x="603" y="69" type="line"/>
      <point x="603" y="-64"/>
      <point x="480" y="-161"/>
      <point x="328" y="-161" type="curve" smooth="yes"/>
      <point x="177" y="-161"/>
      <point x="32" y="-62"/>
    </contour>
  </outline>
</glyph>
<glyph name="si_vocalicL" format="1">
  <advance width="820"/>
  <unicode hex="0D8F"/>
  <outline>
    <contour>
      <point x="641" y="53" type="curve" smooth="yes"/>
      <point x="641" y="40"/>
      <point x="652" y="29"/>
      <point x="665" y="29" type="curve" smooth="yes"/>
      <point x="678" y="29"/>
      <point x="689" y="40"/>
      <point x="689" y="53" type="curve" smooth="yes"/>
      <point x="689" y="66"/>
      <point x="678" y="77"/>
      <point x="665" y="77" type="curve" smooth="yes"/>
      <point x="652" y="77"/>
      <point x="641" y="66"/>
    </contour>
    <contour>
      <point x="582" y="445" type="curve" smooth="yes"/>
      <point x="582" y="467"/>
      <point x="598" y="481"/>
      <point x="630" y="481" type="curve" smooth="yes"/>
      <point x="717" y="481"/>
      <point x="773" y="378"/>
      <point x="773" y="240" type="curve" smooth="yes"/>
      <point x="773" y="147"/>
      <point x="742" y="1"/>
      <point x="666" y="1" type="curve" smooth="yes"/>
      <point x="637" y="1"/>
      <point x="614" y="23"/>
      <point x="614" y="53" type="curve" smooth="yes"/>
      <point x="614" y="78"/>
      <point x="633" y="105"/>
      <point x="666" y="105" type="curve" smooth="yes"/>
      <point x="683" y="105"/>
      <point x="698" y="99"/>
      <point x="708" y="80" type="curve"/>
      <point x="729" y="115"/>
      <point x="740" y="188"/>
      <point x="740" y="240" type="curve" smooth="yes"/>
      <point x="740" y="345"/>
      <point x="702" y="450"/>
      <point x="634" y="450" type="curve" smooth="yes"/>
      <point x="626" y="450"/>
      <point x="615" y="447"/>
      <point x="615" y="432" type="curve" smooth="yes"/>
      <point x="615" y="420"/>
      <point x="620" y="407"/>
      <point x="632" y="389" type="curve"/>
      <point x="619" y="398"/>
      <point x="596" y="421"/>
      <point x="588" y="424" type="curve"/>
      <point x="583" y="431"/>
      <point x="582" y="440"/>
    </contour>
    <contour>
      <point x="115" y="53" type="curve" smooth="yes"/>
      <point x="115" y="40"/>
      <point x="126" y="29"/>
      <point x="139" y="29" type="curve" smooth="yes"/>
      <point x="152" y="29"/>
      <point x="163" y="40"/>
      <point x="163" y="53" type="curve" smooth="yes"/>
      <point x="163" y="66"/>
      <point x="152" y="77"/>
      <point x="139" y="77" type="curve" smooth="yes"/>
      <point x="126" y="77"/>
      <point x="115" y="66"/>
    </contour>
    <contour>
      <point x="31" y="240" type="curve" smooth="yes"/>
      <point x="31" y="378"/>
      <point x="87" y="481"/>
      <point x="174" y="481" type="curve" smooth="yes"/>
      <point x="206" y="481"/>
      <point x="222" y="467"/>
      <point x="222" y="445" type="curve" smooth="yes"/>
      <point x="222" y="440"/>
      <point x="221" y="433"/>
      <point x="216" y="426" type="curve"/>
      <point x="208" y="423"/>
      <point x="186" y="413"/>
      <point x="173" y="404" type="curve"/>
      <point x="182" y="414"/>
      <point x="189" y="424"/>
      <point x="189" y="436" type="curve" smooth="yes"/>
      <point x="189" y="445"/>
      <point x="178" y="450"/>
      <point x="170" y="450" type="curve" smooth="yes"/>
      <point x="102" y="450"/>
      <point x="64" y="345"/>
      <point x="64" y="240" type="curve" smooth="yes"/>
      <point x="64" y="188"/>
      <point x="75" y="115"/>
      <point x="96" y="80" type="curve"/>
      <point x="106" y="99"/>
      <point x="121" y="105"/>
      <point x="138" y="105" type="curve" smooth="yes"/>
      <point x="171" y="105"/>
      <point x="190" y="78"/>
      <point x="190" y="53" type="curve" smooth="yes"/>
      <point x="190" y="23"/>
      <point x="167" y="1"/>
      <point x="138" y="1" type="curve" smooth="yes"/>
      <point x="62" y="1"/>
      <point x="31" y="147"/>
    </contour>
    <contour>
      <point x="133" y="184" type="curve" smooth="yes"/>
      <point x="133" y="275"/>
      <point x="200" y="327"/>
      <point x="308" y="327" type="curve" smooth="yes"/>
      <point x="321" y="327"/>
      <point x="330" y="326"/>
      <point x="343" y="325" type="curve"/>
      <point x="343" y="329"/>
      <point x="344" y="332"/>
      <point x="344" y="336" type="curve" smooth="yes"/>
      <point x="344" y="376"/>
      <point x="318" y="390"/>
      <point x="295" y="390" type="curve" smooth="yes"/>
      <point x="267" y="390"/>
      <point x="253" y="376"/>
      <point x="247" y="358" type="curve" smooth="yes"/>
      <point x="240" y="338"/>
      <point x="223" y="326"/>
      <point x="198" y="326" type="curve" smooth="yes"/>
      <point x="177" y="326"/>
      <point x="157" y="337"/>
      <point x="157" y="367" type="curve" smooth="yes"/>
      <point x="157" y="408"/>
      <point x="205" y="434"/>
      <point x="260" y="434" type="curve" smooth="yes"/>
      <point x="332" y="434"/>
      <point x="376" y="401"/>
      <point x="376" y="334" type="curve" smooth="yes"/>
      <point x="376" y="323"/>
      <point x="375" y="309"/>
      <point x="372" y="296" type="curve"/>
      <point x="354" y="298"/>
      <point x="319" y="300"/>
      <point x="318" y="300" type="curve" smooth="yes"/>
      <point x="245" y="300"/>
      <point x="197" y="274"/>
      <point x="197" y="231" type="curve" smooth="yes"/>
      <point x="197" y="158"/>
      <point x="307" y="140"/>
      <point x="408" y="140" type="curve" smooth="yes"/>
      <point x="505" y="140"/>
      <point x="608" y="166"/>
      <point x="608" y="239" type="curve" smooth="yes"/>
      <point x="608" y="276"/>
      <point x="569" y="302"/>
      <point x="495" y="302" type="curve" smooth="yes"/>
      <point x="472" y="302"/>
      <point x="448" y="299"/>
      <point x="425" y="295" type="curve"/>
      <point x="423" y="306"/>
      <point x="423" y="318"/>
      <point x="423" y="328" type="curve" smooth="yes"/>
      <point x="423" y="397"/>
      <point x="467" y="433"/>
      <point x="540" y="433" type="curve" smooth="yes"/>
      <point x="606" y="433"/>
      <point x="643" y="393"/>
      <point x="643" y="354" type="curve" smooth="yes"/>
      <point x="643" y="334"/>
      <point x="634" y="317"/>
      <point x="615" y="303" type="curve"/>
      <point x="655" y="279"/>
      <point x="676" y="240"/>
      <point x="676" y="186" type="curve" smooth="yes"/>
      <point x="676" y="55"/>
      <point x="549" y="0"/>
      <point x="408" y="0" type="curve" smooth="yes"/>
      <point x="260" y="0"/>
      <point x="133" y="46"/>
    </contour>
    <contour>
      <point x="457" y="336" type="curve" smooth="yes"/>
      <point x="457" y="332"/>
      <point x="456" y="329"/>
      <point x="457" y="325" type="curve"/>
      <point x="474" y="327"/>
      <point x="488" y="328"/>
      <point x="504" y="328" type="curve" smooth="yes"/>
      <point x="537" y="328"/>
      <point x="563" y="324"/>
      <point x="588" y="315" type="curve"/>
      <point x="599" y="326"/>
      <point x="604" y="338"/>
      <point x="604" y="351" type="curve" smooth="yes"/>
      <point x="604" y="380"/>
      <point x="580" y="403"/>
      <point x="533" y="403" type="curve" smooth="yes"/>
      <point x="491" y="403"/>
      <point x="457" y="381"/>
    </contour>
  </outline>
</glyph>
<glyph name="si_E" format="1">
  <advance width="595"/>
  <unicode hex="0D91"/>
  <outline>
    <contour>
      <point x="45" y="165" type="curve" smooth="yes"/>
      <point x="45" y="196"/>
      <point x="55" y="228"/>
      <point x="78" y="248" type="curve" smooth="yes"/>
      <point x="94" y="262"/>
      <point x="113" y="273"/>
      <point x="139" y="278" type="curve"/>
      <point x="173" y="290"/>
      <point x="214" y="302"/>
      <point x="251" y="302" type="curve" smooth="yes"/>
      <point x="261" y="302" type="line"/>
      <point x="261" y="304"/>
      <point x="261" y="306"/>
      <point x="261" y="308" type="curve" smooth="yes"/>
      <point x="261" y="356"/>
      <point x="230" y="389"/>
      <point x="193" y="389" type="curve" smooth="yes"/>
      <point x="170" y="389"/>
      <point x="153" y="371"/>
      <point x="148" y="355" type="curve" smooth="yes"/>
      <point x="140" y="332"/>
      <point x="128" y="321"/>
      <point x="102" y="321" type="curve" smooth="yes"/>
      <point x="84" y="321"/>
      <point x="64" y="333"/>
      <point x="64" y="359" type="curve" smooth="yes"/>
      <point x="64" y="406"/>
      <point x="114" y="432"/>
      <point x="169" y="432" type="curve" smooth="yes"/>
      <point x="257" y="432"/>
      <point x="295" y="363"/>
      <point x="295" y="290" type="curve" smooth="yes"/>
      <point x="295" y="287"/>
      <point x="295" y="278"/>
      <point x="295" y="275" type="curve"/>
      <point x="233" y="275" type="line" smooth="yes"/>
      <point x="189" y="275"/>
      <point x="158" y="268"/>
      <point x="135" y="253" type="curve" smooth="yes"/>
      <point x="119" y="243"/>
      <point x="108" y="227"/>
      <point x="108" y="207" type="curve" smooth="yes"/>
      <point x="108" y="149"/>
      <point x="199" y="140"/>
      <point x="279" y="140" type="curve" smooth="yes"/>
      <point x="432" y="140"/>
      <point x="496" y="210"/>
      <point x="496" y="301" type="curve" smooth="yes"/>
      <point x="496" y="351"/>
      <point x="484" y="387"/>
      <point x="471" y="410" type="curve"/>
      <point x="456" y="379"/>
      <point x="426" y="359"/>
      <point x="383" y="359" type="curve" smooth="yes"/>
      <point x="320" y="359"/>
      <point x="283" y="414"/>
      <point x="283" y="480" type="curve" smooth="yes"/>
      <point x="283" y="530"/>
      <point x="298" y="566"/>
      <point x="325" y="597" type="curve"/>
      <point x="386" y="564"/>
      <point x="457" y="492"/>
      <point x="493" y="430" type="curve" smooth="yes"/>
      <point x="532" y="363"/>
      <point x="545" y="315"/>
      <point x="545" y="245" type="curve" smooth="yes"/>
      <point x="545" y="117"/>
      <point x="459" y="0"/>
      <point x="276" y="0" type="curve" smooth="yes"/>
      <point x="155" y="0"/>
      <point x="45" y="46"/>
    </contour>
    <contour>
      <point x="16" y="268" type="curve"/>
      <point x="16" y="302" type="line"/>
      <point x="259" y="302" type="line"/>
      <point x="291" y="275" type="line"/>
      <point x="129" y="275" type="line" smooth="yes"/>
      <point x="58" y="274"/>
      <point x="32" y="271"/>
    </contour>
    <contour>
      <point x="317" y="488" type="curve" smooth="yes"/>
      <point x="317" y="439"/>
      <point x="350" y="406"/>
      <point x="394" y="406" type="curve" smooth="yes"/>
      <point x="413" y="406"/>
      <point x="439" y="416"/>
      <point x="449" y="441" type="curve"/>
      <point x="419" y="485"/>
      <point x="372" y="529"/>
      <point x="334" y="557" type="curve"/>
      <point x="326" y="540"/>
      <point x="317" y="518"/>
    </contour>
  </outline>
</glyph>
<glyph name="uni0D92" format="1">
  <advance width="595"/>
  <unicode hex="0D92"/>
  <outline>
    <contour>
      <point x="440" y="444" type="line"/>
      <point x="440" y="694" type="line"/>
      <point x="494" y="652"/>
      <point x="592" y="647"/>
      <point x="592" y="555" type="curve" smooth="yes"/>
      <point x="592" y="511"/>
      <point x="557" y="481"/>
      <point x="514" y="481" type="curve" smooth="yes"/>
      <point x="499" y="481"/>
      <point x="484" y="484"/>
      <point x="469" y="491" type="curve"/>
      <point x="469" y="427" type="line"/>
    </contour>
    <contour>
      <point x="469" y="517" type="line"/>
      <point x="478" y="513"/>
      <point x="488" y="510"/>
      <point x="501" y="510" type="curve" smooth="yes"/>
      <point x="533" y="510"/>
      <point x="547" y="535"/>
      <point x="547" y="558" type="curve" smooth="yes"/>
      <point x="547" y="600"/>
      <point x="515" y="619"/>
      <point x="469" y="650" type="curve"/>
    </contour>
    <contour>
      <point x="45" y="165" type="curve" smooth="yes"/>
      <point x="45" y="196"/>
      <point x="55" y="228"/>
      <point x="78" y="248" type="curve" smooth="yes"/>
      <point x="94" y="262"/>
      <point x="113" y="273"/>
      <point x="139" y="278" type="curve"/>
      <point x="173" y="290"/>
      <point x="208" y="302"/>
      <point x="245" y="302" type="curve" smooth="yes"/>
      <point x="255" y="302" type="line"/>
      <point x="255" y="304"/>
      <point x="255" y="306"/>
      <point x="255" y="308" type="curve" smooth="yes"/>
      <point x="255" y="349"/>
      <point x="230" y="383"/>
      <point x="193" y="383" type="curve" smooth="yes"/>
      <point x="170" y="383"/>
      <point x="153" y="365"/>
      <point x="148" y="349" type="curve" smooth="yes"/>
      <point x="140" y="326"/>
      <point x="129" y="315"/>
      <point x="103" y="315" type="curve" smooth="yes"/>
      <point x="85" y="315"/>
      <point x="64" y="328"/>
      <point x="64" y="353" type="curve" smooth="yes"/>
      <point x="64" y="400"/>
      <point x="109" y="426"/>
      <point x="164" y="426" type="curve" smooth="yes"/>
      <point x="252" y="426"/>
      <point x="289" y="363"/>
      <point x="289" y="290" type="curve" smooth="yes"/>
      <point x="289" y="287"/>
      <point x="289" y="278"/>
      <point x="289" y="275" type="curve"/>
      <point x="233" y="275" type="line" smooth="yes"/>
      <point x="189" y="275"/>
      <point x="158" y="268"/>
      <point x="135" y="253" type="curve" smooth="yes"/>
      <point x="119" y="243"/>
      <point x="108" y="227"/>
      <point x="108" y="207" type="curve" smooth="yes"/>
      <point x="108" y="149"/>
      <point x="199" y="140"/>
      <point x="279" y="140" type="curve" smooth="yes"/>
      <point x="432" y="140"/>
      <point x="496" y="210"/>
      <point x="496" y="301" type="curve" smooth="yes"/>
      <point x="496" y="351"/>
      <point x="484" y="369"/>
      <point x="471" y="392" type="curve"/>
      <point x="456" y="361"/>
      <point x="426" y="341"/>
      <point x="383" y="341" type="curve" smooth="yes"/>
      <point x="320" y="341"/>
      <point x="283" y="396"/>
      <point x="283" y="462" type="curve" smooth="yes"/>
      <point x="283" y="512"/>
      <point x="298" y="548"/>
      <point x="325" y="579" type="curve"/>
      <point x="386" y="546"/>
      <point x="457" y="474"/>
      <point x="493" y="412" type="curve" smooth="yes"/>
      <point x="532" y="345"/>
      <point x="545" y="315"/>
      <point x="545" y="245" type="curve" smooth="yes"/>
      <point x="545" y="117"/>
      <point x="459" y="0"/>
      <point x="276" y="0" type="curve" smooth="yes"/>
      <point x="155" y="0"/>
      <point x="45" y="46"/>
    </contour>
    <contour>
      <point x="16" y="268" type="curve"/>
      <point x="16" y="302" type="line"/>
      <point x="253" y="302" type="line"/>
      <point x="285" y="275" type="line"/>
      <point x="129" y="275" type="line" smooth="yes"/>
      <point x="58" y="274"/>
      <point x="32" y="271"/>
    </contour>
    <contour>
      <point x="317" y="470" type="curve" smooth="yes"/>
      <point x="317" y="421"/>
      <point x="350" y="388"/>
      <point x="394" y="388" type="curve" smooth="yes"/>
      <point x="413" y="388"/>
      <point x="439" y="398"/>
      <point x="449" y="423" type="curve"/>
      <point x="419" y="467"/>
      <point x="372" y="511"/>
      <point x="334" y="539" type="curve"/>
      <point x="326" y="522"/>
      <point x="317" y="500"/>
    </contour>
  </outline>
</glyph>
<glyph name="si_Oo" format="1">
  <advance width="636"/>
  <unicode hex="0D95"/>
  <outline>
    <contour>
      <point x="144" y="538" type="curve" smooth="yes"/>
      <point x="144" y="526"/>
      <point x="163" y="526"/>
      <point x="163" y="515" type="curve" smooth="yes"/>
      <point x="163" y="513"/>
      <point x="162" y="510"/>
      <point x="160" y="508" type="curve"/>
      <point x="193" y="514"/>
      <point x="232.675" y="519"/>
      <point x="279" y="519" type="curve" smooth="yes"/>
      <point x="387" y="519"/>
      <point x="472.076" y="489.188"/>
      <point x="527.5" y="425.25" type="curve"/>
      <point x="494.617" y="535.95"/>
      <point x="400" y="574.25"/>
      <point x="284" y="574.25" type="curve" smooth="yes"/>
      <point x="212" y="574.25"/>
      <point x="144" y="557.539"/>
    </contour>
    <contour>
      <point x="42" y="440" type="curve"/>
      <point x="42" y="473" type="line"/>
      <point x="74" y="485"/>
      <point x="123.5" y="499"/>
      <point x="123.5" y="508" type="curve" smooth="yes"/>
      <point x="123.5" y="520"/>
      <point x="95.5" y="520.304"/>
      <point x="95.5" y="546" type="curve" smooth="yes"/>
      <point x="95.5" y="583"/>
      <point x="163" y="629"/>
      <point x="278" y="629" type="curve" smooth="yes"/>
      <point x="486" y="629"/>
      <point x="560" y="490"/>
      <point x="572" y="356" type="curve"/>
      <point x="581.459" y="333.488"/>
      <point x="590" y="295.283"/>
      <point x="590" y="250" type="curve"/>
      <point x="532.75" y="286.75" type="line"/>
      <point x="532.75" y="294.75"/>
      <point x="532.576" y="290.75"/>
      <point x="532.576" y="294.75" type="curve" smooth="yes"/>
      <point x="532.576" y="410.151"/>
      <point x="445" y="491.75"/>
      <point x="276" y="491.75" type="curve" smooth="yes"/>
      <point x="200" y="491.75"/>
      <point x="123" y="478"/>
    </contour>
    <contour>
      <point x="274.94" y="361" type="curve" smooth="yes"/>
      <point x="274.94" y="335.52"/>
      <point x="295.52" y="314.94"/>
      <point x="321" y="314.94" type="curve" smooth="yes"/>
      <point x="346.48" y="314.94"/>
      <point x="367.06" y="335.52"/>
      <point x="367.06" y="361" type="curve" smooth="yes"/>
      <point x="367.06" y="386.48"/>
      <point x="346.48" y="407.06"/>
      <point x="321" y="407.06" type="curve" smooth="yes"/>
      <point x="295.52" y="407.06"/>
      <point x="274.94" y="386.48"/>
    </contour>
    <contour>
      <point x="30" y="224" type="curve" smooth="yes"/>
      <point x="30" y="332"/>
      <point x="74" y="431.5"/>
      <point x="148" y="431.5" type="curve" smooth="yes"/>
      <point x="167.007" y="431.5"/>
      <point x="175" y="428"/>
      <point x="182" y="423" type="curve" smooth="yes"/>
      <point x="192.609" y="415.422"/>
      <point x="200.873" y="401"/>
      <point x="200.873" y="371" type="curve" smooth="yes"/>
      <point x="200.873" y="357"/>
      <point x="201" y="340.015"/>
      <point x="201" y="337" type="curve" smooth="yes"/>
      <point x="201" y="284"/>
      <point x="240" y="256"/>
      <point x="295" y="256" type="curve" smooth="yes"/>
      <point x="348" y="256"/>
      <point x="389" y="281"/>
      <point x="389" y="326" type="curve" smooth="yes"/>
      <point x="389" y="327"/>
      <point x="389" y="329"/>
      <point x="388" y="331" type="curve"/>
      <point x="383" y="316"/>
      <point x="362" y="285"/>
      <point x="318" y="285" type="curve" smooth="yes"/>
      <point x="271.344" y="285"/>
      <point x="243" y="322"/>
      <point x="243" y="360" type="curve" smooth="yes"/>
      <point x="243" y="402"/>
      <point x="274" y="434"/>
      <point x="322" y="434" type="curve" smooth="yes"/>
      <point x="384" y="434"/>
      <point x="420" y="389"/>
      <point x="420" y="330" type="curve" smooth="yes"/>
      <point x="420" y="265"/>
      <point x="367" y="225"/>
      <point x="296" y="225" type="curve" smooth="yes"/>
      <point x="222" y="225"/>
      <point x="170" y="264"/>
      <point x="170" y="339" type="curve" smooth="yes"/>
      <point x="170" y="344.22"/>
      <point x="170.275" y="362.935"/>
      <point x="170.275" y="372" type="curve" smooth="yes"/>
      <point x="170.275" y="392"/>
      <point x="164" y="403"/>
      <point x="145" y="403" type="curve" smooth="yes"/>
      <point x="98" y="403"/>
      <point x="74" y="329"/>
      <point x="74" y="279" type="curve" smooth="yes"/>
      <point x="74" y="198"/>
      <point x="126" y="138"/>
      <point x="204" y="138" type="curve" smooth="yes"/>
      <point x="273" y="138"/>
      <point x="291" y="171.667"/>
      <point x="291" y="205" type="curve" smooth="yes"/>
      <point x="291" y="208" type="line"/>
      <point x="319" y="208" type="line"/>
      <point x="319" y="204" type="line" smooth="yes"/>
      <point x="319" y="171"/>
      <point x="342" y="139"/>
      <point x="403" y="139" type="curve" smooth="yes"/>
      <point x="498.559" y="139"/>
      <point x="532.5" y="220.039"/>
      <point x="532.5" y="300.5" type="curve"/>
      <point x="549.787" y="282.51"/>
      <point x="567.327" y="290.327"/>
      <point x="590" y="254" type="curve"/>
      <point x="590" y="126.501"/>
      <point x="543" y="0"/>
      <point x="406" y="0" type="curve" smooth="yes"/>
      <point x="365" y="0"/>
      <point x="321" y="16"/>
      <point x="305" y="55" type="curve"/>
      <point x="283" y="15"/>
      <point x="246" y="0"/>
      <point x="196" y="0" type="curve" smooth="yes"/>
      <point x="78" y="0"/>
      <point x="30" y="127"/>
    </contour>
  </outline>
</glyph>
<glyph name="si_Kha" format="1">
  <advance width="615"/>
  <unicode hex="0D9B"/>
  <outline>
    <contour>
      <point x="91" y="71" type="curve" smooth="yes"/>
      <point x="91" y="48"/>
      <point x="111" y="29"/>
      <point x="134" y="29" type="curve" smooth="yes"/>
      <point x="157" y="29"/>
      <point x="176" y="48"/>
      <point x="176" y="71" type="curve" smooth="yes"/>
      <point x="176" y="94"/>
      <point x="157" y="114"/>
      <point x="134" y="114" type="curve" smooth="yes"/>
      <point x="111" y="114"/>
      <point x="91" y="94"/>
    </contour>
    <contour>
      <point x="31" y="179" type="curve" smooth="yes"/>
      <point x="31" y="315"/>
      <point x="121" y="387"/>
      <point x="234" y="387" type="curve" smooth="yes"/>
      <point x="325" y="387"/>
      <point x="403" y="335"/>
      <point x="403" y="252" type="curve" smooth="yes"/>
      <point x="403" y="196"/>
      <point x="379" y="168"/>
      <point x="372" y="157" type="curve"/>
      <point x="375" y="158"/>
      <point x="378" y="158"/>
      <point x="381" y="158" type="curve" smooth="yes"/>
      <point x="409" y="158"/>
      <point x="401" y="133"/>
      <point x="434" y="133" type="curve" smooth="yes"/>
      <point x="493" y="133"/>
      <point x="520" y="210"/>
      <point x="520" y="311" type="curve" smooth="yes"/>
      <point x="520" y="445"/>
      <point x="434" y="561"/>
      <point x="287" y="561" type="curve" smooth="yes"/>
      <point x="200" y="561"/>
      <point x="137" y="527"/>
      <point x="97" y="459" type="curve"/>
      <point x="62" y="459" type="line"/>
      <point x="106" y="540"/>
      <point x="182" y="587"/>
      <point x="291" y="587" type="curve" smooth="yes"/>
      <point x="453" y="587"/>
      <point x="570" y="462"/>
      <point x="570" y="279" type="curve" smooth="yes"/>
      <point x="570" y="146"/>
      <point x="511" y="0"/>
      <point x="406" y="0" type="curve" smooth="yes"/>
      <point x="344" y="0"/>
      <point x="339" y="53"/>
      <point x="313" y="53" type="curve" smooth="yes"/>
      <point x="300" y="53"/>
      <point x="277" y="33"/>
      <point x="236" y="-21" type="curve"/>
      <point x="197" y="-18" type="line"/>
      <point x="210" y="-5"/>
      <point x="238" y="33"/>
      <point x="279" y="82" type="curve" smooth="yes"/>
      <point x="330" y="143"/>
      <point x="339" y="175"/>
      <point x="339" y="195" type="curve" smooth="yes"/>
      <point x="339" y="229"/>
      <point x="320" y="269"/>
      <point x="230" y="269" type="curve" smooth="yes"/>
      <point x="145" y="269"/>
      <point x="68" y="220"/>
      <point x="68" y="137" type="curve" smooth="yes"/>
      <point x="68" y="125"/>
      <point x="68" y="116"/>
      <point x="71" y="104" type="curve"/>
      <point x="80" y="129"/>
      <point x="105" y="145"/>
      <point x="134" y="145" type="curve" smooth="yes"/>
      <point x="175" y="145"/>
      <point x="207" y="117"/>
      <point x="207" y="72" type="curve" smooth="yes"/>
      <point x="207" y="36"/>
      <point x="178" y="-1"/>
      <point x="138" y="-1" type="curve" smooth="yes"/>
      <point x="55" y="-1"/>
      <point x="31" y="106"/>
    </contour>
  </outline>
</glyph>
<glyph name="si_Ga" format="1">
  <advance width="621"/>
  <unicode hex="0D9C"/>
  <outline>
    <contour>
      <point x="33" y="202" type="curve" smooth="yes"/>
      <point x="33" y="322"/>
      <point x="107" y="421"/>
      <point x="215" y="421" type="curve" smooth="yes"/>
      <point x="219" y="421"/>
      <point x="224" y="421"/>
      <point x="228" y="421" type="curve"/>
      <point x="228" y="396" type="line"/>
      <point x="225" y="396"/>
      <point x="220" y="396"/>
      <point x="217" y="396" type="curve" smooth="yes"/>
      <point x="135" y="396"/>
      <point x="86" y="321"/>
      <point x="86" y="252" type="curve" smooth="yes"/>
      <point x="86" y="182"/>
      <point x="139" y="137"/>
      <point x="206" y="137" type="curve" smooth="yes"/>
      <point x="264" y="137"/>
      <point x="287" y="161"/>
      <point x="287" y="187" type="curve" smooth="yes"/>
      <point x="287" y="211"/>
      <point x="270" y="215"/>
      <point x="263" y="215" type="curve" smooth="yes"/>
      <point x="252" y="215"/>
      <point x="245" y="212"/>
      <point x="240" y="209" type="curve"/>
      <point x="239" y="203"/>
      <point x="238" y="192"/>
      <point x="238" y="189" type="curve"/>
      <point x="211" y="189" type="line"/>
      <point x="220" y="313"/>
      <point x="281" y="421"/>
      <point x="400" y="421" type="curve" smooth="yes"/>
      <point x="509" y="421"/>
      <point x="572" y="324"/>
      <point x="572" y="212" type="curve" smooth="yes"/>
      <point x="572" y="93"/>
      <point x="488" y="-1"/>
      <point x="360" y="-1" type="curve" smooth="yes"/>
      <point x="350" y="-1"/>
      <point x="340" y="0"/>
      <point x="330" y="1" type="curve"/>
      <point x="330" y="28" type="line"/>
      <point x="338" y="27"/>
      <point x="346" y="26"/>
      <point x="354" y="26" type="curve" smooth="yes"/>
      <point x="456" y="26"/>
      <point x="486" y="108"/>
      <point x="486" y="171" type="curve" smooth="yes"/>
      <point x="486" y="249"/>
      <point x="450" y="312"/>
      <point x="354" y="312" type="curve" smooth="yes"/>
      <point x="285" y="312"/>
      <point x="251" y="270"/>
      <point x="244" y="235" type="curve"/>
      <point x="250" y="238"/>
      <point x="257" y="240"/>
      <point x="264" y="240" type="curve" smooth="yes"/>
      <point x="313" y="240"/>
      <point x="344" y="197"/>
      <point x="344" y="133" type="curve" smooth="yes"/>
      <point x="344" y="55"/>
      <point x="288" y="-2"/>
      <point x="203" y="-2" type="curve" smooth="yes"/>
      <point x="95" y="-2"/>
      <point x="33" y="94"/>
    </contour>
  </outline>
</glyph>
<glyph name="si_Nga" format="1">
  <advance width="617"/>
  <unicode hex="0D9E"/>
  <outline>
    <contour>
      <point x="89" y="347" type="curve" smooth="yes"/>
      <point x="89" y="320"/>
      <point x="113" y="298"/>
      <point x="142" y="298" type="curve" smooth="yes"/>
      <point x="171" y="298"/>
      <point x="194" y="320"/>
      <point x="194" y="347" type="curve" smooth="yes"/>
      <point x="194" y="374"/>
      <point x="171" y="395"/>
      <point x="142" y="395" type="curve" smooth="yes"/>
      <point x="113" y="395"/>
      <point x="89" y="374"/>
    </contour>
    <contour>
      <point x="46" y="468" type="line"/>
      <point x="105" y="544"/>
      <point x="184" y="582"/>
      <point x="281" y="582" type="curve" smooth="yes"/>
      <point x="441" y="582"/>
      <point x="570" y="445"/>
      <point x="570" y="260" type="curve" smooth="yes"/>
      <point x="570" y="114"/>
      <point x="516" y="0"/>
      <point x="416" y="0" type="curve" smooth="yes"/>
      <point x="354" y="0"/>
      <point x="329" y="21"/>
      <point x="298" y="59" type="curve"/>
      <point x="267" y="20"/>
      <point x="233" y="0"/>
      <point x="188" y="0" type="curve" smooth="yes"/>
      <point x="107" y="0"/>
      <point x="51" y="60"/>
      <point x="51" y="140" type="curve" smooth="yes"/>
      <point x="51" y="212"/>
      <point x="109" y="260"/>
      <point x="179" y="260" type="curve" smooth="yes"/>
      <point x="215" y="260"/>
      <point x="245" y="253"/>
      <point x="280" y="253" type="curve" smooth="yes"/>
      <point x="326" y="253"/>
      <point x="341" y="278"/>
      <point x="341" y="310" type="curve" smooth="yes"/>
      <point x="341" y="382"/>
      <point x="264" y="409"/>
      <point x="214" y="409" type="curve" smooth="yes"/>
      <point x="200" y="409"/>
      <point x="192" y="408"/>
      <point x="184" y="407" type="curve"/>
      <point x="203" y="397"/>
      <point x="222" y="380"/>
      <point x="222" y="345" type="curve" smooth="yes"/>
      <point x="222" y="309"/>
      <point x="189" y="272"/>
      <point x="141" y="272" type="curve" smooth="yes"/>
      <point x="100" y="272"/>
      <point x="60" y="303"/>
      <point x="60" y="346" type="curve" smooth="yes"/>
      <point x="60" y="402"/>
      <point x="120" y="434"/>
      <point x="208" y="434" type="curve" smooth="yes"/>
      <point x="311" y="434"/>
      <point x="372" y="378"/>
      <point x="372" y="306" type="curve" smooth="yes"/>
      <point x="372" y="265"/>
      <point x="347" y="224"/>
      <point x="280" y="224" type="curve" smooth="yes"/>
      <point x="239" y="224"/>
      <point x="224" y="230"/>
      <point x="181" y="230" type="curve" smooth="yes"/>
      <point x="132" y="230"/>
      <point x="118" y="205"/>
      <point x="118" y="189" type="curve" smooth="yes"/>
      <point x="118" y="163"/>
      <point x="142" y="140"/>
      <point x="201" y="140" type="curve" smooth="yes"/>
      <point x="229" y="140"/>
      <point x="284" y="142"/>
      <point x="284" y="190" type="curve" smooth="yes"/>
      <point x="284" y="196" type="line"/>
      <point x="311" y="196" type="line"/>
      <point x="311" y="190" type="line" smooth="yes"/>
      <point x="311" y="144"/>
      <point x="354" y="140"/>
      <point x="386" y="140" type="curve" smooth="yes"/>
      <point x="459" y="140"/>
      <point x="497" y="209"/>
      <point x="497" y="315" type="curve" smooth="yes"/>
      <point x="497" y="426"/>
      <point x="425" y="556"/>
      <point x="278" y="556" type="curve" smooth="yes"/>
      <point x="199" y="556"/>
      <point x="133" y="526"/>
      <point x="80" y="468" type="curve"/>
    </contour>
  </outline>
</glyph>
<glyph name="si_Jha" format="1">
  <advance width="1061"/>
  <unicode hex="0DA3"/>
  <outline>
    <contour>
      <point x="89" y="140" type="curve"/>
      <point x="101" y="150"/>
      <point x="112" y="156"/>
      <point x="126" y="156" type="curve" smooth="yes"/>
      <point x="157" y="156"/>
      <point x="168" y="137"/>
      <point x="207" y="137" type="curve" smooth="yes"/>
      <point x="252" y="137"/>
      <point x="273" y="153"/>
      <point x="273" y="209" type="curve" smooth="yes"/>
      <point x="273" y="211"/>
      <point x="273" y="209"/>
      <point x="273" y="211" type="curve"/>
      <point x="301" y="211" type="line"/>
      <point x="301" y="210"/>
      <point x="301" y="211"/>
      <point x="301" y="210" type="curve" smooth="yes"/>
      <point x="301" y="150"/>
      <point x="324" y="137"/>
      <point x="368" y="137" type="curve" smooth="yes"/>
      <point x="408" y="137"/>
      <point x="433" y="165"/>
      <point x="433" y="199" type="curve" smooth="yes"/>
      <point x="433" y="240"/>
      <point x="393" y="280"/>
      <point x="294" y="280" type="curve" smooth="yes"/>
      <point x="239" y="280"/>
      <point x="200" y="274"/>
      <point x="176" y="262" type="curve"/>
      <point x="159" y="248"/>
      <point x="143" y="229"/>
      <point x="128" y="207" type="curve" smooth="yes"/>
      <point x="102" y="168"/>
      <point x="99" y="160"/>
    </contour>
    <contour>
      <point x="21" y="21" type="line"/>
      <point x="29" y="89"/>
      <point x="72" y="180"/>
      <point x="106" y="227" type="curve" smooth="yes"/>
      <point x="131" y="262"/>
      <point x="145" y="274"/>
      <point x="167" y="297" type="curve"/>
      <point x="176" y="307"/>
      <point x="187" y="323"/>
      <point x="187" y="344" type="curve" smooth="yes"/>
      <point x="187" y="363"/>
      <point x="177" y="377"/>
      <point x="154" y="377" type="curve" smooth="yes"/>
      <point x="140" y="377"/>
      <point x="125" y="369"/>
      <point x="121" y="354" type="curve" smooth="yes"/>
      <point x="115" y="333"/>
      <point x="119" y="334"/>
      <point x="110" y="315" type="curve" smooth="yes"/>
      <point x="102" y="298"/>
      <point x="85" y="290"/>
      <point x="70" y="290" type="curve" smooth="yes"/>
      <point x="34" y="290"/>
      <point x="28" y="320"/>
      <point x="28" y="332" type="curve" smooth="yes"/>
      <point x="28" y="385"/>
      <point x="78" y="423"/>
      <point x="133" y="423" type="curve" smooth="yes"/>
      <point x="184" y="423"/>
      <point x="215" y="390"/>
      <point x="215" y="350" type="curve" smooth="yes"/>
      <point x="215" y="344"/>
      <point x="215" y="341"/>
      <point x="214" y="333" type="curve"/>
      <point x="272" y="387"/>
      <point x="368" y="421"/>
      <point x="453" y="421" type="curve" smooth="yes"/>
      <point x="556" y="421"/>
      <point x="634" y="395"/>
      <point x="655" y="389" type="curve"/>
      <point x="648" y="388"/>
      <point x="601" y="376"/>
      <point x="589" y="375" type="curve"/>
      <point x="550" y="385"/>
      <point x="504" y="393"/>
      <point x="460" y="393" type="curve" smooth="yes"/>
      <point x="324" y="393"/>
      <point x="246" y="327"/>
      <point x="211" y="297" type="curve"/>
      <point x="240" y="305"/>
      <point x="271" y="307"/>
      <point x="298" y="307" type="curve" smooth="yes"/>
      <point x="415" y="307"/>
      <point x="503" y="244"/>
      <point x="503" y="123" type="curve" smooth="yes"/>
      <point x="503" y="66"/>
      <point x="471" y="-1"/>
      <point x="388" y="-1" type="curve" smooth="yes"/>
      <point x="343" y="-1"/>
      <point x="310" y="20"/>
      <point x="289" y="62" type="curve"/>
      <point x="272" y="22"/>
      <point x="240" y="-1"/>
      <point x="199" y="-1" type="curve" smooth="yes"/>
      <point x="114" y="-1"/>
      <point x="117" y="71"/>
      <point x="85" y="71" type="curve" smooth="yes"/>
      <point x="63" y="71"/>
      <point x="51" y="50"/>
      <point x="48" y="11" type="curve"/>
    </contour>
    <contour>
      <point x="472" y="190" type="curve" smooth="yes"/>
      <point x="472" y="281"/>
      <point x="524" y="355"/>
      <point x="588" y="378" type="curve" smooth="yes"/>
      <point x="608" y="385"/>
      <point x="630" y="389"/>
      <point x="655" y="389" type="curve"/>
      <point x="655" y="363" type="line"/>
      <point x="652" y="363"/>
      <point x="649" y="363"/>
      <point x="646" y="363" type="curve" smooth="yes"/>
      <point x="569" y="363"/>
      <point x="525" y="300"/>
      <point x="525" y="236" type="curve" smooth="yes"/>
      <point x="525" y="182"/>
      <point x="556" y="137"/>
      <point x="628" y="137" type="curve" smooth="yes"/>
      <point x="678" y="137"/>
      <point x="721" y="158"/>
      <point x="721" y="220" type="curve" smooth="yes"/>
      <point x="721" y="243" type="line"/>
      <point x="751" y="243" type="line"/>
      <point x="751" y="220" type="line" smooth="yes"/>
      <point x="751" y="158"/>
      <point x="794" y="137"/>
      <point x="842" y="137" type="curve" smooth="yes"/>
      <point x="935" y="137"/>
      <point x="953" y="226"/>
      <point x="953" y="297" type="curve" smooth="yes"/>
      <point x="953" y="417"/>
      <point x="870" y="541"/>
      <point x="727" y="541" type="curve" smooth="yes"/>
      <point x="648" y="541"/>
      <point x="587" y="513"/>
      <point x="536" y="457" type="curve"/>
      <point x="503" y="457" type="line"/>
      <point x="558" y="530"/>
      <point x="634" y="566"/>
      <point x="731" y="566" type="curve" smooth="yes"/>
      <point x="890" y="566"/>
      <point x="1015" y="436"/>
      <point x="1015" y="255" type="curve" smooth="yes"/>
      <point x="1015" y="136"/>
      <point x="975" y="0"/>
      <point x="852" y="0" type="curve" smooth="yes"/>
      <point x="804" y="0"/>
      <point x="764" y="20"/>
      <point x="735" y="58" type="curve"/>
      <point x="705" y="20"/>
      <point x="669" y="0"/>
      <point x="625" y="0" type="curve" smooth="yes"/>
      <point x="525" y="0"/>
      <point x="472" y="93"/>
    </contour>
  </outline>
</glyph>
<glyph name="uni0DA5" format="1">
  <advance width="842"/>
  <unicode hex="0DA5"/>
  <outline>
    <contour>
      <point x="421" y="169" type="curve" smooth="yes"/>
      <point x="421" y="274"/>
      <point x="494" y="317"/>
      <point x="613" y="317" type="curve" smooth="yes"/>
      <point x="730" y="317" type="line"/>
      <point x="721" y="363"/>
      <point x="691" y="390"/>
      <point x="658" y="390" type="curve" smooth="yes"/>
      <point x="639" y="390"/>
      <point x="625" y="379"/>
      <point x="616" y="361" type="curve" smooth="yes"/>
      <point x="606" y="339"/>
      <point x="589" y="333"/>
      <point x="569" y="333" type="curve" smooth="yes"/>
      <point x="544" y="333"/>
      <point x="526" y="350"/>
      <point x="526" y="371" type="curve" smooth="yes"/>
      <point x="526" y="407"/>
      <point x="567" y="433"/>
      <point x="622" y="433" type="curve" smooth="yes"/>
      <point x="708" y="433"/>
      <point x="752" y="389"/>
      <point x="769" y="291" type="curve"/>
      <point x="707" y="291" type="line" smooth="yes"/>
      <point x="619" y="291"/>
      <point x="574" y="257"/>
      <point x="574" y="173" type="curve" smooth="yes"/>
      <point x="574" y="89"/>
      <point x="626" y="44"/>
      <point x="676" y="44" type="curve" smooth="yes"/>
      <point x="706" y="44"/>
      <point x="731" y="48"/>
      <point x="771" y="94" type="curve"/>
      <point x="797" y="75" type="line"/>
      <point x="766" y="39"/>
      <point x="725" y="-16"/>
      <point x="725" y="-92" type="curve" smooth="yes"/>
      <point x="725" y="-134"/>
      <point x="737" y="-186"/>
      <point x="799" y="-206" type="curve"/>
      <point x="799" y="-238" type="line"/>
      <point x="779" y="-243"/>
      <point x="756" y="-246"/>
      <point x="739" y="-246" type="curve" smooth="yes"/>
      <point x="659" y="-246"/>
      <point x="625" y="-193"/>
      <point x="625" y="-136" type="curve" smooth="yes"/>
      <point x="625" y="-79"/>
      <point x="657" y="-40"/>
      <point x="705" y="8" type="curve"/>
      <point x="680" y="2"/>
      <point x="651" y="-1"/>
      <point x="624" y="-1" type="curve" smooth="yes"/>
      <point x="493" y="-1"/>
      <point x="421" y="69"/>
    </contour>
    <contour>
      <point x="134" y="207" type="curve" smooth="yes"/>
      <point x="134" y="330"/>
      <point x="209" y="432"/>
      <point x="320" y="432" type="curve" smooth="yes"/>
      <point x="324" y="432"/>
      <point x="329" y="431"/>
      <point x="333" y="431" type="curve"/>
      <point x="333" y="406" type="line"/>
      <point x="330" y="406"/>
      <point x="325" y="406"/>
      <point x="322" y="406" type="curve" smooth="yes"/>
      <point x="236" y="406"/>
      <point x="188" y="327"/>
      <point x="188" y="258" type="curve" smooth="yes"/>
      <point x="188" y="203"/>
      <point x="227" y="140"/>
      <point x="308" y="140" type="curve" smooth="yes"/>
      <point x="367" y="140"/>
      <point x="394" y="160"/>
      <point x="394" y="190" type="curve" smooth="yes"/>
      <point x="394" y="201"/>
      <point x="389" y="220"/>
      <point x="367" y="220" type="curve" smooth="yes"/>
      <point x="360" y="220"/>
      <point x="351" y="217"/>
      <point x="346" y="213" type="curve"/>
      <point x="345" y="207"/>
      <point x="344" y="197"/>
      <point x="344" y="194" type="curve"/>
      <point x="314" y="194" type="line"/>
      <point x="328" y="354"/>
      <point x="406" y="438"/>
      <point x="560" y="438" type="curve" smooth="yes"/>
      <point x="591" y="438"/>
      <point x="641" y="436"/>
      <point x="674" y="426" type="curve"/>
      <point x="553" y="408" type="line"/>
      <point x="547" y="409"/>
      <point x="545" y="409"/>
      <point x="540" y="409" type="curve" smooth="yes"/>
      <point x="443" y="409"/>
      <point x="371" y="348"/>
      <point x="350" y="241" type="curve"/>
      <point x="358" y="245"/>
      <point x="363" y="246"/>
      <point x="370" y="246" type="curve" smooth="yes"/>
      <point x="418" y="246"/>
      <point x="452" y="202"/>
      <point x="452" y="136" type="curve" smooth="yes"/>
      <point x="452" y="56"/>
      <point x="395" y="-2"/>
      <point x="308" y="-2" type="curve" smooth="yes"/>
      <point x="197" y="-2"/>
      <point x="134" y="96"/>
    </contour>
    <contour>
      <point x="27" y="221" type="curve" smooth="yes"/>
      <point x="27" y="353"/>
      <point x="100" y="433"/>
      <point x="239" y="433" type="curve" smooth="yes"/>
      <point x="248" y="433"/>
      <point x="299" y="432"/>
      <point x="326" y="431" type="curve"/>
      <point x="305" y="420"/>
      <point x="254" y="414"/>
      <point x="238" y="406" type="curve"/>
      <point x="136" y="406"/>
      <point x="59" y="347"/>
      <point x="59" y="218" type="curve" smooth="yes"/>
      <point x="59" y="137"/>
      <point x="86" y="78"/>
      <point x="135" y="34" type="curve"/>
      <point x="135" y="0" type="line"/>
      <point x="69" y="33"/>
      <point x="27" y="120"/>
    </contour>
  </outline>
</glyph>
<glyph name="si_Tta" format="1">
  <advance width="588"/>
  <unicode hex="0DA7"/>
  <outline>
    <contour>
      <point x="31" y="203" type="curve" smooth="yes"/>
      <point x="31" y="315"/>
      <point x="124" y="382"/>
      <point x="227" y="382" type="curve" smooth="yes"/>
      <point x="253" y="382"/>
      <point x="284" y="377"/>
      <point x="313" y="366" type="curve"/>
      <point x="313" y="335" type="line"/>
      <point x="287" y="348"/>
      <point x="260" y="354"/>
      <point x="229" y="354" type="curve" smooth="yes"/>
      <point x="151" y="354"/>
      <point x="96" y="314"/>
      <point x="96" y="256" type="curve" smooth="yes"/>
      <point x="96" y="170"/>
      <point x="183" y="137"/>
      <point x="271" y="137" type="curve" smooth="yes"/>
      <point x="391" y="137"/>
      <point x="478" y="196"/>
      <point x="478" y="318" type="curve" smooth="yes"/>
      <point x="478" y="420"/>
      <point x="408" y="538"/>
      <point x="269" y="538" type="curve" smooth="yes"/>
      <point x="190" y="538"/>
      <point x="132" y="511"/>
      <point x="91" y="459" type="curve"/>
      <point x="56" y="459" type="line"/>
      <point x="102" y="527"/>
      <point x="173" y="564"/>
      <point x="267" y="564" type="curve" smooth="yes"/>
      <point x="436" y="564"/>
      <point x="544" y="423"/>
      <point x="544" y="265" type="curve" smooth="yes"/>
      <point x="544" y="113"/>
      <point x="437" y="-1"/>
      <point x="279" y="-1" type="curve" smooth="yes"/>
      <point x="130" y="-1"/>
      <point x="31" y="79"/>
    </contour>
  </outline>
</glyph>
<glyph name="si_Dda" format="1">
  <advance width="647"/>
  <unicode hex="0DA9"/>
  <outline>
    <contour>
      <point x="15" y="285" type="line"/>
      <point x="15" y="315" type="line"/>
      <point x="258" y="315" type="line"/>
      <point x="256" y="350"/>
      <point x="231" y="388"/>
      <point x="197" y="388" type="curve" smooth="yes"/>
      <point x="188" y="388"/>
      <point x="169" y="387"/>
      <point x="154" y="360" type="curve" smooth="yes"/>
      <point x="144" y="342"/>
      <point x="129" y="335"/>
      <point x="113" y="335" type="curve" smooth="yes"/>
      <point x="89" y="335"/>
      <point x="73" y="351"/>
      <point x="73" y="373" type="curve" smooth="yes"/>
      <point x="73" y="413"/>
      <point x="121" y="432"/>
      <point x="163" y="432" type="curve" smooth="yes"/>
      <point x="242" y="432"/>
      <point x="295" y="384"/>
      <point x="295" y="285" type="curve"/>
      <point x="224" y="285" type="line" smooth="yes"/>
      <point x="131" y="285"/>
      <point x="109" y="234"/>
      <point x="109" y="210" type="curve" smooth="yes"/>
      <point x="109" y="164"/>
      <point x="150" y="140"/>
      <point x="203" y="140" type="curve" smooth="yes"/>
      <point x="267" y="140"/>
      <point x="297" y="161"/>
      <point x="297" y="200" type="curve" smooth="yes"/>
      <point x="297" y="221" type="line"/>
      <point x="328" y="221" type="line"/>
      <point x="328" y="200" type="line" smooth="yes"/>
      <point x="328" y="164"/>
      <point x="353" y="140"/>
      <point x="414" y="140" type="curve" smooth="yes"/>
      <point x="489" y="140"/>
      <point x="539" y="200"/>
      <point x="539" y="293" type="curve" smooth="yes"/>
      <point x="539" y="422"/>
      <point x="460" y="555"/>
      <point x="298" y="555" type="curve" smooth="yes"/>
      <point x="218" y="555"/>
      <point x="154" y="522"/>
      <point x="109" y="468" type="curve"/>
      <point x="73" y="468" type="line"/>
      <point x="127" y="546"/>
      <point x="210" y="582"/>
      <point x="304" y="582" type="curve" smooth="yes"/>
      <point x="479" y="582"/>
      <point x="598" y="444"/>
      <point x="598" y="258" type="curve" smooth="yes"/>
      <point x="598" y="110"/>
      <point x="547" y="0"/>
      <point x="428" y="-0" type="curve" smooth="yes"/>
      <point x="363" y="0"/>
      <point x="335" y="29"/>
      <point x="313" y="59" type="curve"/>
      <point x="283" y="22"/>
      <point x="250" y="0"/>
      <point x="199" y="0" type="curve" smooth="yes"/>
      <point x="98" y="0"/>
      <point x="46" y="81"/>
      <point x="46" y="162" type="curve" smooth="yes"/>
      <point x="46" y="212"/>
      <point x="71" y="261"/>
      <point x="125" y="285" type="curve"/>
    </contour>
  </outline>
</glyph>
<glyph name="si_Nndda" format="1">
  <advance width="713"/>
  <unicode hex="0DAC"/>
  <outline>
    <contour>
      <point x="100" y="278" type="line"/>
      <point x="100" y="308" type="line"/>
      <point x="337" y="308" type="line"/>
      <point x="335" y="342"/>
      <point x="310" y="379"/>
      <point x="277" y="379" type="curve" smooth="yes"/>
      <point x="268" y="379"/>
      <point x="250" y="379"/>
      <point x="235" y="352" type="curve" smooth="yes"/>
      <point x="225" y="334"/>
      <point x="211" y="327"/>
      <point x="195" y="327" type="curve" smooth="yes"/>
      <point x="172" y="327"/>
      <point x="156" y="342"/>
      <point x="156" y="364" type="curve" smooth="yes"/>
      <point x="156" y="403"/>
      <point x="203" y="422"/>
      <point x="244" y="422" type="curve" smooth="yes"/>
      <point x="321" y="422"/>
      <point x="373" y="375"/>
      <point x="373" y="278" type="curve"/>
      <point x="304" y="278" type="line" smooth="yes"/>
      <point x="213" y="278"/>
      <point x="192" y="228"/>
      <point x="192" y="205" type="curve" smooth="yes"/>
      <point x="192" y="160"/>
      <point x="238" y="137"/>
      <point x="290" y="137" type="curve" smooth="yes"/>
      <point x="349" y="137"/>
      <point x="375" y="157"/>
      <point x="375" y="195" type="curve" smooth="yes"/>
      <point x="375" y="216" type="line"/>
      <point x="405" y="216" type="line"/>
      <point x="405" y="195" type="line" smooth="yes"/>
      <point x="405" y="160"/>
      <point x="429" y="137"/>
      <point x="489" y="137" type="curve" smooth="yes"/>
      <point x="562" y="137"/>
      <point x="611" y="195"/>
      <point x="611" y="286" type="curve" smooth="yes"/>
      <point x="611" y="412"/>
      <point x="534" y="542"/>
      <point x="376" y="542" type="curve" smooth="yes"/>
      <point x="297" y="542"/>
      <point x="235" y="510"/>
      <point x="191" y="457" type="curve"/>
      <point x="156" y="457" type="line"/>
      <point x="209" y="533"/>
      <point x="290" y="568"/>
      <point x="382" y="568" type="curve" smooth="yes"/>
      <point x="552" y="568"/>
      <point x="669" y="433"/>
      <point x="669" y="252" type="curve" smooth="yes"/>
      <point x="669" y="107"/>
      <point x="620" y="0"/>
      <point x="503" y="-0" type="curve" smooth="yes"/>
      <point x="440" y="0"/>
      <point x="412" y="28"/>
      <point x="391" y="58" type="curve"/>
      <point x="362" y="22"/>
      <point x="329" y="0"/>
      <point x="279" y="0" type="curve" smooth="yes"/>
      <point x="180" y="0"/>
      <point x="130" y="79"/>
      <point x="130" y="158" type="curve" smooth="yes"/>
      <point x="130" y="207"/>
      <point x="154" y="255"/>
      <point x="207" y="278" type="curve"/>
    </contour>
    <contour>
      <point x="26" y="216" type="curve" smooth="yes"/>
      <point x="26" y="345"/>
      <point x="97" y="423"/>
      <point x="233" y="423" type="curve" smooth="yes"/>
      <point x="242" y="423"/>
      <point x="265" y="423"/>
      <point x="286" y="417" type="curve"/>
      <point x="265" y="406"/>
      <point x="191" y="395"/>
      <point x="174" y="389" type="curve"/>
      <point x="104" y="372"/>
      <point x="58" y="312"/>
      <point x="58" y="213" type="curve" smooth="yes"/>
      <point x="58" y="134"/>
      <point x="84" y="76"/>
      <point x="132" y="33" type="curve"/>
      <point x="132" y="0" type="line"/>
      <point x="67" y="32"/>
      <point x="26" y="117"/>
    </contour>
  </outline>
</glyph>
<glyph name="si_Tha" format="1">
  <advance width="599"/>
  <unicode hex="0DAE"/>
  <outline>
    <contour>
      <point x="32" y="229" type="curve" smooth="yes"/>
      <point x="32" y="336"/>
      <point x="131" y="420"/>
      <point x="239" y="420" type="curve"/>
      <point x="239" y="394" type="line"/>
      <point x="158" y="394"/>
      <point x="85" y="339"/>
      <point x="85" y="259" type="curve" smooth="yes"/>
      <point x="85" y="165"/>
      <point x="187" y="137"/>
      <point x="298" y="137" type="curve" smooth="yes"/>
      <point x="417" y="137"/>
      <point x="502" y="208"/>
      <point x="502" y="310" type="curve" smooth="yes"/>
      <point x="502" y="343"/>
      <point x="497" y="371"/>
      <point x="480" y="407" type="curve"/>
      <point x="466" y="375"/>
      <point x="438" y="358"/>
      <point x="396" y="358" type="curve" smooth="yes"/>
      <point x="334" y="358"/>
      <point x="298" y="413"/>
      <point x="298" y="477" type="curve" smooth="yes"/>
      <point x="298" y="526"/>
      <point x="313" y="561"/>
      <point x="339" y="591" type="curve"/>
      <point x="399" y="559"/>
      <point x="468" y="489"/>
      <point x="503" y="428" type="curve" smooth="yes"/>
      <point x="541" y="363"/>
      <point x="553" y="314"/>
      <point x="553" y="246" type="curve" smooth="yes"/>
      <point x="553" y="100"/>
      <point x="439" y="-1"/>
      <point x="288" y="-1" type="curve" smooth="yes"/>
      <point x="147" y="-1"/>
      <point x="32" y="89"/>
    </contour>
    <contour>
      <point x="329" y="480" type="curve" smooth="yes"/>
      <point x="329" y="432"/>
      <point x="346" y="396"/>
      <point x="402" y="396" type="curve" smooth="yes"/>
      <point x="425" y="396"/>
      <point x="450" y="405"/>
      <point x="460" y="438" type="curve"/>
      <point x="431" y="483"/>
      <point x="386" y="524"/>
      <point x="349" y="551" type="curve"/>
      <point x="337" y="533"/>
      <point x="329" y="514"/>
    </contour>
  </outline>
</glyph>
<glyph name="si_Dha" format="1">
  <advance width="623"/>
  <unicode hex="0DB0"/>
  <outline>
    <contour>
      <point x="32" y="190" type="curve" smooth="yes"/>
      <point x="32" y="281"/>
      <point x="84" y="355"/>
      <point x="148" y="378" type="curve" smooth="yes"/>
      <point x="168" y="385"/>
      <point x="191" y="389"/>
      <point x="216" y="389" type="curve"/>
      <point x="216" y="363" type="line"/>
      <point x="213" y="363"/>
      <point x="209" y="363"/>
      <point x="206" y="363" type="curve" smooth="yes"/>
      <point x="129" y="363"/>
      <point x="86" y="300"/>
      <point x="86" y="236" type="curve" smooth="yes"/>
      <point x="86" y="182"/>
      <point x="116" y="137"/>
      <point x="188" y="137" type="curve" smooth="yes"/>
      <point x="238" y="137"/>
      <point x="282" y="158"/>
      <point x="282" y="220" type="curve" smooth="yes"/>
      <point x="282" y="243" type="line"/>
      <point x="312" y="243" type="line"/>
      <point x="312" y="220" type="line" smooth="yes"/>
      <point x="312" y="158"/>
      <point x="354" y="137"/>
      <point x="402" y="137" type="curve" smooth="yes"/>
      <point x="495" y="137"/>
      <point x="514" y="226"/>
      <point x="514" y="297" type="curve" smooth="yes"/>
      <point x="514" y="417"/>
      <point x="430" y="541"/>
      <point x="287" y="541" type="curve" smooth="yes"/>
      <point x="208" y="541"/>
      <point x="148" y="513"/>
      <point x="97" y="457" type="curve"/>
      <point x="63" y="457" type="line"/>
      <point x="118" y="530"/>
      <point x="195" y="566"/>
      <point x="292" y="566" type="curve" smooth="yes"/>
      <point x="451" y="566"/>
      <point x="575" y="436"/>
      <point x="575" y="255" type="curve" smooth="yes"/>
      <point x="575" y="136"/>
      <point x="535" y="0"/>
      <point x="412" y="0" type="curve" smooth="yes"/>
      <point x="364" y="0"/>
      <point x="325" y="20"/>
      <point x="296" y="58" type="curve"/>
      <point x="266" y="20"/>
      <point x="230" y="0"/>
      <point x="186" y="0" type="curve" smooth="yes"/>
      <point x="86" y="0"/>
      <point x="32" y="93"/>
    </contour>
  </outline>
</glyph>
<glyph name="si_Pa" format="1">
  <advance width="601"/>
  <unicode hex="0DB4"/>
  <outline>
    <contour>
      <point x="31" y="179" type="curve" smooth="yes"/>
      <point x="31" y="268"/>
      <point x="97" y="319"/>
      <point x="202" y="319" type="curve" smooth="yes"/>
      <point x="215" y="319"/>
      <point x="224" y="318"/>
      <point x="236" y="317" type="curve"/>
      <point x="236" y="321"/>
      <point x="237" y="325"/>
      <point x="237" y="328" type="curve" smooth="yes"/>
      <point x="237" y="367"/>
      <point x="211" y="381"/>
      <point x="189" y="381" type="curve" smooth="yes"/>
      <point x="162" y="381"/>
      <point x="148" y="368"/>
      <point x="142" y="350" type="curve" smooth="yes"/>
      <point x="136" y="330"/>
      <point x="119" y="318"/>
      <point x="95" y="318" type="curve" smooth="yes"/>
      <point x="74" y="318"/>
      <point x="54" y="329"/>
      <point x="54" y="358" type="curve" smooth="yes"/>
      <point x="54" y="398"/>
      <point x="100" y="423"/>
      <point x="154" y="423" type="curve" smooth="yes"/>
      <point x="225" y="423"/>
      <point x="268" y="391"/>
      <point x="268" y="326" type="curve" smooth="yes"/>
      <point x="268" y="315"/>
      <point x="268" y="302"/>
      <point x="265" y="289" type="curve"/>
      <point x="248" y="291"/>
      <point x="213" y="293"/>
      <point x="212" y="293" type="curve" smooth="yes"/>
      <point x="141" y="293"/>
      <point x="94" y="268"/>
      <point x="94" y="226" type="curve" smooth="yes"/>
      <point x="94" y="155"/>
      <point x="201" y="137"/>
      <point x="300" y="137" type="curve" smooth="yes"/>
      <point x="395" y="137"/>
      <point x="495" y="162"/>
      <point x="495" y="233" type="curve" smooth="yes"/>
      <point x="495" y="269"/>
      <point x="457" y="295"/>
      <point x="385" y="295" type="curve" smooth="yes"/>
      <point x="362" y="295"/>
      <point x="338" y="292"/>
      <point x="316" y="288" type="curve"/>
      <point x="314" y="299"/>
      <point x="314" y="310"/>
      <point x="314" y="320" type="curve" smooth="yes"/>
      <point x="314" y="387"/>
      <point x="358" y="423"/>
      <point x="429" y="423" type="curve" smooth="yes"/>
      <point x="494" y="423"/>
      <point x="528" y="384"/>
      <point x="528" y="346" type="curve" smooth="yes"/>
      <point x="528" y="326"/>
      <point x="520" y="309"/>
      <point x="502" y="296" type="curve"/>
      <point x="541" y="273"/>
      <point x="561" y="235"/>
      <point x="561" y="182" type="curve" smooth="yes"/>
      <point x="561" y="54"/>
      <point x="437" y="0"/>
      <point x="300" y="0" type="curve" smooth="yes"/>
      <point x="155" y="0"/>
      <point x="31" y="45"/>
    </contour>
    <contour>
      <point x="347" y="328" type="curve" smooth="yes"/>
      <point x="347" y="324"/>
      <point x="347" y="321"/>
      <point x="348" y="317" type="curve"/>
      <point x="365" y="319"/>
      <point x="379" y="320"/>
      <point x="394" y="320" type="curve" smooth="yes"/>
      <point x="426" y="320"/>
      <point x="452" y="317"/>
      <point x="476" y="308" type="curve"/>
      <point x="487" y="318"/>
      <point x="491" y="331"/>
      <point x="491" y="343" type="curve" smooth="yes"/>
      <point x="491" y="371"/>
      <point x="468" y="393"/>
      <point x="422" y="393" type="curve" smooth="yes"/>
      <point x="381" y="393"/>
      <point x="347" y="372"/>
    </contour>
  </outline>
</glyph>
<glyph name="si_Ba" format="1">
  <advance width="619"/>
  <unicode hex="0DB6"/>
  <outline>
    <contour>
      <point x="102.456" y="76" type="curve" smooth="yes"/>
      <point x="102.456" y="50.0664"/>
      <point x="124.066" y="28.4561"/>
      <point x="150" y="28.4561" type="curve" smooth="yes"/>
      <point x="175.934" y="28.4561"/>
      <point x="197.544" y="50.0664"/>
      <point x="197.544" y="76" type="curve" smooth="yes"/>
      <point x="197.544" y="101.934"/>
      <point x="175.934" y="123.544"/>
      <point x="150" y="123.544" type="curve" smooth="yes"/>
      <point x="124.066" y="123.544"/>
      <point x="102.456" y="101.934"/>
    </contour>
    <contour>
      <point x="33" y="187" type="curve" smooth="yes"/>
      <point x="33" y="313.688"/>
      <point x="123.972" y="396"/>
      <point x="238.25" y="396" type="curve" smooth="yes"/>
      <point x="330.037" y="396"/>
      <point x="404" y="353.765"/>
      <point x="404" y="266" type="curve" smooth="yes"/>
      <point x="404" y="159.842"/>
      <point x="292" y="175.783"/>
      <point x="292" y="127.25" type="curve" smooth="yes"/>
      <point x="292" y="107.462"/>
      <point x="317.042" y="104"/>
      <point x="333" y="104" type="curve" smooth="yes"/>
      <point x="431.193" y="104"/>
      <point x="504" y="229.66"/>
      <point x="504" y="355.25" type="curve" smooth="yes"/>
      <point x="504" y="472.66"/>
      <point x="424.91" y="558"/>
      <point x="292" y="558" type="curve" smooth="yes"/>
      <point x="198" y="558"/>
      <point x="135.895" y="528.383"/>
      <point x="97" y="470" type="curve"/>
      <point x="64" y="470" type="line"/>
      <point x="98.6667" y="542"/>
      <point x="178.571" y="585"/>
      <point x="292" y="585" type="curve" smooth="yes"/>
      <point x="470" y="585"/>
      <point x="575" y="465.143"/>
      <point x="575" y="284" type="curve" smooth="yes"/>
      <point x="575" y="141.31"/>
      <point x="518.06" y="-2"/>
      <point x="381" y="-2" type="curve" smooth="yes"/>
      <point x="302.396" y="-2"/>
      <point x="258.75" y="49.0566"/>
      <point x="258.75" y="108.5" type="curve" smooth="yes"/>
      <point x="258.75" y="189.827"/>
      <point x="331" y="171.619"/>
      <point x="331" y="230" type="curve" smooth="yes"/>
      <point x="331" y="251.645"/>
      <point x="308.91" y="275.5"/>
      <point x="237" y="275.5" type="curve" smooth="yes"/>
      <point x="146" y="275.5"/>
      <point x="70" y="222.298"/>
      <point x="70" y="138" type="curve" smooth="yes"/>
      <point x="70" y="129.591"/>
      <point x="71.7058" y="104.415"/>
      <point x="77" y="91" type="curve"/>
      <point x="81" y="126"/>
      <point x="109.438" y="153"/>
      <point x="150" y="153" type="curve" smooth="yes"/>
      <point x="193" y="153"/>
      <point x="229" y="119"/>
      <point x="229" y="77" type="curve" smooth="yes"/>
      <point x="229" y="29"/>
      <point x="190" y="-1"/>
      <point x="150" y="-1" type="curve" smooth="yes"/>
      <point x="68" y="-1"/>
      <point x="33" y="91.123"/>
    </contour>
  </outline>
</glyph>
<glyph name="uni0DB6" format="1">
  <advance width="619"/>
  <unicode hex="0DB6"/>
  <outline>
    <contour>
      <point x="102" y="76" type="curve" smooth="yes"/>
      <point x="102" y="50"/>
      <point x="124" y="28"/>
      <point x="150" y="28" type="curve" smooth="yes"/>
      <point x="176" y="28"/>
      <point x="198" y="50"/>
      <point x="198" y="76" type="curve" smooth="yes"/>
      <point x="198" y="102"/>
      <point x="176" y="124"/>
      <point x="150" y="124" type="curve" smooth="yes"/>
      <point x="124" y="124"/>
      <point x="102" y="102"/>
    </contour>
    <contour>
      <point x="33" y="187" type="curve" smooth="yes"/>
      <point x="33" y="314"/>
      <point x="124" y="396"/>
      <point x="238" y="396" type="curve" smooth="yes"/>
      <point x="330" y="396"/>
      <point x="404" y="354"/>
      <point x="404" y="266" type="curve" smooth="yes"/>
      <point x="404" y="160"/>
      <point x="292" y="176"/>
      <point x="292" y="127" type="curve" smooth="yes"/>
      <point x="292" y="107"/>
      <point x="317" y="104"/>
      <point x="333" y="104" type="curve" smooth="yes"/>
      <point x="431" y="104"/>
      <point x="504" y="230"/>
      <point x="504" y="355" type="curve" smooth="yes"/>
      <point x="504" y="473"/>
      <point x="425" y="558"/>
      <point x="292" y="558" type="curve" smooth="yes"/>
      <point x="198" y="558"/>
      <point x="136" y="528"/>
      <point x="97" y="470" type="curve"/>
      <point x="64" y="470" type="line"/>
      <point x="99" y="542"/>
      <point x="179" y="585"/>
      <point x="292" y="585" type="curve" smooth="yes"/>
      <point x="470" y="585"/>
      <point x="575" y="465"/>
      <point x="575" y="284" type="curve" smooth="yes"/>
      <point x="575" y="141"/>
      <point x="518" y="-2"/>
      <point x="381" y="-2" type="curve" smooth="yes"/>
      <point x="302" y="-2"/>
      <point x="259" y="49"/>
      <point x="259" y="108" type="curve" smooth="yes"/>
      <point x="259" y="190"/>
      <point x="331" y="172"/>
      <point x="331" y="230" type="curve" smooth="yes"/>
      <point x="331" y="252"/>
      <point x="309" y="276"/>
      <point x="237" y="276" type="curve" smooth="yes"/>
      <point x="146" y="276"/>
      <point x="70" y="222"/>
      <point x="70" y="138" type="curve" smooth="yes"/>
      <point x="70" y="130"/>
      <point x="72" y="104"/>
      <point x="77" y="91" type="curve"/>
      <point x="81" y="126"/>
      <point x="109" y="153"/>
      <point x="150" y="153" type="curve" smooth="yes"/>
      <point x="193" y="153"/>
      <point x="229" y="119"/>
      <point x="229" y="77" type="curve" smooth="yes"/>
      <point x="229" y="29"/>
      <point x="190" y="-1"/>
      <point x="150" y="-1" type="curve" smooth="yes"/>
      <point x="68" y="-1"/>
      <point x="33" y="91"/>
    </contour>
  </outline>
</glyph>
<glyph name="si_Ma" format="1">
  <advance width="620"/>
  <unicode hex="0DB8"/>
  <outline>
    <contour>
      <point x="259" y="344" type="curve" smooth="yes"/>
      <point x="259" y="318"/>
      <point x="280" y="297"/>
      <point x="306" y="297" type="curve" smooth="yes"/>
      <point x="332" y="297"/>
      <point x="353" y="318"/>
      <point x="353" y="344" type="curve" smooth="yes"/>
      <point x="353" y="370"/>
      <point x="332" y="391"/>
      <point x="306" y="391" type="curve" smooth="yes"/>
      <point x="280" y="391"/>
      <point x="259" y="370"/>
    </contour>
    <contour>
      <point x="32" y="244" type="curve" smooth="yes"/>
      <point x="32" y="331"/>
      <point x="77" y="422"/>
      <point x="152" y="422" type="curve" smooth="yes"/>
      <point x="200" y="422"/>
      <point x="205" y="391"/>
      <point x="205" y="369" type="curve" smooth="yes"/>
      <point x="205" y="343"/>
      <point x="199" y="335"/>
      <point x="199" y="303" type="curve" smooth="yes"/>
      <point x="199" y="255"/>
      <point x="239" y="225"/>
      <point x="293" y="225" type="curve" smooth="yes"/>
      <point x="352" y="225"/>
      <point x="392" y="254"/>
      <point x="392" y="312" type="curve" smooth="yes"/>
      <point x="392" y="339"/>
      <point x="383" y="350"/>
      <point x="378" y="357" type="curve"/>
      <point x="380" y="347"/>
      <point x="380" y="343"/>
      <point x="380" y="335" type="curve" smooth="yes"/>
      <point x="380" y="299"/>
      <point x="353" y="265"/>
      <point x="306" y="265" type="curve" smooth="yes"/>
      <point x="256" y="265"/>
      <point x="228" y="308"/>
      <point x="228" y="343" type="curve" smooth="yes"/>
      <point x="228" y="388"/>
      <point x="264" y="422"/>
      <point x="311" y="422" type="curve" smooth="yes"/>
      <point x="378" y="422"/>
      <point x="423" y="378"/>
      <point x="423" y="308" type="curve" smooth="yes"/>
      <point x="423" y="234"/>
      <point x="366" y="193"/>
      <point x="295" y="193" type="curve" smooth="yes"/>
      <point x="236" y="193"/>
      <point x="167" y="226"/>
      <point x="167" y="297" type="curve" smooth="yes"/>
      <point x="167" y="329"/>
      <point x="174" y="350"/>
      <point x="174" y="367" type="curve" smooth="yes"/>
      <point x="174" y="379"/>
      <point x="171" y="393"/>
      <point x="150" y="393" type="curve" smooth="yes"/>
      <point x="109" y="393"/>
      <point x="91" y="342"/>
      <point x="91" y="303" type="curve" smooth="yes"/>
      <point x="91" y="201"/>
      <point x="177" y="131"/>
      <point x="295" y="131" type="curve" smooth="yes"/>
      <point x="410" y="131"/>
      <point x="503" y="199"/>
      <point x="503" y="325" type="curve" smooth="yes"/>
      <point x="503" y="431"/>
      <point x="434" y="544"/>
      <point x="296" y="544" type="curve" smooth="yes"/>
      <point x="217" y="544"/>
      <point x="156" y="515"/>
      <point x="110" y="458" type="curve"/>
      <point x="76" y="458" type="line"/>
      <point x="124" y="531"/>
      <point x="204" y="572"/>
      <point x="295" y="572" type="curve" smooth="yes"/>
      <point x="451" y="572"/>
      <point x="571" y="443"/>
      <point x="571" y="285" type="curve" smooth="yes"/>
      <point x="571" y="107"/>
      <point x="464" y="0"/>
      <point x="303" y="0" type="curve" smooth="yes"/>
      <point x="140" y="0"/>
      <point x="32" y="92"/>
    </contour>
  </outline>
</glyph>
<glyph name="si_Mba" format="1">
  <advance width="621"/>
  <unicode hex="0DB9"/>
  <outline>
    <contour>
      <point x="29" y="225" type="curve" smooth="yes"/>
      <point x="29" y="330"/>
      <point x="73" y="421"/>
      <point x="145" y="421" type="curve" smooth="yes"/>
      <point x="164" y="421"/>
      <point x="171" y="418"/>
      <point x="178" y="413" type="curve" smooth="yes"/>
      <point x="188" y="406"/>
      <point x="196" y="391"/>
      <point x="196" y="362" type="curve" smooth="yes"/>
      <point x="196" y="348"/>
      <point x="196" y="350"/>
      <point x="196" y="347" type="curve" smooth="yes"/>
      <point x="196" y="295"/>
      <point x="227" y="261"/>
      <point x="290" y="261" type="curve" smooth="yes"/>
      <point x="342" y="261"/>
      <point x="366" y="292"/>
      <point x="366" y="308" type="curve" smooth="yes"/>
      <point x="366" y="309"/>
      <point x="366" y="308"/>
      <point x="366" y="310" type="curve"/>
      <point x="362" y="305"/>
      <point x="351" y="282"/>
      <point x="311" y="282" type="curve" smooth="yes"/>
      <point x="265" y="282"/>
      <point x="239" y="317"/>
      <point x="239" y="352" type="curve" smooth="yes"/>
      <point x="239" y="393"/>
      <point x="270" y="424"/>
      <point x="314" y="424" type="curve" smooth="yes"/>
      <point x="372" y="424"/>
      <point x="398" y="374"/>
      <point x="398" y="329" type="curve" smooth="yes"/>
      <point x="398" y="273"/>
      <point x="354" y="232"/>
      <point x="285" y="232" type="curve" smooth="yes"/>
      <point x="213" y="232"/>
      <point x="167" y="276"/>
      <point x="167" y="349" type="curve" smooth="yes"/>
      <point x="167" y="354"/>
      <point x="167" y="354"/>
      <point x="167" y="363" type="curve" smooth="yes"/>
      <point x="167" y="383"/>
      <point x="161" y="394"/>
      <point x="142" y="394" type="curve" smooth="yes"/>
      <point x="96" y="394"/>
      <point x="72" y="321"/>
      <point x="72" y="272" type="curve" smooth="yes"/>
      <point x="72" y="193"/>
      <point x="107" y="122"/>
      <point x="176" y="122" type="curve" smooth="yes"/>
      <point x="193" y="122"/>
      <point x="206" y="126"/>
      <point x="214" y="133" type="curve"/>
      <point x="214" y="140"/>
      <point x="215" y="147"/>
      <point x="218" y="156" type="curve" smooth="yes"/>
      <point x="229" y="194"/>
      <point x="262" y="214"/>
      <point x="303" y="214" type="curve" smooth="yes"/>
      <point x="344" y="214"/>
      <point x="377" y="194"/>
      <point x="388" y="156" type="curve" smooth="yes"/>
      <point x="391" y="147"/>
      <point x="392" y="140"/>
      <point x="392" y="133" type="curve"/>
      <point x="401" y="126"/>
      <point x="412" y="122"/>
      <point x="430" y="122" type="curve" smooth="yes"/>
      <point x="486" y="122"/>
      <point x="517" y="206"/>
      <point x="517" y="297" type="curve" smooth="yes"/>
      <point x="517" y="408"/>
      <point x="447" y="540"/>
      <point x="291" y="540" type="curve" smooth="yes"/>
      <point x="194" y="540"/>
      <point x="139" y="510"/>
      <point x="94" y="455" type="curve"/>
      <point x="61" y="455" type="line"/>
      <point x="105" y="518"/>
      <point x="169" y="565"/>
      <point x="293" y="565" type="curve" smooth="yes"/>
      <point x="477" y="565"/>
      <point x="576" y="421"/>
      <point x="576" y="248" type="curve" smooth="yes"/>
      <point x="576" y="123"/>
      <point x="511" y="0"/>
      <point x="414" y="0" type="curve" smooth="yes"/>
      <point x="391" y="0"/>
      <point x="381" y="4"/>
      <point x="351" y="12" type="curve"/>
      <point x="348" y="16"/>
      <point x="347" y="39"/>
      <point x="347" y="46" type="curve" smooth="yes"/>
      <point x="347" y="77"/>
      <point x="361" y="91"/>
      <point x="361" y="118" type="curve" smooth="yes"/>
      <point x="361" y="154"/>
      <point x="346" y="182"/>
      <point x="303" y="182" type="curve" smooth="yes"/>
      <point x="260" y="182"/>
      <point x="244" y="154"/>
      <point x="244" y="118" type="curve" smooth="yes"/>
      <point x="244" y="91"/>
      <point x="259" y="77"/>
      <point x="259" y="46" type="curve" smooth="yes"/>
      <point x="259" y="39"/>
      <point x="258" y="16"/>
      <point x="255" y="12" type="curve"/>
      <point x="225" y="4"/>
      <point x="214" y="0"/>
      <point x="191" y="0" type="curve" smooth="yes"/>
      <point x="83" y="0"/>
      <point x="29" y="117"/>
    </contour>
    <contour>
      <point x="268" y="354" type="curve" smooth="yes"/>
      <point x="268" y="329"/>
      <point x="288" y="310"/>
      <point x="313" y="310" type="curve" smooth="yes"/>
      <point x="338" y="310"/>
      <point x="358" y="329"/>
      <point x="358" y="354" type="curve" smooth="yes"/>
      <point x="358" y="379"/>
      <point x="338" y="399"/>
      <point x="313" y="399" type="curve" smooth="yes"/>
      <point x="288" y="399"/>
      <point x="268" y="379"/>
    </contour>
  </outline>
</glyph>
<glyph name="si_Sha" format="1">
  <advance width="616"/>
  <unicode hex="0DC1"/>
  <outline>
    <contour>
      <point x="33" y="201" type="curve" smooth="yes"/>
      <point x="33" y="326"/>
      <point x="105" y="422"/>
      <point x="229" y="422" type="curve" smooth="yes"/>
      <point x="233" y="422"/>
      <point x="242" y="421"/>
      <point x="245" y="421" type="curve" smooth="yes"/>
      <point x="245" y="397" type="line"/>
      <point x="241" y="397"/>
      <point x="236" y="397"/>
      <point x="232" y="397" type="curve" smooth="yes"/>
      <point x="136" y="397"/>
      <point x="86" y="333"/>
      <point x="86" y="260" type="curve" smooth="yes"/>
      <point x="86" y="211"/>
      <point x="115" y="137"/>
      <point x="203" y="137" type="curve" smooth="yes"/>
      <point x="247" y="137"/>
      <point x="288" y="151"/>
      <point x="288" y="187" type="curve" smooth="yes"/>
      <point x="288" y="197"/>
      <point x="281" y="213"/>
      <point x="256" y="213" type="curve" smooth="yes"/>
      <point x="250" y="213"/>
      <point x="241" y="212"/>
      <point x="233" y="206" type="curve" smooth="yes"/>
      <point x="231" y="201"/>
      <point x="230" y="193"/>
      <point x="229" y="188" type="curve"/>
      <point x="203" y="188" type="line"/>
      <point x="217" y="321"/>
      <point x="270" y="422"/>
      <point x="390" y="422" type="curve" smooth="yes"/>
      <point x="511" y="422"/>
      <point x="568" y="305"/>
      <point x="568" y="191" type="curve" smooth="yes"/>
      <point x="568" y="125"/>
      <point x="545" y="36"/>
      <point x="517" y="1" type="curve"/>
      <point x="489" y="1" type="line"/>
      <point x="492" y="6"/>
      <point x="493" y="10"/>
      <point x="493" y="14" type="curve" smooth="yes"/>
      <point x="493" y="21"/>
      <point x="488" y="27"/>
      <point x="481" y="27" type="curve" smooth="yes"/>
      <point x="460" y="27"/>
      <point x="454" y="-3"/>
      <point x="417" y="-3" type="curve" smooth="yes"/>
      <point x="381" y="-3"/>
      <point x="358" y="35"/>
      <point x="358" y="73" type="curve" smooth="yes"/>
      <point x="358" y="135"/>
      <point x="404" y="180"/>
      <point x="469" y="180" type="curve" smooth="yes"/>
      <point x="475" y="180"/>
      <point x="489" y="179"/>
      <point x="500" y="177" type="curve"/>
      <point x="487" y="251"/>
      <point x="443" y="312"/>
      <point x="358" y="312" type="curve" smooth="yes"/>
      <point x="304" y="312"/>
      <point x="247" y="286"/>
      <point x="236" y="234" type="curve"/>
      <point x="243" y="237"/>
      <point x="249" y="238"/>
      <point x="256" y="238" type="curve" smooth="yes"/>
      <point x="303" y="238"/>
      <point x="335" y="203"/>
      <point x="335" y="135" type="curve" smooth="yes"/>
      <point x="335" y="61"/>
      <point x="282" y="-1"/>
      <point x="193" y="-1" type="curve" smooth="yes"/>
      <point x="89" y="-1"/>
      <point x="33" y="90"/>
    </contour>
    <contour>
      <point x="390" y="77" type="curve" smooth="yes"/>
      <point x="390" y="50"/>
      <point x="400" y="28"/>
      <point x="423" y="28" type="curve" smooth="yes"/>
      <point x="447" y="28"/>
      <point x="458" y="54"/>
      <point x="481" y="54" type="curve" smooth="yes"/>
      <point x="489" y="54"/>
      <point x="494" y="51"/>
      <point x="497" y="46" type="curve"/>
      <point x="502" y="68"/>
      <point x="505" y="100"/>
      <point x="505" y="126" type="curve" smooth="yes"/>
      <point x="505" y="134"/>
      <point x="505" y="142"/>
      <point x="504" y="150" type="curve"/>
      <point x="494" y="153"/>
      <point x="479" y="153"/>
      <point x="471" y="153" type="curve" smooth="yes"/>
      <point x="426" y="153"/>
      <point x="390" y="123"/>
    </contour>
  </outline>
</glyph>
<glyph name="si_Ssa" format="1">
  <advance width="607"/>
  <unicode hex="0DC2"/>
  <outline>
    <contour>
      <point x="31" y="179" type="curve" smooth="yes"/>
      <point x="31" y="269"/>
      <point x="96" y="320"/>
      <point x="201" y="320" type="curve" smooth="yes"/>
      <point x="214" y="320"/>
      <point x="225" y="319"/>
      <point x="237" y="318" type="curve"/>
      <point x="237" y="321"/>
      <point x="238" y="325"/>
      <point x="238" y="328" type="curve" smooth="yes"/>
      <point x="238" y="364"/>
      <point x="215" y="383"/>
      <point x="186" y="383" type="curve" smooth="yes"/>
      <point x="159" y="383"/>
      <point x="149" y="369"/>
      <point x="144" y="352" type="curve" smooth="yes"/>
      <point x="140" y="337"/>
      <point x="127" y="318"/>
      <point x="96" y="318" type="curve" smooth="yes"/>
      <point x="76" y="318"/>
      <point x="54" y="330"/>
      <point x="54" y="356" type="curve" smooth="yes"/>
      <point x="54" y="399"/>
      <point x="100" y="423"/>
      <point x="154" y="423" type="curve" smooth="yes"/>
      <point x="225" y="423"/>
      <point x="268" y="391"/>
      <point x="268" y="326" type="curve" smooth="yes"/>
      <point x="268" y="315"/>
      <point x="268" y="304"/>
      <point x="265" y="291" type="curve"/>
      <point x="248" y="293"/>
      <point x="213" y="295"/>
      <point x="212" y="295" type="curve" smooth="yes"/>
      <point x="149" y="295"/>
      <point x="92" y="277"/>
      <point x="92" y="226" type="curve" smooth="yes"/>
      <point x="92" y="155"/>
      <point x="197" y="128"/>
      <point x="294" y="128" type="curve" smooth="yes"/>
      <point x="403" y="128"/>
      <point x="502" y="155"/>
      <point x="502" y="221" type="curve" smooth="yes"/>
      <point x="502" y="277"/>
      <point x="448" y="296"/>
      <point x="385" y="296" type="curve" smooth="yes"/>
      <point x="362" y="296"/>
      <point x="338" y="294"/>
      <point x="316" y="290" type="curve"/>
      <point x="314" y="301"/>
      <point x="314" y="310"/>
      <point x="314" y="320" type="curve" smooth="yes"/>
      <point x="314" y="387"/>
      <point x="358" y="423"/>
      <point x="429" y="423" type="curve" smooth="yes"/>
      <point x="494" y="423"/>
      <point x="528" y="384"/>
      <point x="528" y="346" type="curve" smooth="yes"/>
      <point x="528" y="326"/>
      <point x="520" y="309"/>
      <point x="502" y="296" type="curve"/>
      <point x="541" y="273"/>
      <point x="561" y="235"/>
      <point x="561" y="182" type="curve" smooth="yes"/>
      <point x="561" y="54"/>
      <point x="437" y="0"/>
      <point x="300" y="0" type="curve" smooth="yes"/>
      <point x="155" y="0"/>
      <point x="31" y="45"/>
    </contour>
    <contour>
      <point x="347" y="330" type="curve" smooth="yes"/>
      <point x="347" y="326"/>
      <point x="347" y="323"/>
      <point x="348" y="319" type="curve"/>
      <point x="364" y="321"/>
      <point x="379" y="322"/>
      <point x="394" y="322" type="curve" smooth="yes"/>
      <point x="425" y="322"/>
      <point x="451" y="318"/>
      <point x="474" y="309" type="curve"/>
      <point x="485" y="319"/>
      <point x="490" y="332"/>
      <point x="490" y="344" type="curve" smooth="yes"/>
      <point x="490" y="371"/>
      <point x="465" y="393"/>
      <point x="422" y="393" type="curve" smooth="yes"/>
      <point x="382" y="393"/>
      <point x="347" y="371"/>
    </contour>
    <contour>
      <point x="168" y="213" type="curve" smooth="yes"/>
      <point x="168" y="240"/>
      <point x="187" y="268"/>
      <point x="281" y="268" type="curve" smooth="yes"/>
      <point x="314" y="268"/>
      <point x="350" y="270"/>
      <point x="380" y="274" type="curve" smooth="yes"/>
      <point x="420" y="279"/>
      <point x="452" y="293"/>
      <point x="461" y="299" type="curve"/>
      <point x="484" y="285" type="line"/>
      <point x="464" y="272"/>
      <point x="428" y="259"/>
      <point x="390" y="254" type="curve"/>
      <point x="409" y="246"/>
      <point x="422" y="231"/>
      <point x="422" y="212" type="curve" smooth="yes"/>
      <point x="422" y="172"/>
      <point x="366" y="157"/>
      <point x="289" y="157" type="curve" smooth="yes"/>
      <point x="235" y="157"/>
      <point x="168" y="170"/>
    </contour>
    <contour>
      <point x="199" y="217" type="curve" smooth="yes"/>
      <point x="199" y="196"/>
      <point x="230" y="184"/>
      <point x="292" y="184" type="curve" smooth="yes"/>
      <point x="358" y="184"/>
      <point x="392" y="196"/>
      <point x="392" y="214" type="curve" smooth="yes"/>
      <point x="392" y="237"/>
      <point x="359" y="246"/>
      <point x="291" y="246" type="curve" smooth="yes"/>
      <point x="229" y="246"/>
      <point x="199" y="236"/>
    </contour>
  </outline>
</glyph>
<glyph name="si_Ha" format="1">
  <advance width="637"/>
  <unicode hex="0DC4"/>
  <outline>
    <contour>
      <point x="32" y="151" type="curve" smooth="yes"/>
      <point x="32" y="240"/>
      <point x="97" y="296"/>
      <point x="189" y="296" type="curve" smooth="yes"/>
      <point x="193" y="296"/>
      <point x="195" y="296"/>
      <point x="199" y="296" type="curve"/>
      <point x="199" y="334"/>
      <point x="175" y="369"/>
      <point x="148" y="369" type="curve" smooth="yes"/>
      <point x="133" y="369"/>
      <point x="120" y="365"/>
      <point x="111" y="344" type="curve" smooth="yes"/>
      <point x="103" y="325"/>
      <point x="88" y="315"/>
      <point x="72" y="315" type="curve" smooth="yes"/>
      <point x="51" y="315"/>
      <point x="32" y="328"/>
      <point x="32" y="355" type="curve" smooth="yes"/>
      <point x="32" y="385"/>
      <point x="61" y="422"/>
      <point x="116" y="422" type="curve" smooth="yes"/>
      <point x="193" y="422"/>
      <point x="233" y="352"/>
      <point x="233" y="270" type="curve"/>
      <point x="222" y="271"/>
      <point x="211" y="272"/>
      <point x="200" y="272" type="curve" smooth="yes"/>
      <point x="122" y="272"/>
      <point x="92" y="237"/>
      <point x="92" y="206" type="curve" smooth="yes"/>
      <point x="92" y="154"/>
      <point x="154" y="136"/>
      <point x="207" y="136" type="curve" smooth="yes"/>
      <point x="244" y="136"/>
      <point x="311" y="149"/>
      <point x="311" y="186" type="curve" smooth="yes"/>
      <point x="311" y="204"/>
      <point x="300" y="210"/>
      <point x="289" y="210" type="curve" smooth="yes"/>
      <point x="275" y="210"/>
      <point x="265" y="203"/>
      <point x="258" y="182" type="curve"/>
      <point x="233" y="190" type="line"/>
      <point x="242" y="312"/>
      <point x="321" y="422"/>
      <point x="420" y="422" type="curve" smooth="yes"/>
      <point x="529" y="422"/>
      <point x="591" y="321"/>
      <point x="591" y="206" type="curve" smooth="yes"/>
      <point x="591" y="90"/>
      <point x="504" y="-1"/>
      <point x="384" y="-1" type="curve" smooth="yes"/>
      <point x="371" y="-1"/>
      <point x="358" y="0"/>
      <point x="344" y="2" type="curve"/>
      <point x="344" y="30" type="line"/>
      <point x="356" y="28"/>
      <point x="368" y="28"/>
      <point x="379" y="28" type="curve" smooth="yes"/>
      <point x="466" y="28"/>
      <point x="485" y="109"/>
      <point x="485" y="162" type="curve" smooth="yes"/>
      <point x="485" y="224"/>
      <point x="453" y="307"/>
      <point x="365" y="307" type="curve" smooth="yes"/>
      <point x="292" y="307"/>
      <point x="276" y="257"/>
      <point x="267" y="229" type="curve"/>
      <point x="277" y="234"/>
      <point x="285" y="236"/>
      <point x="294" y="236" type="curve" smooth="yes"/>
      <point x="334" y="236"/>
      <point x="358" y="195"/>
      <point x="358" y="142" type="curve" smooth="yes"/>
      <point x="358" y="52"/>
      <point x="288" y="-1"/>
      <point x="196" y="-1" type="curve" smooth="yes"/>
      <point x="101" y="-1"/>
      <point x="32" y="59"/>
    </contour>
  </outline>
</glyph>
<glyph name="si_Fa" format="1">
  <advance width="607"/>
  <unicode hex="0DC6"/>
  <outline>
    <contour>
      <point x="33" y="212" type="curve" smooth="yes"/>
      <point x="33" y="316"/>
      <point x="78" y="431"/>
      <point x="186" y="431" type="curve" smooth="yes"/>
      <point x="246" y="431"/>
      <point x="280" y="398"/>
      <point x="296" y="359" type="curve"/>
      <point x="312" y="398"/>
      <point x="346" y="431"/>
      <point x="406" y="431" type="curve" smooth="yes"/>
      <point x="514" y="431"/>
      <point x="559" y="316"/>
      <point x="559" y="212" type="curve" smooth="yes"/>
      <point x="559" y="110"/>
      <point x="511.11" y="-1"/>
      <point x="410" y="-1" type="curve" smooth="yes"/>
      <point x="398" y="-1"/>
      <point x="385.333" y="1.33301"/>
      <point x="372" y="6" type="curve"/>
      <point x="372" y="33.75" type="line"/>
      <point x="382.667" y="29.75"/>
      <point x="393.667" y="27.75"/>
      <point x="405" y="27.75" type="curve" smooth="yes"/>
      <point x="476" y="27.75"/>
      <point x="503" y="98.156"/>
      <point x="503" y="170" type="curve" smooth="yes"/>
      <point x="503" y="217.076"/>
      <point x="490.25" y="297"/>
      <point x="404.25" y="297" type="curve" smooth="yes"/>
      <point x="352.25" y="297"/>
      <point x="312.75" y="271"/>
      <point x="312.75" y="200" type="curve" smooth="yes"/>
      <point x="312.75" y="180" type="line"/>
      <point x="279.25" y="180" type="line"/>
      <point x="279.25" y="200" type="line" smooth="yes"/>
      <point x="279.25" y="271"/>
      <point x="240.25" y="297"/>
      <point x="188.25" y="297" type="curve" smooth="yes"/>
      <point x="102.25" y="297"/>
      <point x="87" y="213.36"/>
      <point x="87" y="167" type="curve" smooth="yes"/>
      <point x="87" y="98.1722"/>
      <point x="116" y="28"/>
      <point x="187" y="28" type="curve" smooth="yes"/>
      <point x="198.333" y="28"/>
      <point x="209.333" y="30"/>
      <point x="220" y="34" type="curve"/>
      <point x="220" y="6" type="line"/>
      <point x="206.667" y="1.33333"/>
      <point x="194" y="-1"/>
      <point x="182" y="-1" type="curve" smooth="yes"/>
      <point x="80.8892" y="-1"/>
      <point x="33" y="110"/>
    </contour>
  </outline>
</glyph>
<glyph name="uni0DC6" format="1">
  <advance width="607"/>
  <unicode hex="0DC6"/>
  <outline>
    <contour>
      <point x="33" y="212" type="curve" smooth="yes"/>
      <point x="33" y="316"/>
      <point x="78" y="431"/>
      <point x="186" y="431" type="curve" smooth="yes"/>
      <point x="246" y="431"/>
      <point x="280" y="398"/>
      <point x="296" y="359" type="curve"/>
      <point x="312" y="398"/>
      <point x="346" y="431"/>
      <point x="406" y="431" type="curve" smooth="yes"/>
      <point x="514" y="431"/>
      <point x="559" y="316"/>
      <point x="559" y="212" type="curve" smooth="yes"/>
      <point x="559" y="110"/>
      <point x="511" y="-1"/>
      <point x="410" y="-1" type="curve" smooth="yes"/>
      <point x="398" y="-1"/>
      <point x="385" y="1"/>
      <point x="372" y="6" type="curve"/>
      <point x="372" y="34" type="line"/>
      <point x="383" y="30"/>
      <point x="394" y="28"/>
      <point x="405" y="28" type="curve" smooth="yes"/>
      <point x="476" y="28"/>
      <point x="503" y="98"/>
      <point x="503" y="170" type="curve" smooth="yes"/>
      <point x="503" y="217"/>
      <point x="490" y="297"/>
      <point x="404" y="297" type="curve" smooth="yes"/>
      <point x="352" y="297"/>
      <point x="313" y="271"/>
      <point x="313" y="200" type="curve" smooth="yes"/>
      <point x="313" y="180" type="line"/>
      <point x="279" y="180" type="line"/>
      <point x="279" y="200" type="line" smooth="yes"/>
      <point x="279" y="271"/>
      <point x="240" y="297"/>
      <point x="188" y="297" type="curve" smooth="yes"/>
      <point x="102" y="297"/>
      <point x="87" y="213"/>
      <point x="87" y="167" type="curve" smooth="yes"/>
      <point x="87" y="98"/>
      <point x="116" y="28"/>
      <point x="187" y="28" type="curve" smooth="yes"/>
      <point x="198" y="28"/>
      <point x="209" y="30"/>
      <point x="220" y="34" type="curve"/>
      <point x="220" y="6" type="line"/>
      <point x="207" y="1"/>
      <point x="194" y="-1"/>
      <point x="182" y="-1" type="curve" smooth="yes"/>
      <point x="81" y="-1"/>
      <point x="33" y="110"/>
    </contour>
  </outline>
</glyph>
<glyph name="si_MatraAa" format="1">
  <advance width="304"/>
  <unicode hex="0DCF"/>
  <outline>
    <contour>
      <point x="21" y="108" type="curve" smooth="yes"/>
      <point x="21" y="115"/>
      <point x="21" y="122"/>
      <point x="22" y="129" type="curve"/>
      <point x="50" y="129" type="line"/>
      <point x="49" y="124"/>
      <point x="49" y="119"/>
      <point x="49" y="114" type="curve" smooth="yes"/>
      <point x="49" y="68"/>
      <point x="72" y="64"/>
      <point x="83" y="64" type="curve" smooth="yes"/>
      <point x="105" y="64"/>
      <point x="129" y="88"/>
      <point x="129" y="196" type="curve" smooth="yes"/>
      <point x="129" y="304"/>
      <point x="105" y="330"/>
      <point x="83" y="330" type="curve" smooth="yes"/>
      <point x="73" y="330"/>
      <point x="49" y="323"/>
      <point x="49" y="278" type="curve" smooth="yes"/>
      <point x="49" y="273"/>
      <point x="49" y="268"/>
      <point x="50" y="263" type="curve"/>
      <point x="22" y="263" type="line"/>
      <point x="21" y="270"/>
      <point x="21" y="278"/>
      <point x="21" y="285" type="curve" smooth="yes"/>
      <point x="21" y="352"/>
      <point x="72" y="394"/>
      <point x="130" y="394" type="curve" smooth="yes"/>
      <point x="219" y="394"/>
      <point x="264" y="321"/>
      <point x="264" y="196" type="curve" smooth="yes"/>
      <point x="264" y="71"/>
      <point x="219" y="-1"/>
      <point x="130" y="-1" type="curve" smooth="yes"/>
      <point x="64" y="-1"/>
      <point x="21" y="41"/>
    </contour>
  </outline>
</glyph>
<glyph name="si_MatraAae" format="1">
  <advance width="328"/>
  <unicode hex="0DD1"/>
  <outline>
    <contour>
      <point x="4" y="305" type="line"/>
      <point x="4" y="331" type="line"/>
      <point x="243" y="331" type="line"/>
      <point x="243" y="310" type="line"/>
      <point x="119" y="218" type="line"/>
      <point x="266" y="218" type="line"/>
      <point x="266" y="196" type="line"/>
      <point x="222" y="162"/>
      <point x="184" y="115"/>
      <point x="184" y="35" type="curve" smooth="yes"/>
      <point x="184" y="-28"/>
      <point x="221" y="-97"/>
      <point x="299" y="-97" type="curve"/>
      <point x="299" y="-124" type="line"/>
      <point x="266" y="-138"/>
      <point x="231" y="-145"/>
      <point x="202" y="-145" type="curve" smooth="yes"/>
      <point x="114" y="-145"/>
      <point x="54" y="-99"/>
      <point x="54" y="-18" type="curve" smooth="yes"/>
      <point x="54" y="94"/>
      <point x="155" y="152"/>
      <point x="222" y="192" type="curve"/>
      <point x="70" y="192" type="line"/>
      <point x="70" y="216" type="line"/>
      <point x="193" y="305" type="line"/>
    </contour>
  </outline>
</glyph>
<glyph name="uni0DD2" format="1">
  <advance width="2"/>
  <unicode hex="0DD2"/>
  <outline>
    <contour>
      <point x="-545" y="518" type="curve" smooth="yes"/>
      <point x="-545" y="626.291"/>
      <point x="-432.379" y="671"/>
      <point x="-313" y="671" type="curve" smooth="yes"/>
      <point x="-193.621" y="671"/>
      <point x="-81" y="626.291"/>
      <point x="-81" y="518" type="curve" smooth="yes"/>
      <point x="-81" y="443.457"/>
      <point x="-147.143" y="408.074"/>
      <point x="-224" y="405" type="curve"/>
      <point x="-224" y="427.75" type="line"/>
      <point x="-170.324" y="430.575"/>
      <point x="-148.25" y="447.041"/>
      <point x="-148.25" y="479" type="curve" smooth="yes"/>
      <point x="-148.25" y="521.433"/>
      <point x="-226.563" y="535.75"/>
      <point x="-313" y="535.75" type="curve" smooth="yes"/>
      <point x="-401.908" y="535.75"/>
      <point x="-482" y="521.776"/>
      <point x="-482" y="479" type="curve" smooth="yes"/>
      <point x="-482" y="450.304"/>
      <point x="-455.676" y="430.575"/>
      <point x="-402" y="427.75" type="curve"/>
      <point x="-402" y="405" type="line"/>
      <point x="-478.857" y="408.074"/>
      <point x="-545" y="443.457"/>
    </contour>
  </outline>
</glyph>
<glyph name="uni0DD3" format="1">
  <advance width="2"/>
  <unicode hex="0DD3"/>
  <outline>
    <contour>
      <point x="-248.687" y="514" type="curve" smooth="yes"/>
      <point x="-248.687" y="483.616"/>
      <point x="-219.283" y="459.114"/>
      <point x="-184" y="459.114" type="curve" smooth="yes"/>
      <point x="-148.717" y="459.114"/>
      <point x="-119.313" y="483.616"/>
      <point x="-119.313" y="514" type="curve" smooth="yes"/>
      <point x="-119.313" y="544.384"/>
      <point x="-148.717" y="568.886"/>
      <point x="-184" y="568.886" type="curve" smooth="yes"/>
      <point x="-219.283" y="568.886"/>
      <point x="-248.687" y="544.384"/>
    </contour>
    <contour>
      <point x="-587" y="517" type="curve" smooth="yes"/>
      <point x="-587" y="624.211"/>
      <point x="-463.054" y="671"/>
      <point x="-336" y="671" type="curve" smooth="yes"/>
      <point x="-219.286" y="671"/>
      <point x="-83" y="627.399"/>
      <point x="-83" y="524" type="curve" smooth="yes"/>
      <point x="-83" y="468.768"/>
      <point x="-127.723" y="429"/>
      <point x="-184" y="429" type="curve" smooth="yes"/>
      <point x="-242" y="429"/>
      <point x="-282" y="470"/>
      <point x="-282" y="515" type="curve" smooth="yes"/>
      <point x="-282" y="525.452"/>
      <point x="-279.231" y="549.089"/>
      <point x="-266" y="562" type="curve"/>
      <point x="-274.849" y="563.39"/>
      <point x="-315.498" y="565"/>
      <point x="-348" y="565" type="curve" smooth="yes"/>
      <point x="-442.164" y="565"/>
      <point x="-538" y="542.711"/>
      <point x="-538" y="482" type="curve" smooth="yes"/>
      <point x="-538" y="459.935"/>
      <point x="-525.459" y="437"/>
      <point x="-490" y="428" type="curve"/>
      <point x="-497" y="406" type="line"/>
      <point x="-550.246" y="410.733"/>
      <point x="-587" y="456"/>
    </contour>
  </outline>
</glyph>
<glyph name="si_MatraU" format="1">
  <advance width="1"/>
  <unicode hex="0DD4"/>
  <outline>
    <contour>
      <point x="-581" y="-139" type="curve" smooth="yes"/>
      <point x="-581" y="-88"/>
      <point x="-535" y="-49"/>
      <point x="-481" y="-49" type="curve" smooth="yes"/>
      <point x="-440" y="-49"/>
      <point x="-404" y="-72"/>
      <point x="-390" y="-107" type="curve"/>
      <point x="-422" y="-119" type="line"/>
      <point x="-429" y="-102"/>
      <point x="-449" y="-80"/>
      <point x="-481" y="-80" type="curve" smooth="yes"/>
      <point x="-517" y="-80"/>
      <point x="-546" y="-107"/>
      <point x="-546" y="-139" type="curve" smooth="yes"/>
      <point x="-546" y="-167"/>
      <point x="-525" y="-188"/>
      <point x="-457" y="-188" type="curve" smooth="yes"/>
      <point x="-89" y="-188" type="line"/>
      <point x="-89" y="125" type="line"/>
      <point x="-55" y="214" type="line"/>
      <point x="-55" y="-229" type="line"/>
      <point x="-478" y="-229" type="line" smooth="yes"/>
      <point x="-556" y="-229"/>
      <point x="-581" y="-182"/>
    </contour>
  </outline>
</glyph>
<glyph name="si_MatraR" format="1">
  <advance width="305"/>
  <unicode hex="0DD8"/>
  <outline>
    <contour>
      <point x="32" y="243" type="curve" smooth="yes"/>
      <point x="32" y="321"/>
      <point x="66" y="384"/>
      <point x="144" y="384" type="curve" smooth="yes"/>
      <point x="229" y="384"/>
      <point x="264" y="306"/>
      <point x="264" y="198" type="curve" smooth="yes"/>
      <point x="264" y="140"/>
      <point x="248" y="51"/>
      <point x="248" y="22" type="curve" smooth="yes"/>
      <point x="248" y="15"/>
      <point x="248" y="9"/>
      <point x="249" y="3" type="curve"/>
      <point x="176" y="3" type="line"/>
      <point x="173" y="12"/>
      <point x="168" y="17"/>
      <point x="161" y="17" type="curve" smooth="yes"/>
      <point x="149" y="17"/>
      <point x="141" y="-1"/>
      <point x="113" y="-1" type="curve" smooth="yes"/>
      <point x="55" y="-1"/>
      <point x="32" y="65"/>
      <point x="32" y="104" type="curve" smooth="yes"/>
      <point x="32" y="150"/>
      <point x="54" y="184"/>
      <point x="97" y="202" type="curve" smooth="yes"/>
      <point x="119" y="211"/>
      <point x="143" y="215"/>
      <point x="150" y="215" type="curve"/>
      <point x="150" y="303"/>
      <point x="141" y="332"/>
      <point x="113" y="332" type="curve" smooth="yes"/>
      <point x="80" y="332"/>
      <point x="58" y="301"/>
      <point x="58" y="240" type="curve" smooth="yes"/>
      <point x="58" y="238"/>
      <point x="58" y="238"/>
      <point x="58" y="236" type="curve"/>
      <point x="32" y="236" type="line"/>
      <point x="32" y="239"/>
      <point x="32" y="240"/>
    </contour>
    <contour>
      <point x="63" y="104" type="curve" smooth="yes"/>
      <point x="63" y="74"/>
      <point x="76" y="29"/>
      <point x="115" y="29" type="curve" smooth="yes"/>
      <point x="135" y="29"/>
      <point x="141" y="35"/>
      <point x="149" y="39" type="curve" smooth="yes"/>
      <point x="151" y="40"/>
      <point x="154" y="41"/>
      <point x="157" y="41" type="curve"/>
      <point x="149" y="46"/>
      <point x="149" y="74"/>
      <point x="149" y="111" type="curve" smooth="yes"/>
      <point x="149" y="142"/>
      <point x="150" y="161"/>
      <point x="150" y="179" type="curve" smooth="yes"/>
      <point x="150" y="182"/>
      <point x="150" y="186"/>
      <point x="150" y="188" type="curve"/>
      <point x="147" y="188"/>
      <point x="128" y="183"/>
      <point x="120" y="181" type="curve" smooth="yes"/>
      <point x="85" y="170"/>
      <point x="63" y="147"/>
    </contour>
  </outline>
</glyph>
<glyph name="si_MatraLs" format="1">
  <advance width="430"/>
  <unicode hex="0DDF"/>
  <outline>
    <contour>
      <point x="32" y="313" type="curve" smooth="yes"/>
      <point x="32" y="361"/>
      <point x="47" y="395"/>
      <point x="68" y="418" type="curve"/>
      <point x="104" y="418" type="line"/>
      <point x="83" y="400"/>
      <point x="62" y="365"/>
      <point x="62" y="314" type="curve" smooth="yes"/>
      <point x="62" y="269"/>
      <point x="84" y="241"/>
      <point x="114" y="241" type="curve" smooth="yes"/>
      <point x="137" y="241"/>
      <point x="152" y="255"/>
      <point x="152" y="283" type="curve" smooth="yes"/>
      <point x="152" y="300"/>
      <point x="146" y="315"/>
      <point x="133" y="329" type="curve"/>
      <point x="132" y="334"/>
      <point x="132" y="336"/>
      <point x="132" y="341" type="curve" smooth="yes"/>
      <point x="132" y="389"/>
      <point x="170" y="422"/>
      <point x="229" y="422" type="curve" smooth="yes"/>
      <point x="346" y="422"/>
      <point x="384" y="308"/>
      <point x="384" y="215" type="curve" smooth="yes"/>
      <point x="384" y="99"/>
      <point x="340" y="-2"/>
      <point x="228" y="-2" type="curve" smooth="yes"/>
      <point x="148" y="-2"/>
      <point x="114" y="53"/>
      <point x="114" y="117" type="curve" smooth="yes"/>
      <point x="114" y="129"/>
      <point x="115" y="141"/>
      <point x="118" y="153" type="curve"/>
      <point x="145" y="153" type="line"/>
      <point x="143" y="143"/>
      <point x="142" y="132"/>
      <point x="142" y="122" type="curve" smooth="yes"/>
      <point x="142" y="74"/>
      <point x="167" y="62"/>
      <point x="188" y="62" type="curve" smooth="yes"/>
      <point x="228" y="62"/>
      <point x="246" y="109"/>
      <point x="246" y="232" type="curve" smooth="yes"/>
      <point x="246" y="335"/>
      <point x="222" y="380"/>
      <point x="194" y="380" type="curve" smooth="yes"/>
      <point x="180" y="380"/>
      <point x="160" y="373"/>
      <point x="160" y="344" type="curve" smooth="yes"/>
      <point x="160" y="342"/>
      <point x="160" y="339"/>
      <point x="160" y="337" type="curve"/>
      <point x="183" y="325"/>
      <point x="196" y="304"/>
      <point x="196" y="281" type="curve" smooth="yes"/>
      <point x="196" y="232"/>
      <point x="168" y="207"/>
      <point x="119" y="207" type="curve" smooth="yes"/>
      <point x="65" y="207"/>
      <point x="32" y="255"/>
    </contour>
  </outline>
</glyph>
<glyph name="si_kundaliya" format="1">
  <advance width="1742"/>
  <unicode hex="0DF4"/>
  <outline>
    <contour>
      <point x="1280" y="39" type="curve"/>
      <point x="1306" y="130" type="line"/>
      <point x="1157" y="38" type="line"/>
      <point x="1184" y="170" type="line"/>
      <point x="1033" y="71" type="line"/>
      <point x="1049" y="233" type="line"/>
      <point x="891" y="84" type="line"/>
      <point x="878" y="259" type="line"/>
      <point x="745" y="112" type="line"/>
      <point x="714" y="256" type="line"/>
      <point x="586" y="111" type="line"/>
      <point x="559" y="223" type="line"/>
      <point x="447" y="73" type="line"/>
      <point x="418" y="159" type="line"/>
      <point x="358" y="56" type="line"/>
      <point x="349" y="72"/>
      <point x="338" y="87"/>
      <point x="316" y="87" type="curve" smooth="yes"/>
      <point x="252" y="87"/>
      <point x="213" y="-2"/>
      <point x="126" y="-2" type="curve" smooth="yes"/>
      <point x="86" y="-2"/>
      <point x="50" y="21"/>
      <point x="50" y="73" type="curve" smooth="yes"/>
      <point x="50" y="109"/>
      <point x="73" y="144"/>
      <point x="116" y="144" type="curve" smooth="yes"/>
      <point x="158" y="144"/>
      <point x="178" y="112"/>
      <point x="178" y="83" type="curve" smooth="yes"/>
      <point x="178" y="70"/>
      <point x="173" y="52"/>
      <point x="166" y="46" type="curve"/>
      <point x="167" y="45"/>
      <point x="170" y="44"/>
      <point x="173" y="44" type="curve" smooth="yes"/>
      <point x="237" y="44"/>
      <point x="288" y="147"/>
      <point x="342" y="147" type="curve" smooth="yes"/>
      <point x="352" y="147"/>
      <point x="365" y="145"/>
      <point x="374" y="132" type="curve"/>
      <point x="458" y="277" type="line"/>
      <point x="498" y="177" type="line"/>
      <point x="626" y="349" type="line"/>
      <point x="656" y="227" type="line"/>
      <point x="794" y="386" type="line"/>
      <point x="827" y="237" type="line"/>
      <point x="976" y="408" type="line"/>
      <point x="989" y="210" type="line"/>
      <point x="1170" y="376" type="line"/>
      <point x="1146" y="174" type="line"/>
      <point x="1307" y="279" type="line"/>
      <point x="1275" y="138" type="line"/>
      <point x="1416" y="227" type="line"/>
      <point x="1384" y="140" type="line"/>
      <point x="1393" y="146"/>
      <point x="1403" y="147"/>
      <point x="1413" y="147" type="curve" smooth="yes"/>
      <point x="1467" y="147"/>
      <point x="1515" y="44"/>
      <point x="1580" y="44" type="curve" smooth="yes"/>
      <point x="1583" y="44"/>
      <point x="1586" y="44"/>
      <point x="1589" y="46" type="curve"/>
      <point x="1582" y="52"/>
      <point x="1577" y="67"/>
      <point x="1577" y="83" type="curve" smooth="yes"/>
      <point x="1577" y="109"/>
      <point x="1597" y="144"/>
      <point x="1639" y="144" type="curve" smooth="yes"/>
      <point x="1682" y="144"/>
      <point x="1705" y="109"/>
      <point x="1705" y="73" type="curve" smooth="yes"/>
      <point x="1705" y="21"/>
      <point x="1669" y="-2"/>
      <point x="1629" y="-2" type="curve" smooth="yes"/>
      <point x="1542" y="-2"/>
      <point x="1491" y="94"/>
      <point x="1413" y="94" type="curve" smooth="yes"/>
      <point x="1391" y="94"/>
      <point x="1356" y="92"/>
    </contour>
  </outline>
</glyph>
<glyph name="afii61664" format="1">
  <advance width="0"/>
  <unicode hex="200C"/>
  <outline>
    <contour>
      <point x="-39.5" y="-10.75" type="line"/>
      <point x="-39.5" y="780.75" type="line"/>
      <point x="39.5" y="780.75" type="line"/>
      <point x="39.5" y="-10.75" type="line"/>
    </contour>
  </outline>
</glyph>
<glyph name="zwj" format="1">
  <advance width="0"/>
  <unicode hex="200D"/>
  <outline>
    <contour>
      <point x="54" y="640" type="line"/>
      <point x="176" y="520" type="line"/>
      <point x="121" y="466" type="line"/>
      <point x="39" y="548" type="line"/>
      <point x="39" y="-10" type="line"/>
      <point x="-39" y="-10" type="line"/>
      <point x="-39" y="548" type="line"/>
      <point x="-121" y="466" type="line"/>
      <point x="-176" y="520" type="line"/>
      <point x="-54" y="640" type="line"/>
      <point x="-176" y="758" type="line"/>
      <point x="-121" y="812" type="line"/>
      <point x="0" y="691" type="line"/>
      <point x="121" y="812" type="line"/>
      <point x="176" y="758" type="line"/>
    </contour>
  </outline>
</glyph>
<glyph name="quotesinglbase" format="1">
  <advance width="175"/>
  <unicode hex="201A"/>
  <outline>
    <contour>
      <point x="156" y="56" type="curve" smooth="yes"/>
      <point x="156" y="110"/>
      <point x="121" y="136"/>
      <point x="86" y="136" type="curve" smooth="yes"/>
      <point x="53" y="136"/>
      <point x="20" y="112"/>
      <point x="20" y="68" type="curve" smooth="yes"/>
      <point x="20" y="32"/>
      <point x="46" y="8"/>
      <point x="74" y="2" type="curve" smooth="yes"/>
      <point x="92" y="-2"/>
      <point x="99" y="-8"/>
      <point x="99" y="-22" type="curve" smooth="yes"/>
      <point x="99" y="-36"/>
      <point x="88" y="-58"/>
      <point x="70" y="-80" type="curve"/>
      <point x="92" y="-94" type="line"/>
      <point x="129" y="-51"/>
      <point x="156" y="7"/>
    </contour>
  </outline>
</glyph>
<glyph name="dblquote_right" format="1">
  <advance width="377"/>
  <unicode hex="201D"/>
  <outline>
    <contour>
      <point x="254" y="654" type="curve" smooth="yes"/>
      <point x="259" y="654"/>
      <point x="265" y="653"/>
      <point x="270" y="652" type="curve" smooth="yes"/>
      <point x="301" y="645"/>
      <point x="317" y="620"/>
      <point x="317" y="578" type="curve" smooth="yes"/>
      <point x="317" y="533"/>
      <point x="297" y="495"/>
      <point x="258" y="463" type="curve"/>
      <point x="222" y="463" type="line"/>
      <point x="249" y="488"/>
      <point x="262" y="512"/>
      <point x="262" y="533" type="curve" smooth="yes"/>
      <point x="262" y="540"/>
      <point x="260" y="545"/>
      <point x="257" y="549" type="curve" smooth="yes"/>
      <point x="254" y="553"/>
      <point x="244" y="559"/>
      <point x="227" y="568" type="curve"/>
      <point x="214" y="574"/>
      <point x="207" y="583"/>
      <point x="206" y="595" type="curve"/>
      <point x="202" y="628"/>
      <point x="222" y="654"/>
    </contour>
    <contour>
      <point x="110" y="654" type="curve" smooth="yes"/>
      <point x="115" y="654"/>
      <point x="121" y="653"/>
      <point x="126" y="652" type="curve" smooth="yes"/>
      <point x="158" y="645"/>
      <point x="174" y="620"/>
      <point x="174" y="578" type="curve" smooth="yes"/>
      <point x="174" y="533"/>
      <point x="154" y="495"/>
      <point x="114" y="463" type="curve"/>
      <point x="79" y="463" type="line"/>
      <point x="105" y="489"/>
      <point x="118" y="512"/>
      <point x="118" y="533" type="curve" smooth="yes"/>
      <point x="118" y="540"/>
      <point x="116" y="545"/>
      <point x="112" y="550" type="curve"/>
      <point x="109" y="553"/>
      <point x="100" y="558"/>
      <point x="83" y="567" type="curve" smooth="yes"/>
      <point x="70" y="574"/>
      <point x="63" y="583"/>
      <point x="62" y="595" type="curve"/>
      <point x="58" y="628"/>
      <point x="78" y="654"/>
    </contour>
  </outline>
</glyph>
<glyph name="fraction" format="1">
  <advance width="147"/>
  <unicode hex="2044"/>
  <outline>
    <contour>
      <point x="-110" y="-29" type="line"/>
      <point x="317" y="610" type="line"/>
      <point x="278" y="630" type="line"/>
      <point x="-150" y="-10" type="line"/>
    </contour>
  </outline>
</glyph>
<glyph name="dottedcircle" format="1">
  <advance width="558"/>
  <unicode hex="25CC"/>
  <outline>
    <contour>
      <point x="96.4319" y="96.5092" type="curve"/>
      <point x="97.3724" y="115.593"/>
      <point x="110.126" y="128"/>
      <point x="129.272" y="128" type="curve" smooth="yes"/>
      <point x="149.186" y="128"/>
      <point x="162.46" y="115.462"/>
      <point x="161.406" y="95.4908" type="curve" smooth="yes"/>
      <point x="160.467" y="76.4077"/>
      <point x="147.713" y="64"/>
      <point x="128.567" y="64" type="curve" smooth="yes"/>
      <point x="108.653" y="64"/>
      <point x="95.3811" y="76.5698"/>
    </contour>
    <contour>
      <point x="54.1717" y="163.959" type="curve"/>
      <point x="55.0098" y="182.906"/>
      <point x="66.882" y="196"/>
      <point x="85.9072" y="196" type="curve" smooth="yes"/>
      <point x="105.689" y="196"/>
      <point x="118.091" y="182.796"/>
      <point x="117.151" y="163.041" type="curve" smooth="yes"/>
      <point x="116.311" y="144.092"/>
      <point x="104.438" y="131"/>
      <point x="85.4131" y="131" type="curve" smooth="yes"/>
      <point x="65.6299" y="131"/>
      <point x="53.2317" y="144.236"/>
    </contour>
    <contour>
      <point x="161.517" y="53.5093" type="curve"/>
      <point x="162.449" y="72.4553"/>
      <point x="174.846" y="85"/>
      <point x="193.855" y="85" type="curve" smooth="yes"/>
      <point x="213.614" y="85"/>
      <point x="226.535" y="72.284"/>
      <point x="225.491" y="52.4907" type="curve" smooth="yes"/>
      <point x="224.558" y="33.544"/>
      <point x="212.161" y="21"/>
      <point x="193.151" y="21" type="curve" smooth="yes"/>
      <point x="173.392" y="21"/>
      <point x="160.473" y="33.7489"/>
    </contour>
    <contour>
      <point x="237.896" y="37.5093" type="curve"/>
      <point x="238.819" y="56.2816"/>
      <point x="250.885" y="69"/>
      <point x="269.735" y="69" type="curve" smooth="yes"/>
      <point x="289.308" y="69"/>
      <point x="301.903" y="56.0334"/>
      <point x="300.87" y="36.4907" type="curve"/>
      <point x="299.947" y="17.7195"/>
      <point x="287.883" y="5"/>
      <point x="269.031" y="5" type="curve" smooth="yes"/>
      <point x="249.459" y="5"/>
      <point x="236.864" y="17.9658"/>
    </contour>
    <contour>
      <point x="39.5037" y="240.273" type="curve" smooth="yes"/>
      <point x="40.027" y="259.447"/>
      <point x="52.6575" y="272"/>
      <point x="71.8525" y="272" type="curve" smooth="yes"/>
      <point x="91.7662" y="272"/>
      <point x="105.042" y="259.462"/>
      <point x="103.987" y="239.49" type="curve" smooth="yes"/>
      <point x="103.053" y="220.544"/>
      <point x="90.6566" y="208"/>
      <point x="71.6475" y="208" type="curve" smooth="yes"/>
      <point x="51.9549" y="208"/>
      <point x="38.9277" y="220.579"/>
    </contour>
    <contour>
      <point x="57.362" y="317.18" type="curve"/>
      <point x="58.6054" y="336.066"/>
      <point x="70.6209" y="349"/>
      <point x="89.5869" y="349" type="curve" smooth="yes"/>
      <point x="109.449" y="349"/>
      <point x="121.715" y="335.574"/>
      <point x="120.316" y="315.82" type="curve"/>
      <point x="119.113" y="297.474"/>
      <point x="108.099" y="284"/>
      <point x="89.5928" y="284" type="curve" smooth="yes"/>
      <point x="69.2775" y="284"/>
      <point x="55.93" y="296.876"/>
    </contour>
    <contour>
      <point x="316.517" y="53.5093" type="curve"/>
      <point x="317.449" y="72.4553"/>
      <point x="329.846" y="85"/>
      <point x="348.855" y="85" type="curve" smooth="yes"/>
      <point x="368.614" y="85"/>
      <point x="381.535" y="72.284"/>
      <point x="380.491" y="52.4907" type="curve" smooth="yes"/>
      <point x="379.558" y="33.544"/>
      <point x="367.161" y="21"/>
      <point x="348.151" y="21" type="curve" smooth="yes"/>
      <point x="328.392" y="21"/>
      <point x="315.473" y="33.7489"/>
    </contour>
    <contour>
      <point x="102.218" y="384.294" type="curve"/>
      <point x="103.657" y="402.978"/>
      <point x="116.358" y="415"/>
      <point x="135.145" y="415" type="curve" smooth="yes"/>
      <point x="154.757" y="415"/>
      <point x="167.777" y="402.381"/>
      <point x="166.155" y="382.706" type="curve" smooth="yes"/>
      <point x="164.718" y="364.022"/>
      <point x="152.015" y="352"/>
      <point x="133.228" y="352" type="curve" smooth="yes"/>
      <point x="113.615" y="352"/>
      <point x="100.601" y="364.669"/>
    </contour>
    <contour>
      <point x="383.946" y="96.7361" type="curve"/>
      <point x="385.277" y="115.436"/>
      <point x="397.476" y="128"/>
      <point x="416.272" y="128" type="curve" smooth="yes"/>
      <point x="435.92" y="128"/>
      <point x="448.393" y="114.89"/>
      <point x="446.892" y="95.2639" type="curve" smooth="yes"/>
      <point x="445.562" y="76.5647"/>
      <point x="433.363" y="64"/>
      <point x="414.567" y="64" type="curve" smooth="yes"/>
      <point x="394.919" y="64"/>
      <point x="382.45" y="77.158"/>
    </contour>
    <contour>
      <point x="168.401" y="427.959" type="curve"/>
      <point x="169.248" y="447.052"/>
      <point x="181.486" y="460"/>
      <point x="200.639" y="460" type="curve" smooth="yes"/>
      <point x="220.573" y="460"/>
      <point x="233.329" y="446.977"/>
      <point x="232.38" y="427.041" type="curve" smooth="yes"/>
      <point x="231.535" y="407.949"/>
      <point x="219.298" y="395"/>
      <point x="200.145" y="395" type="curve" smooth="yes"/>
      <point x="180.211" y="395"/>
      <point x="167.455" y="408.053"/>
    </contour>
    <contour>
      <point x="427.684" y="164.181" type="curve"/>
      <point x="428.947" y="183.371"/>
      <point x="441.641" y="196"/>
      <point x="460.907" y="196" type="curve" smooth="yes"/>
      <point x="481.068" y="196"/>
      <point x="494.062" y="182.989"/>
      <point x="492.638" y="162.819" type="curve" smooth="yes"/>
      <point x="491.373" y="143.628"/>
      <point x="478.68" y="131"/>
      <point x="459.413" y="131" type="curve" smooth="yes"/>
      <point x="439.253" y="131"/>
      <point x="426.261" y="144.055"/>
    </contour>
    <contour>
      <point x="246.233" y="442.959" type="curve"/>
      <point x="247.071" y="461.906"/>
      <point x="259.209" y="475"/>
      <point x="278.347" y="475" type="curve" smooth="yes"/>
      <point x="298.13" y="475"/>
      <point x="310.151" y="461.765"/>
      <point x="309.212" y="442.041" type="curve"/>
      <point x="308.372" y="423.092"/>
      <point x="296.5" y="410"/>
      <point x="277.475" y="410" type="curve" smooth="yes"/>
      <point x="257.692" y="410"/>
      <point x="245.292" y="423.236"/>
    </contour>
    <contour>
      <point x="444.504" y="240.273" type="curve" smooth="yes"/>
      <point x="445.027" y="259.447"/>
      <point x="457.658" y="272"/>
      <point x="476.853" y="272" type="curve" smooth="yes"/>
      <point x="496.766" y="272"/>
      <point x="510.042" y="259.462"/>
      <point x="508.987" y="239.49" type="curve" smooth="yes"/>
      <point x="508.053" y="220.544"/>
      <point x="495.657" y="208"/>
      <point x="476.647" y="208" type="curve" smooth="yes"/>
      <point x="456.955" y="208"/>
      <point x="443.928" y="220.579"/>
    </contour>
    <contour>
      <point x="323.401" y="427.959" type="curve"/>
      <point x="324.248" y="447.052"/>
      <point x="336.486" y="460"/>
      <point x="355.639" y="460" type="curve" smooth="yes"/>
      <point x="375.573" y="460"/>
      <point x="388.329" y="446.977"/>
      <point x="387.38" y="427.041" type="curve" smooth="yes"/>
      <point x="386.535" y="407.949"/>
      <point x="374.298" y="395"/>
      <point x="355.145" y="395" type="curve" smooth="yes"/>
      <point x="335.211" y="395"/>
      <point x="322.455" y="408.053"/>
    </contour>
    <contour>
      <point x="430.849" y="316.943" type="curve" smooth="yes"/>
      <point x="431.705" y="336.236"/>
      <point x="444.27" y="349"/>
      <point x="463.587" y="349" type="curve" smooth="yes"/>
      <point x="483.678" y="349"/>
      <point x="496.785" y="336.155"/>
      <point x="495.828" y="316.041" type="curve" smooth="yes"/>
      <point x="494.975" y="296.779"/>
      <point x="482.409" y="284"/>
      <point x="463.093" y="284" type="curve" smooth="yes"/>
      <point x="443.001" y="284"/>
      <point x="429.896" y="296.887"/>
    </contour>
    <contour>
      <point x="387.702" y="384.063" type="curve"/>
      <point x="388.734" y="403"/>
      <point x="401.646" y="415"/>
      <point x="420.645" y="415" type="curve" smooth="yes"/>
      <point x="440.377" y="415"/>
      <point x="453.826" y="402.773"/>
      <point x="452.671" y="382.937" type="curve" smooth="yes"/>
      <point x="451.64" y="364"/>
      <point x="438.726" y="352"/>
      <point x="419.728" y="352" type="curve" smooth="yes"/>
      <point x="399.995" y="352"/>
      <point x="386.55" y="364.262"/>
    </contour>
  </outline>
</glyph>
<glyph name="NameMe.545" format="1">
  <advance width="657"/>
  <outline>
    <contour>
      <point x="502" y="-67" type="line"/>
      <point x="502" y="681" type="line"/>
      <point x="556" y="639"/>
      <point x="653.5" y="634"/>
      <point x="653.5" y="542" type="curve" smooth="yes"/>
      <point x="653.5" y="498"/>
      <point x="618.691" y="468"/>
      <point x="575.5" y="468" type="curve" smooth="yes"/>
      <point x="560.833" y="468"/>
      <point x="545.833" y="471.333"/>
      <point x="530.5" y="478" type="curve"/>
      <point x="530.5" y="-73" type="line"/>
    </contour>
    <contour>
      <point x="530.605" y="504.273" type="line"/>
      <point x="539.1" y="499.699"/>
      <point x="549.882" y="497.413"/>
      <point x="562.948" y="497.413" type="curve" smooth="yes"/>
      <point x="594.954" y="497.413"/>
      <point x="608.5" y="521.915"/>
      <point x="608.5" y="545.438" type="curve" smooth="yes"/>
      <point x="608.5" y="586.602"/>
      <point x="576.67" y="606.203"/>
      <point x="530.605" y="636.587" type="curve"/>
    </contour>
    <contour>
      <point x="374.25" y="2" type="curve"/>
      <point x="362.7" y="0.592773"/>
      <point x="345.583" y="-1"/>
      <point x="318.25" y="-1" type="curve" smooth="yes"/>
      <point x="187.25" y="-1"/>
      <point x="115.25" y="69"/>
      <point x="115.25" y="169" type="curve" smooth="yes"/>
      <point x="115.25" y="274"/>
      <point x="188.25" y="317"/>
      <point x="307.25" y="317" type="curve" smooth="yes"/>
      <point x="424.5" y="317" type="line"/>
      <point x="414.776" y="363.186"/>
      <point x="384.765" y="390"/>
      <point x="352.25" y="390" type="curve" smooth="yes"/>
      <point x="333.25" y="390"/>
      <point x="318.799" y="378.911"/>
      <point x="310.25" y="361" type="curve" smooth="yes"/>
      <point x="299.75" y="339"/>
      <point x="282.829" y="333"/>
      <point x="263" y="333" type="curve" smooth="yes"/>
      <point x="238" y="333"/>
      <point x="220.25" y="349.75"/>
      <point x="220.25" y="370.75" type="curve" smooth="yes"/>
      <point x="220.25" y="407.033"/>
      <point x="261.25" y="433"/>
      <point x="316.25" y="433" type="curve" smooth="yes"/>
      <point x="401.989" y="433"/>
      <point x="445.99" y="388.542"/>
      <point x="463.25" y="291" type="curve"/>
      <point x="401.5" y="291" type="line" smooth="yes"/>
      <point x="313.5" y="291"/>
      <point x="268.5" y="257"/>
      <point x="268.5" y="173" type="curve" smooth="yes"/>
      <point x="268.5" y="89"/>
      <point x="320.239" y="44"/>
      <point x="369.75" y="44" type="curve" smooth="yes"/>
      <point x="400.099" y="44"/>
      <point x="425" y="48.25"/>
      <point x="465" y="94.25" type="curve"/>
      <point x="496.75" y="75" type="line"/>
      <point x="476.75" y="58.333"/>
      <point x="460.367" y="41.1865"/>
      <point x="445" y="32.75" type="curve"/>
      <point x="448.333" y="33.417"/>
      <point x="446.5" y="33.5"/>
      <point x="450.5" y="33.5" type="curve" smooth="yes"/>
      <point x="498.771" y="33.5"/>
      <point x="531.25" y="-17.8018"/>
      <point x="531.25" y="-87" type="curve" smooth="yes"/>
      <point x="531.25" y="-175"/>
      <point x="493.905" y="-212.5"/>
      <point x="426" y="-212.5" type="curve" smooth="yes"/>
      <point x="376.845" y="-212.5"/>
      <point x="359.25" y="-187.083"/>
      <point x="359.25" y="-166" type="curve"/>
      <point x="393.75" y="-166" type="line"/>
      <point x="393.754" y="-173.44"/>
      <point x="400.397" y="-176"/>
      <point x="408.25" y="-176" type="curve" smooth="yes"/>
      <point x="432.699" y="-176"/>
      <point x="444.25" y="-151.479"/>
      <point x="444.25" y="-90" type="curve" smooth="yes"/>
      <point x="444.25" y="-45.0967"/>
      <point x="430.908" y="-17"/>
      <point x="412.25" y="-17" type="curve" smooth="yes"/>
      <point x="394.582" y="-17"/>
      <point x="388.568" y="-29.2295"/>
      <point x="388.5" y="-45" type="curve"/>
      <point x="355.75" y="-45" type="line"/>
      <point x="355.797" y="-29.335"/>
      <point x="363.425" y="-8.01855"/>
    </contour>
    <contour>
      <point x="354" y="429.5" type="curve"/>
      <point x="333" y="418.5"/>
      <point x="265.037" y="411.052"/>
      <point x="256" y="405.75" type="curve"/>
      <point x="177.193" y="405.75"/>
      <point x="59" y="370.057"/>
      <point x="59" y="218" type="curve" smooth="yes"/>
      <point x="59" y="137.333"/>
      <point x="86" y="78"/>
      <point x="135" y="34" type="curve"/>
      <point x="135" y="0" type="line"/>
      <point x="68.5828" y="33.2086"/>
      <point x="27" y="120.07"/>
      <point x="27" y="221" type="curve" smooth="yes"/>
      <point x="27" y="337.213"/>
      <point x="97.5107" y="436.25"/>
      <point x="265.5" y="436.25" type="curve" smooth="yes"/>
      <point x="291.563" y="436.25"/>
      <point x="320.717" y="435.999"/>
    </contour>
  </outline>
</glyph>
<glyph name="si_JnyAe" format="1">
  <advance width="839"/>
  <outline>
    <contour>
      <point x="421" y="169" type="curve" smooth="yes"/>
      <point x="421" y="274"/>
      <point x="494" y="317"/>
      <point x="613" y="317" type="curve" smooth="yes"/>
      <point x="730.25" y="317" type="line"/>
      <point x="720.526" y="363.186"/>
      <point x="690.515" y="390"/>
      <point x="658" y="390" type="curve" smooth="yes"/>
      <point x="639" y="390"/>
      <point x="624.549" y="378.911"/>
      <point x="616" y="361" type="curve" smooth="yes"/>
      <point x="605.5" y="339"/>
      <point x="588.579" y="333"/>
      <point x="568.75" y="333" type="curve" smooth="yes"/>
      <point x="543.75" y="333"/>
      <point x="526" y="349.75"/>
      <point x="526" y="370.75" type="curve" smooth="yes"/>
      <point x="526" y="407.033"/>
      <point x="567" y="433"/>
      <point x="622" y="433" type="curve" smooth="yes"/>
      <point x="707.739" y="433"/>
      <point x="751.74" y="388.542"/>
      <point x="769" y="291" type="curve"/>
      <point x="707.25" y="291" type="line" smooth="yes"/>
      <point x="619.25" y="291"/>
      <point x="574.25" y="257"/>
      <point x="574.25" y="173" type="curve" smooth="yes"/>
      <point x="574.25" y="89"/>
      <point x="625.989" y="44"/>
      <point x="675.5" y="44" type="curve" smooth="yes"/>
      <point x="705.849" y="44"/>
      <point x="730.75" y="48.25"/>
      <point x="770.75" y="94.25" type="curve"/>
      <point x="797" y="75" type="line"/>
      <point x="781.728" y="47.75"/>
      <point x="775" y="5.1582"/>
      <point x="775" y="-60" type="curve" smooth="yes"/>
      <point x="775" y="-127.798"/>
      <point x="798.945" y="-199.25"/>
      <point x="822" y="-199.25" type="curve"/>
      <point x="822" y="-228.5" type="line"/>
      <point x="819.328" y="-229.383"/>
      <point x="814.947" y="-229.75"/>
      <point x="811" y="-229.75" type="curve" smooth="yes"/>
      <point x="754.651" y="-229.75"/>
      <point x="698.5" y="-178.438"/>
      <point x="698.5" y="-105" type="curve" smooth="yes"/>
      <point x="698.5" y="-50.1621"/>
      <point x="718.786" y="-10.3389"/>
      <point x="734" y="21" type="curve"/>
      <point x="705.873" y="4.47461"/>
      <point x="667" y="-54.2383"/>
      <point x="667" y="-108" type="curve" smooth="yes"/>
      <point x="667" y="-157.651"/>
      <point x="678.825" y="-194.085"/>
      <point x="705" y="-201" type="curve"/>
      <point x="705" y="-228.25" type="line"/>
      <point x="701.208" y="-229.427"/>
      <point x="690.885" y="-230.25"/>
      <point x="686" y="-230.25" type="curve" smooth="yes"/>
      <point x="623.773" y="-230.25"/>
      <point x="576" y="-197.724"/>
      <point x="576" y="-132" type="curve" smooth="yes"/>
      <point x="576" y="-78.6523"/>
      <point x="614.958" y="-41.1084"/>
      <point x="662" y="1" type="curve"/>
      <point x="654.071" y="-0.615234"/>
      <point x="651.333" y="-1"/>
      <point x="624" y="-1" type="curve" smooth="yes"/>
      <point x="493" y="-1"/>
      <point x="421" y="69"/>
    </contour>
    <contour>
      <point x="674" y="426" type="curve"/>
      <point x="553" y="408.5" type="line"/>
      <point x="547.395" y="408.655"/>
      <point x="545.467" y="408.75"/>
      <point x="539.75" y="408.75" type="curve" smooth="yes"/>
      <point x="442.528" y="408.75"/>
      <point x="370.746" y="347.596"/>
      <point x="349.75" y="240.75" type="curve"/>
      <point x="357.75" y="244.75"/>
      <point x="363.333" y="245.75"/>
      <point x="370" y="245.75" type="curve" smooth="yes"/>
      <point x="418" y="245.75"/>
      <point x="452" y="202"/>
      <point x="452" y="136" type="curve" smooth="yes"/>
      <point x="452" y="56"/>
      <point x="395" y="-2"/>
      <point x="308" y="-2" type="curve" smooth="yes"/>
      <point x="197" y="-2"/>
      <point x="134" y="96"/>
      <point x="134" y="207" type="curve" smooth="yes"/>
      <point x="134" y="330"/>
      <point x="209" y="431.5"/>
      <point x="320" y="431.5" type="curve" smooth="yes"/>
      <point x="323.953" y="431.5"/>
      <point x="328.954" y="431.25"/>
      <point x="333" y="431" type="curve"/>
      <point x="333" y="405.5" type="line"/>
      <point x="329.645" y="405.784"/>
      <point x="325.311" y="405.95"/>
      <point x="322" y="405.95" type="curve" smooth="yes"/>
      <point x="236" y="405.95"/>
      <point x="187.75" y="327.458"/>
      <point x="187.75" y="258.25" type="curve" smooth="yes"/>
      <point x="187.75" y="202.544"/>
      <point x="227.27" y="140"/>
      <point x="308" y="140" type="curve" smooth="yes"/>
      <point x="367" y="140"/>
      <point x="394" y="160.486"/>
      <point x="394" y="190.5" type="curve" smooth="yes"/>
      <point x="394" y="201.482"/>
      <point x="388.872" y="219.75"/>
      <point x="367" y="219.75" type="curve" smooth="yes"/>
      <point x="359.667" y="219.75"/>
      <point x="350.75" y="216.75"/>
      <point x="345.75" y="212.75" type="curve"/>
      <point x="344.75" y="206.75"/>
      <point x="343.5" y="197.333"/>
      <point x="343.5" y="194" type="curve"/>
      <point x="314.5" y="194" type="line"/>
      <point x="328.178" y="354.298"/>
      <point x="406.221" y="438"/>
      <point x="560" y="438" type="curve" smooth="yes"/>
      <point x="591" y="438"/>
      <point x="640.988" y="436.425"/>
    </contour>
    <contour>
      <point x="326" y="431.25" type="curve"/>
      <point x="305" y="420.25"/>
      <point x="253.84" y="413.676"/>
      <point x="238.25" y="405.5" type="curve"/>
      <point x="135.583" y="405.5"/>
      <point x="59" y="347.259"/>
      <point x="59" y="218" type="curve" smooth="yes"/>
      <point x="59" y="137.333"/>
      <point x="86" y="78"/>
      <point x="135" y="34" type="curve"/>
      <point x="135" y="0" type="line"/>
      <point x="68.5828" y="33.2086"/>
      <point x="27" y="120.07"/>
      <point x="27" y="221" type="curve" smooth="yes"/>
      <point x="27" y="352.7"/>
      <point x="99.7562" y="433"/>
      <point x="239" y="433" type="curve" smooth="yes"/>
      <point x="248" y="433"/>
      <point x="299.296" y="432.309"/>
    </contour>
  </outline>
</glyph>
<glyph name="NameMe.561" format="1">
  <advance width="839"/>
  <outline>
    <contour>
      <point x="715.75" y="4" type="curve"/>
      <point x="698.69" y="-10.3359"/>
      <point x="666.75" y="-54.2383"/>
      <point x="666.75" y="-108" type="curve" smooth="yes"/>
      <point x="666.75" y="-157.651"/>
      <point x="686.454" y="-193.58"/>
      <point x="704.75" y="-201" type="curve"/>
      <point x="704.75" y="-228.25" type="line"/>
      <point x="700.958" y="-229.427"/>
      <point x="690.635" y="-230.25"/>
      <point x="685.75" y="-230.25" type="curve" smooth="yes"/>
      <point x="623.523" y="-230.25"/>
      <point x="575.75" y="-197.724"/>
      <point x="575.75" y="-132" type="curve" smooth="yes"/>
      <point x="575.75" y="-78.6523"/>
      <point x="614.708" y="-41.1084"/>
      <point x="661.75" y="1" type="curve"/>
      <point x="653.821" y="-0.615234"/>
      <point x="651.083" y="-1"/>
      <point x="623.75" y="-1" type="curve" smooth="yes"/>
      <point x="492.75" y="-1"/>
      <point x="420.75" y="69"/>
      <point x="420.75" y="169" type="curve" smooth="yes"/>
      <point x="420.75" y="274"/>
      <point x="493.75" y="317"/>
      <point x="612.75" y="317" type="curve" smooth="yes"/>
      <point x="730" y="317" type="line"/>
      <point x="720.276" y="363.186"/>
      <point x="690.265" y="390"/>
      <point x="657.75" y="390" type="curve" smooth="yes"/>
      <point x="638.75" y="390"/>
      <point x="624.299" y="378.911"/>
      <point x="615.75" y="361" type="curve" smooth="yes"/>
      <point x="605.25" y="339"/>
      <point x="588.329" y="333"/>
      <point x="568.5" y="333" type="curve" smooth="yes"/>
      <point x="543.5" y="333"/>
      <point x="525.75" y="349.75"/>
      <point x="525.75" y="370.75" type="curve" smooth="yes"/>
      <point x="525.75" y="407.033"/>
      <point x="566.75" y="433"/>
      <point x="621.75" y="433" type="curve" smooth="yes"/>
      <point x="707.489" y="433"/>
      <point x="751.49" y="388.542"/>
      <point x="768.75" y="291" type="curve"/>
      <point x="707" y="291" type="line" smooth="yes"/>
      <point x="619" y="291"/>
      <point x="574" y="257"/>
      <point x="574" y="173" type="curve" smooth="yes"/>
      <point x="574" y="89"/>
      <point x="625.739" y="44"/>
      <point x="675.25" y="44" type="curve" smooth="yes"/>
      <point x="705.599" y="44"/>
      <point x="730.5" y="48.25"/>
      <point x="770.5" y="94.25" type="curve"/>
      <point x="796.75" y="75" type="line"/>
      <point x="796.48" y="67.5654"/>
      <point x="746.75" y="30.75"/>
      <point x="746.75" y="30.75" type="curve"/>
      <point x="815.75" y="30.75" type="line"/>
      <point x="815.75" y="4.75" type="line"/>
      <point x="753.5" y="-36" type="line"/>
      <point x="813.75" y="-36" type="line"/>
      <point x="813.75" y="-61.75" type="line"/>
      <point x="801.354" y="-74.9141"/>
      <point x="783.25" y="-92.0703"/>
      <point x="783.25" y="-136" type="curve" smooth="yes"/>
      <point x="783.25" y="-176.404"/>
      <point x="804.982" y="-200"/>
      <point x="821.75" y="-200" type="curve"/>
      <point x="821.75" y="-228.5" type="line"/>
      <point x="819.078" y="-229.383"/>
      <point x="814.697" y="-229.75"/>
      <point x="810.75" y="-229.75" type="curve" smooth="yes"/>
      <point x="754.401" y="-229.75"/>
      <point x="698.75" y="-189.072"/>
      <point x="698.75" y="-144" type="curve" smooth="yes"/>
      <point x="698.75" y="-104.948"/>
      <point x="726.844" y="-75.0098"/>
      <point x="757.75" y="-61.25" type="curve"/>
      <point x="757.493" y="-61.5586"/>
      <point x="701.75" y="-61.75"/>
      <point x="701.75" y="-61.75" type="curve"/>
      <point x="701.75" y="-40" type="line"/>
      <point x="725.191" y="-25.7754"/>
      <point x="747.179" y="-9.8457"/>
      <point x="771.25" y="3.75" type="curve"/>
      <point x="769.147" y="3.75"/>
      <point x="715.75" y="4"/>
    </contour>
    <contour>
      <point x="674" y="426" type="curve"/>
      <point x="553" y="408.5" type="line"/>
      <point x="547.395" y="408.655"/>
      <point x="545.467" y="408.75"/>
      <point x="539.75" y="408.75" type="curve" smooth="yes"/>
      <point x="442.528" y="408.75"/>
      <point x="370.746" y="347.596"/>
      <point x="349.75" y="240.75" type="curve"/>
      <point x="357.75" y="244.75"/>
      <point x="363.333" y="245.75"/>
      <point x="370" y="245.75" type="curve" smooth="yes"/>
      <point x="418" y="245.75"/>
      <point x="452" y="202"/>
      <point x="452" y="136" type="curve" smooth="yes"/>
      <point x="452" y="56"/>
      <point x="395" y="-2"/>
      <point x="308" y="-2" type="curve" smooth="yes"/>
      <point x="197" y="-2"/>
      <point x="134" y="96"/>
      <point x="134" y="207" type="curve" smooth="yes"/>
      <point x="134" y="330"/>
      <point x="209" y="431.5"/>
      <point x="320" y="431.5" type="curve" smooth="yes"/>
      <point x="323.953" y="431.5"/>
      <point x="328.954" y="431.25"/>
      <point x="333" y="431" type="curve"/>
      <point x="333" y="405.5" type="line"/>
      <point x="329.645" y="405.784"/>
      <point x="325.311" y="405.95"/>
      <point x="322" y="405.95" type="curve" smooth="yes"/>
      <point x="236" y="405.95"/>
      <point x="187.75" y="327.458"/>
      <point x="187.75" y="258.25" type="curve" smooth="yes"/>
      <point x="187.75" y="202.544"/>
      <point x="227.27" y="140"/>
      <point x="308" y="140" type="curve" smooth="yes"/>
      <point x="367" y="140"/>
      <point x="394" y="160.486"/>
      <point x="394" y="190.5" type="curve" smooth="yes"/>
      <point x="394" y="201.482"/>
      <point x="388.872" y="219.75"/>
      <point x="367" y="219.75" type="curve" smooth="yes"/>
      <point x="359.667" y="219.75"/>
      <point x="350.75" y="216.75"/>
      <point x="345.75" y="212.75" type="curve"/>
      <point x="344.75" y="206.75"/>
      <point x="343.5" y="197.333"/>
      <point x="343.5" y="194" type="curve"/>
      <point x="314.5" y="194" type="line"/>
      <point x="328.178" y="354.298"/>
      <point x="406.221" y="438"/>
      <point x="560" y="438" type="curve" smooth="yes"/>
      <point x="591" y="438"/>
      <point x="640.988" y="436.425"/>
    </contour>
    <contour>
      <point x="326" y="431.25" type="curve"/>
      <point x="305" y="420.25"/>
      <point x="253.84" y="413.676"/>
      <point x="238.25" y="405.5" type="curve"/>
      <point x="135.583" y="405.5"/>
      <point x="59" y="347.259"/>
      <point x="59" y="218" type="curve" smooth="yes"/>
      <point x="59" y="137.333"/>
      <point x="86" y="78"/>
      <point x="135" y="34" type="curve"/>
      <point x="135" y="0" type="line"/>
      <point x="68.5828" y="33.2086"/>
      <point x="27" y="120.07"/>
      <point x="27" y="221" type="curve" smooth="yes"/>
      <point x="27" y="352.7"/>
      <point x="99.7562" y="433"/>
      <point x="239" y="433" type="curve" smooth="yes"/>
      <point x="248" y="433"/>
      <point x="299.296" y="432.309"/>
    </contour>
  </outline>
</glyph>
